<?xml version="1.0" encoding="utf-8"?>
<!-- Generator: Adobe Illustrator 25.0.1, SVG Export Plug-In . SVG Version: 6.00 Build 0)  -->
<svg version="1.1" xmlns="http://www.w3.org/2000/svg" xmlns:xlink="http://www.w3.org/1999/xlink" x="0px" y="0px"
	 viewBox="0 0 500 500" style="enable-background:new 0 0 500 500;" xml:space="preserve">
<style type="text/css">
	.st0{fill:#E0E0E0;}
	.st1{fill:#FFFFFF;}
	.st2{fill:#F5F5F5;}
	.st3{fill:#EBEBEB;}
	.st4{display:none;}
	.st5{display:inline;}
	.st6{fill:#263238;}
	.st7{fill:#455A64;}
	.st8{fill:#111111;}
	.st9{fill:#F2F2F2;}
	.st10{fill:#8E8D8D;}
	.st11{fill:#EFEFEF;}
	.st12{clip-path:url(#SVGID_2_);}
	.st13{fill:#31211F;}
	.st14{fill:#BB4C58;}
	.st15{fill:#CDA57A;}
	.st16{fill:#E8B98D;}
	.st17{fill:#FF725E;}
	.st18{opacity:0.3;}
	.st19{fill:#844031;}
	.st20{fill:none;stroke:#4E585D;stroke-width:5.000000e-02;stroke-linecap:round;stroke-linejoin:round;stroke-miterlimit:10;}
	.st21{opacity:0.2;}
	.st22{fill:#FFBF9D;}
	.st23{fill:#FF9A6C;}
	.st24{fill:#FAFAFA;}
</style>
<g id="Background_Complete">
	<g>
		<g>
			<g>
				<g>
					<g>
						<path class="st0" d="M81.5,188.8c0,0,0-0.1,0-0.2c0-0.2,0-0.4,0-0.7c0-0.6,0-1.5,0-2.5c0-2.2,0-5.4-0.1-9.4l0.2,0.2
							c-11.1,0-28.8,0.1-48.6,0.1c0.1-0.1-0.3,0.2,0.2-0.2v0v0v0v0v0.1v0.1l0,0.2v0.4v0.8c0,0.5,0,1.1,0,1.6c0,1.1,0,2.2,0,3.2
							c0,2.1,0,4.3,0,6.3l-0.2-0.2c13.9,0,26,0.1,34.7,0.1c4.3,0,7.8,0.1,10.2,0.1c1.2,0,2.1,0,2.8,0c0.3,0,0.5,0,0.7,0
							C81.4,188.8,81.5,188.8,81.5,188.8c0,0-0.1,0-0.2,0c-0.2,0-0.4,0-0.7,0c-0.6,0-1.6,0-2.7,0c-2.4,0-5.9,0-10.2,0.1
							c-8.7,0-20.9,0.1-34.8,0.1l-0.2,0l0-0.2c0-2.1,0-4.2,0-6.3c0-1.1,0-2.2,0-3.2c0-0.5,0-1.1,0-1.6l0-0.8v-0.4v-0.2V176V176v0v0
							v0v0c0.5-0.5,0.1-0.1,0.3-0.2c19.9,0,37.5,0.1,48.6,0.1l0.2,0l0,0.2c0,4.1-0.1,7.3-0.1,9.5c0,1.1,0,1.9,0,2.5
							c0,0.3,0,0.5,0,0.6C81.5,188.7,81.5,188.8,81.5,188.8z"/>
					</g>
				</g>
			</g>
		</g>
		<g>
			<g>
				<g>
					<g>
						<path class="st0" d="M88.1,175.9c0,0,0-0.1,0-0.2c0-0.2,0-0.4,0-0.7c0-0.6,0-1.5,0-2.6c0-2.3-0.1-5.4-0.1-9.4l0.2,0.2
							c-7.6,0-17.9,0-29.2,0.1c-0.2,0.2,0.3-0.3,0.2-0.2v0v0v0v0v0.1v0.1l0,0.2v0.4l0,0.8c0,0.6,0,1.1,0,1.7c0,1.1,0,2.2,0,3.3
							c0,2.2,0,4.2,0,6.2l-0.2-0.2c8.4,0,15.7,0.1,20.9,0.1c2.6,0,4.6,0,6.1,0.1c0.7,0,1.2,0,1.6,0
							C87.9,175.9,88.1,175.9,88.1,175.9c0,0-0.2,0-0.5,0c-0.4,0-0.9,0-1.6,0c-1.5,0-3.5,0-6,0.1c-5.2,0-12.6,0.1-21.1,0.1l-0.2,0
							l0-0.2c0-2,0-4.1,0-6.2c0-1.1,0-2.2,0-3.3c0-0.6,0-1.1,0-1.7l0-0.8v-0.4v-0.2v-0.1v-0.1v0v0v0v0c-0.1,0.1,0.5-0.5,0.2-0.2
							c11.4,0,21.7,0.1,29.2,0.1l0.2,0l0,0.2c0,4-0.1,7.2-0.1,9.5c0,1.1,0,1.9,0,2.5C88.1,175.6,88.1,175.9,88.1,175.9z"/>
					</g>
				</g>
			</g>
		</g>
	</g>
	<g>
		<g>
			<g>
				<g>
					<g>
						<path class="st0" d="M228.8,72.6c0,0,0-0.1,0-0.2c0-0.2,0-0.4,0-0.7c0-0.6,0-1.5,0-2.5c0-2.2,0-5.4-0.1-9.4l0.2,0.2
							c-11.1,0-28.8,0.1-48.6,0.1c0.1-0.1-0.3,0.2,0.2-0.2v0v0v0v0v0.1v0.1l0,0.2v0.4v0.8c0,0.5,0,1.1,0,1.6c0,1.1,0,2.2,0,3.2
							c0,2.1,0,4.3,0,6.3l-0.2-0.2c13.9,0,26,0.1,34.7,0.1c4.3,0,7.8,0.1,10.2,0.1c1.2,0,2.1,0,2.8,0c0.3,0,0.5,0,0.7,0
							C228.8,72.6,228.8,72.6,228.8,72.6c0,0-0.1,0-0.2,0c-0.2,0-0.4,0-0.7,0c-0.6,0-1.6,0-2.7,0c-2.4,0-5.9,0-10.2,0.1
							c-8.7,0-20.9,0.1-34.8,0.1l-0.2,0l0-0.2c0-2.1,0-4.2,0-6.3c0-1.1,0-2.2,0-3.2c0-0.5,0-1.1,0-1.6l0-0.8v-0.4v-0.2v-0.1v-0.1v0
							v0v0v0c0.5-0.5,0.1-0.1,0.3-0.2c19.9,0,37.5,0.1,48.6,0.1l0.2,0l0,0.2c0,4.1-0.1,7.3-0.1,9.5c0,1.1,0,1.9,0,2.5
							c0,0.3,0,0.5,0,0.6C228.9,72.5,228.9,72.6,228.8,72.6z"/>
					</g>
				</g>
			</g>
		</g>
		<g>
			<g>
				<g>
					<g>
						<path class="st0" d="M235.4,59.7c0,0,0-0.1,0-0.2c0-0.2,0-0.4,0-0.7c0-0.6,0-1.5,0-2.6c0-2.3-0.1-5.4-0.1-9.4l0.2,0.2
							c-7.6,0-17.9,0-29.2,0.1c-0.2,0.2,0.3-0.3,0.2-0.2v0v0v0v0v0.1V47l0,0.2v0.4l0,0.8c0,0.6,0,1.1,0,1.7c0,1.1,0,2.2,0,3.3
							c0,2.2,0,4.2,0,6.2l-0.2-0.2c8.4,0,15.7,0.1,20.9,0.1c2.6,0,4.6,0,6.1,0.1c0.7,0,1.2,0,1.6,0
							C235.2,59.7,235.4,59.7,235.4,59.7c0,0-0.2,0-0.5,0c-0.4,0-0.9,0-1.6,0c-1.5,0-3.5,0-6,0.1c-5.2,0-12.6,0.1-21.1,0.1l-0.2,0
							l0-0.2c0-2,0-4.1,0-6.2c0-1.1,0-2.2,0-3.3c0-0.6,0-1.1,0-1.7l0-0.8v-0.4V47v-0.1v-0.1v0v0v0v0c-0.1,0.1,0.5-0.5,0.2-0.2
							c11.4,0,21.7,0.1,29.2,0.1l0.2,0l0,0.2c0,4-0.1,7.2-0.1,9.5c0,1.1,0,1.9,0,2.5C235.5,59.4,235.5,59.7,235.4,59.7z"/>
					</g>
				</g>
			</g>
		</g>
	</g>
	<g>
		<g>
			<g>
				<g>
					<polygon class="st0" points="183.4,49 183.4,132.9 63,132.9 58.7,49.6 					"/>
				</g>
			</g>
		</g>
		<g>
			<g>
				<g>
					
						<rect x="77.4" y="31" transform="matrix(6.123234e-17 -1 1 6.123234e-17 27.7411 210.0666)" class="st1" width="83.1" height="120.4"/>
				</g>
			</g>
			<g>
				<g>
					<path class="st0" d="M179.7,133.3H58.1V49.1h121.5V133.3z M59.3,132.1h119.2V50.2H59.3V132.1z"/>
				</g>
			</g>
		</g>
		<g>
			<g>
				<g>
					<g>
						<rect x="71.8" y="60" class="st1" width="94.3" height="62.4"/>
					</g>
				</g>
			</g>
			<g>
				<g>
					<g>
						<g>
							<path class="st0" d="M166.1,60c0,0-0.2,0-0.5,0c-0.3,0-0.8,0-1.3,0c-1.2,0-2.9,0-5.2,0c-4.5,0-11.1,0-19.4,0.1
								c-16.6,0-40.2,0.1-67.9,0.1L72,60c0,19.1,0,40.2,0,62.4v0l-0.3-0.3c35.6,0,68.4,0,94.3,0.1l-0.2,0.2
								c0.1-19,0.1-34.6,0.1-45.4c0-5.4,0-9.7,0.1-12.6c0-1.4,0-2.5,0-3.3C166,60.4,166.1,60,166.1,60s0,0.4,0,1.1
								c0,0.8,0,1.8,0,3.3c0,2.9,0,7.1,0.1,12.5c0,10.9,0.1,26.5,0.1,45.6l0,0.2l-0.2,0c-25.9,0-58.7,0-94.3,0.1l-0.3,0v-0.3v0
								c0-22.2,0-43.3,0-62.4l0-0.3l0.3,0c27.8,0.1,51.4,0.1,68.1,0.1c8.3,0,14.9,0.1,19.4,0.1c2.2,0,3.9,0,5.1,0c0.6,0,1,0,1.3,0
								C165.9,59.9,166.1,60,166.1,60z"/>
						</g>
					</g>
				</g>
			</g>
		</g>
		<g>
			<g>
				<g>
					<g>
						<path class="st0" d="M58.7,49.4c0.1-0.1,0.8,0.5,2.1,1.3c1.2,0.9,2.9,2.2,4.7,3.6c1.8,1.4,3.4,2.8,4.5,3.8
							c1.1,1,1.8,1.7,1.7,1.8c-0.1,0.1-3-2.3-6.6-5.1C61.5,51.9,58.6,49.5,58.7,49.4z"/>
					</g>
				</g>
			</g>
		</g>
		<g>
			<g>
				<g>
					<g>
						<path class="st0" d="M179.1,49.6c0.1,0.1-2.7,2.5-6.3,5.4c-3.6,2.9-6.6,5.1-6.7,4.9s2.7-2.5,6.3-5.4
							C176,51.7,179,49.5,179.1,49.6z"/>
					</g>
				</g>
			</g>
		</g>
		<g>
			<g>
				<g>
					<g>
						<path class="st1" d="M179,132.7c-4.5-3.6-8.9-7.3-13.4-10.9"/>
					</g>
				</g>
			</g>
			<g>
				<g>
					<g>
						<g>
							<path class="st0" d="M165.6,121.8c0.1-0.1,3.2,2.2,6.9,5.2c3.7,3,6.6,5.5,6.5,5.7c-0.1,0.1-3.2-2.2-6.9-5.2
								C168.4,124.5,165.5,122,165.6,121.8z"/>
						</g>
					</g>
				</g>
			</g>
		</g>
		<g>
			<g>
				<g>
					<g>
						<path class="st0" d="M58.7,132.7c-0.1-0.1,2.7-2.5,6.3-5.3c3.6-2.8,6.5-5,6.6-4.9s-2.7,2.5-6.3,5.3
							C61.8,130.6,58.8,132.8,58.7,132.7z"/>
					</g>
				</g>
			</g>
		</g>
		<g>
			<g>
				<g>
					
						<rect x="110.1" y="60.2" transform="matrix(6.123234e-17 -1 1 6.123234e-17 30.7177 210.4189)" class="st0" width="20.9" height="59.3"/>
				</g>
			</g>
		</g>
	</g>
	<g>
		<g>
			<g>
				<g>
					<g>
						<g>
							<g>
								<g>
									<g>
										<polygon class="st2" points="302,442.2 302,480.4 358,480.4 419.7,480.4 419.7,442.2 										"/>
									</g>
								</g>
							</g>
						</g>
					</g>
				</g>
			</g>
			<g>
				<g>
					<g>
						<g>
							<g>
								<g>
									<g>
										<polygon class="st0" points="297.1,431.5 297.1,442.2 423.8,442.2 423.8,431.5 358,431.5 										"/>
									</g>
								</g>
							</g>
						</g>
					</g>
				</g>
			</g>
			<g>
				<g>
					<g>
						<g>
							<g>
								<g>
									<g>
										<polygon class="st0" points="360.5,480.4 419.7,480.4 419.7,442.2 423.8,442.2 423.8,431.5 358,431.5 358,441.2 
																					"/>
									</g>
								</g>
							</g>
						</g>
					</g>
				</g>
			</g>
			<g>
				<g>
					<g>
						<g>
							<g>
								<g>
									<g>
										<rect x="318.5" y="448.4" class="st0" width="23.9" height="5.8"/>
									</g>
								</g>
							</g>
						</g>
					</g>
				</g>
			</g>
			<g>
				<g>
					<g>
						<g>
							<g>
								<g>
									<g>
										<rect x="315.4" y="461.3" class="st1" width="30.6" height="12.2"/>
									</g>
								</g>
							</g>
						</g>
					</g>
				</g>
			</g>
		</g>
	</g>
	<g>
		<g>
			<g>
				<g>
					<rect x="195" y="222.5" class="st3" width="48.7" height="12.9"/>
				</g>
			</g>
		</g>
		<g>
			<g>
				<g>
					<g>
						<path class="st0" d="M223.1,248.9c0,0,0-0.1,0-0.2c0-0.2,0-0.4,0-0.7c0-0.6,0-1.5,0-2.5c0-2.2,0-5.4-0.1-9.4l0.2,0.2
							c-11.1,0-28.8,0.1-48.6,0.1c0.1-0.1-0.2,0.2,0.2-0.2v0v0v0v0v0.1v0.1v0.2l0,0.4v0.8c0,0.5,0,1.1,0,1.6c0,1.1,0,2.2,0,3.2
							c0,2.1,0,4.3,0,6.3l-0.2-0.2c13.9,0,26,0.1,34.7,0.1c4.3,0,7.8,0.1,10.2,0.1c1.2,0,2.1,0,2.8,0c0.3,0,0.5,0,0.7,0
							C223,248.9,223.1,248.9,223.1,248.9c0,0-0.1,0-0.2,0c-0.2,0-0.4,0-0.7,0c-0.6,0-1.6,0-2.7,0c-2.4,0-5.9,0-10.2,0.1
							c-8.7,0-20.9,0.1-34.8,0.1l-0.2,0l0-0.2c0-2.1,0-4.2,0-6.3c0-1.1,0-2.2,0-3.2c0-0.5,0-1.1,0-1.6l0-0.8v-0.4v-0.2v-0.1v-0.1v0
							v0v0v0c0.5-0.5,0.1-0.1,0.3-0.2c19.9,0,37.5,0.1,48.6,0.1l0.2,0l0,0.2c0,4.1-0.1,7.3-0.1,9.5c0,1.1,0,1.9,0,2.5
							c0,0.3,0,0.5,0,0.6C223.1,248.8,223.1,248.9,223.1,248.9z"/>
					</g>
				</g>
			</g>
		</g>
	</g>
	<g>
		<g>
			<g>
				<g>
					<rect x="430.8" y="145.7" class="st3" width="48.7" height="12.9"/>
				</g>
			</g>
		</g>
		<g>
			<g>
				<g>
					<g>
						<path class="st0" d="M458.8,172.1c0,0,0-0.1,0-0.2c0-0.2,0-0.4,0-0.7c0-0.6,0-1.5,0-2.5c0-2.2,0-5.4-0.1-9.4l0.2,0.2
							c-11.1,0-28.8,0.1-48.6,0.1c0.1-0.1-0.2,0.2,0.2-0.2v0v0v0v0v0.1v0.1v0.2l0,0.4v0.8c0,0.5,0,1.1,0,1.6c0,1.1,0,2.2,0,3.2
							c0,2.1,0,4.3,0,6.3l-0.2-0.2c13.9,0,26,0.1,34.7,0.1c4.3,0,7.8,0.1,10.2,0.1c1.2,0,2.1,0,2.8,0c0.3,0,0.5,0,0.7,0
							C458.7,172.1,458.8,172.1,458.8,172.1c0,0-0.1,0-0.2,0c-0.2,0-0.4,0-0.7,0c-0.6,0-1.6,0-2.7,0c-2.4,0-5.9,0-10.2,0.1
							c-8.7,0-20.9,0.1-34.8,0.1l-0.2,0l0-0.2c0-2.1,0-4.2,0-6.3c0-1.1,0-2.2,0-3.2c0-0.5,0-1.1,0-1.6l0-0.8v-0.4v-0.2v-0.1v-0.1v0
							v0v0v0c0.5-0.5,0.1-0.1,0.3-0.2c19.9,0,37.5,0.1,48.6,0.1l0.2,0l0,0.2c0,4.1-0.1,7.3-0.1,9.5c0,1.1,0,1.9,0,2.5
							c0,0.3,0,0.5,0,0.6C458.8,172.1,458.8,172.1,458.8,172.1z"/>
					</g>
				</g>
			</g>
		</g>
	</g>
</g>
<g id="Background_Simple" class="st4">
	<g class="st5">
		<path class="st2" d="M55.3,165.5l1.2,1.8c10,15,27.2,23.6,45,21.7c2.3-0.2,4.5-0.6,6.8-1.2c16-4.1,29.6-16.9,34.8-32.8
			c3-9.4,3.6-20,9.8-27.6c8.1-9.9,22.4-10.8,35.1-10.9c12.7-0.1,27-1.1,35.1-11c5-6.2,6.4-14.8,5.6-22.8
			c-2-21.2-17.6-39.5-36.8-48.2C172.6,25.9,150.4,26,130,31c-28.6,7-55.3,24.1-70.8,49.4C43.8,105.7,41,139.5,55.3,165.5z"/>
	</g>
	<g class="st5">
		<circle class="st2" cx="217.6" cy="229" r="18.3"/>
	</g>
</g>
<g id="Floor">
	<g>
		<g>
			<g>
				<path class="st6" d="M473.7,481.7c0,0.1-100.2,0.3-223.7,0.3c-123.6,0-223.7-0.1-223.7-0.3s100.1-0.3,223.7-0.3
					C373.5,481.4,473.7,481.5,473.7,481.7z"/>
			</g>
		</g>
	</g>
</g>
<g id="Device">
	<g>
		<g>
			<g>
				<g>
					<g>
						<g>
							<g>
								<g>
									<path class="st7" d="M426.8,416.7H281.9c-14,0-25.3-11.3-25.3-25.3V54.8c0-14,11.3-25.3,25.3-25.3h144.9
										c14,0,25.3,11.3,25.3,25.3v336.6C452.2,405.3,440.8,416.7,426.8,416.7z"/>
								</g>
							</g>
						</g>
					</g>
					<g>
						<g>
							<g>
								<g>
									<path class="st6" d="M259.7,391.4V54.7c0-12.3,10-22.2,22.2-22.2h144.9c12.3,0,22.2,10,22.2,22.2v336.6
										c0,12.3-10,22.2-22.2,22.2H281.9C269.6,413.6,259.7,403.7,259.7,391.4z"/>
								</g>
							</g>
						</g>
					</g>
					<g>
						<g>
							<g>
								<g>
									<g>
										<g>
											<path class="st7" d="M340.3,44.7c-1.2,0-2.2-1-2.2-2.2c0-1.2,1-2.2,2.2-2.2h28c1.2,0,2.2,1,2.2,2.2c0,1.2-1,2.2-2.2,2.2
												H340.3z"/>
										</g>
									</g>
								</g>
							</g>
						</g>
						<g>
							<g>
								<g>
									<g>
										<g>
											<g>
												<path class="st7" d="M325.3,44.7c-1.2,0-2.2-1-2.2-2.2c0-1.2,1-2.2,2.2-2.2c1.2,0,2.2,1,2.2,2.2
													C327.5,43.7,326.5,44.7,325.3,44.7z"/>
											</g>
										</g>
									</g>
								</g>
							</g>
							<g>
								<g>
									<g>
										<g>
											<g>
												<path class="st7" d="M333.3,44.7c-1.2,0-2.2-1-2.2-2.2c0-1.2,1-2.2,2.2-2.2c1.2,0,2.2,1,2.2,2.2
													C335.5,43.7,334.5,44.7,333.3,44.7z"/>
											</g>
										</g>
									</g>
								</g>
							</g>
							<g>
								<g>
									<g>
										<g>
											<g>
												<path class="st7" d="M383.4,44.7c-1.2,0-2.2-1-2.2-2.2c0-1.2,1-2.2,2.2-2.2c1.2,0,2.2,1,2.2,2.2
													C385.6,43.7,384.6,44.7,383.4,44.7z"/>
											</g>
										</g>
									</g>
								</g>
							</g>
							<g>
								<g>
									<g>
										<g>
											<g>
												<path class="st7" d="M375.4,44.7c-1.2,0-2.2-1-2.2-2.2c0-1.2,1-2.2,2.2-2.2c1.2,0,2.2,1,2.2,2.2
													C377.6,43.7,376.6,44.7,375.4,44.7z"/>
											</g>
										</g>
									</g>
								</g>
							</g>
						</g>
					</g>
					<g>
						<g>
							<g>
								<g>
									<path class="st8" d="M427.9,34.7h-27.5c-4.3,0-8.2,2.9-9.4,7l-0.5,1.6c-1.3,4.5-5.4,7.5-10,7.5h-52.3
										c-4.7,0-8.7-3.1-10-7.5l-0.5-1.6c-1.2-4.2-5-7-9.4-7h-24.9c-10.7,0-19.3,8.7-19.3,19.3v335.8c0,10.1,8.1,18.2,18.2,18.2
										h145.9c9.1,0,16.5-7.4,16.5-16.5V51.5C444.7,42.2,437.1,34.7,427.9,34.7z"/>
								</g>
							</g>
						</g>
					</g>
					<g>
						<g>
							<g>
								<g>
									<path class="st7" d="M452.2,113.6h0.2c0.6,0,1.1,0.5,1.1,1.1V157c0,0.6-0.5,1.1-1.1,1.1h-0.2V113.6z"/>
								</g>
							</g>
						</g>
					</g>
					<g>
						<g>
							<g>
								<g>
									<path class="st7" d="M256.6,141h-0.3c-0.6,0-1.1,0.5-1.1,1.1v26c0,0.6,0.5,1.1,1.1,1.1h0.3V141z"/>
								</g>
							</g>
						</g>
					</g>
					<g>
						<g>
							<g>
								<g>
									<path class="st7" d="M256.6,104.2h-0.3c-0.6,0-1.1,0.5-1.1,1.1v26c0,0.6,0.5,1.1,1.1,1.1h0.3V104.2z"/>
								</g>
							</g>
						</g>
					</g>
					<g>
						<g>
							<g>
								<g>
									<path class="st7" d="M256.6,76.6h-0.2c-0.5,0-0.9,0.4-0.9,0.9v11.2c0,0.5,0.4,0.9,0.9,0.9h0.2V76.6z"/>
								</g>
							</g>
						</g>
					</g>
					<g>
						<g>
							<g>
								<g>
									<g>
										<g>
											<rect x="400.8" y="47.7" class="st6" width="1.3" height="1.9"/>
										</g>
									</g>
								</g>
							</g>
							<g>
								<g>
									<g>
										<g>
											<rect x="403" y="46.9" class="st6" width="1.3" height="2.7"/>
										</g>
									</g>
								</g>
							</g>
							<g>
								<g>
									<g>
										<g>
											<rect x="405.2" y="46.3" class="st6" width="1.3" height="3.4"/>
										</g>
									</g>
								</g>
							</g>
							<g>
								<g>
									<g>
										<g>
											<rect x="407.4" y="45" class="st6" width="1.3" height="4.6"/>
										</g>
									</g>
								</g>
							</g>
						</g>
						<g>
							<g>
								<g>
									<g>
										<g>
											<path class="st6" d="M428.6,49.7h-6.7c-0.3,0-0.5-0.2-0.5-0.5v-3.4c0-0.3,0.2-0.5,0.5-0.5l6.7,0c0,0,0.1,0,0.1,0
												c0,0,0,0.1,0,0.1v1.1h0.7c0.1,0,0.1,0.1,0.1,0.1v1.6c0,0.1-0.1,0.1-0.1,0.1h-0.7v1.1C428.7,49.6,428.6,49.7,428.6,49.7z
												 M428.4,45.6l-6.6,0c-0.1,0-0.2,0.1-0.2,0.2v3.4c0,0.1,0.1,0.2,0.2,0.2h6.6v-1.1c0-0.1,0.1-0.1,0.1-0.1h0.7v-1.4h-0.7
												c-0.1,0-0.1-0.1-0.1-0.1V45.6z"/>
										</g>
									</g>
								</g>
							</g>
							<g>
								<g>
									<g>
										<g>
											<polygon class="st6" points="422.1,48.9 422.1,46.2 427.9,46.2 427.9,47.4 427.9,47.7 427.9,48.9 											"/>
										</g>
									</g>
								</g>
							</g>
						</g>
						<g>
							<g>
								<g>
									<g>
										<g>
											<path class="st6" d="M415.2,49.4c0-0.3-0.2-0.5-0.5-0.5s-0.5,0.2-0.5,0.5c0,0.3,0.2,0.5,0.5,0.5S415.2,49.7,415.2,49.4z"
												/>
										</g>
									</g>
								</g>
							</g>
							<g>
								<g>
									<g>
										<g>
											<g>
												<path class="st6" d="M413,48.3l0.6,0.6c0.3-0.3,0.6-0.4,1.1-0.4c0.4,0,0.8,0.2,1.1,0.4l0.6-0.6c-0.4-0.4-1-0.7-1.7-0.7
													C414,47.6,413.4,47.8,413,48.3z"/>
											</g>
										</g>
									</g>
								</g>
								<g>
									<g>
										<g>
											<g>
												<path class="st6" d="M414.7,46.2c-1,0-2,0.4-2.7,1.1l0.6,0.6c0.5-0.5,1.2-0.8,2-0.8c0.8,0,1.5,0.3,2,0.8l0.6-0.6
													C416.7,46.6,415.7,46.2,414.7,46.2z"/>
											</g>
										</g>
									</g>
								</g>
								<g>
									<g>
										<g>
											<g>
												<path class="st6" d="M411,46.2l0.6,0.6c0.8-0.8,1.9-1.3,3.1-1.3s2.3,0.5,3.1,1.3l0.6-0.6c-0.9-0.9-2.3-1.5-3.7-1.5
													C413.2,44.7,411.9,45.3,411,46.2z"/>
											</g>
										</g>
									</g>
								</g>
							</g>
						</g>
					</g>
				</g>
			</g>
		</g>
	</g>
	<g>
		<path class="st9" d="M319.3,88.5l-2-6.5v6.5h-1.6v-8h2.9l1.4,4.8l1.5-4.8h2.9v8h-1.9V82l-2,6.5H319.3z"/>
		<path class="st9" d="M331.8,80.5l-2.5,4.6v3.4h-1.9v-3.4l-2.5-4.6h2.2l1.5,3l1.5-3H331.8z"/>
		<path class="st9" d="M337.2,85.6v3h-1.9v-8h3.2c0.7,0,1.2,0.1,1.6,0.2s0.7,0.4,1,0.8s0.4,0.9,0.4,1.4c0,0.4-0.1,0.8-0.2,1.2
			s-0.4,0.7-0.7,0.9s-0.6,0.4-0.8,0.4s-0.7,0.1-1.3,0.1H337.2z M337.2,84.1h1.2c0.5,0,0.8-0.1,1-0.3s0.3-0.5,0.3-0.7
			c0-0.3-0.1-0.6-0.3-0.8s-0.5-0.3-1-0.3h-1.2V84.1z"/>
		<path class="st9" d="M345.6,88.6c-1.1,0-1.9-0.4-2.5-1.2c-0.6-0.8-0.9-1.8-0.9-2.9c0-1.2,0.3-2.1,0.9-2.9c0.6-0.8,1.4-1.2,2.6-1.2
			c1.1,0,2,0.4,2.5,1.3c0.6,0.8,0.9,1.8,0.9,2.9c0,1.2-0.3,2.1-0.9,2.9C347.5,88.2,346.7,88.6,345.6,88.6z M345.6,81.9
			c-1,0-1.5,0.9-1.5,2.6c0,1.7,0.5,2.6,1.5,2.6c1,0,1.4-0.9,1.4-2.6C347,82.8,346.6,81.9,345.6,81.9z"/>
		<path class="st9" d="M352.1,85.4v3.2h-1.9v-8h3.5c0.6,0,1.2,0.1,1.6,0.2s0.7,0.4,1,0.8c0.3,0.4,0.4,0.8,0.4,1.3
			c0,1-0.5,1.6-1.4,2.1l1.5,3.5h-2.1l-1.2-3.2H352.1z M352.1,81.9v2h1.1c0.4,0,0.6,0,0.8-0.1s0.3-0.2,0.5-0.4s0.2-0.4,0.2-0.6
			c0-0.2-0.1-0.4-0.2-0.6s-0.3-0.3-0.4-0.3s-0.4-0.1-0.9-0.1H352.1z"/>
		<path class="st9" d="M363.2,80.5v1.6h-2v6.4h-1.9v-6.4h-2v-1.6H363.2z"/>
		<path class="st9" d="M369.7,82.1h-3.7v1.8h3v1.5h-3v3.1H364v-8h5.7V82.1z"/>
		<path class="st9" d="M373.5,88.6c-1.1,0-1.9-0.4-2.5-1.2c-0.6-0.8-0.9-1.8-0.9-2.9c0-1.2,0.3-2.1,0.9-2.9c0.6-0.8,1.4-1.2,2.6-1.2
			c1.1,0,2,0.4,2.5,1.3c0.6,0.8,0.9,1.8,0.9,2.9c0,1.2-0.3,2.1-0.9,2.9C375.5,88.2,374.7,88.6,373.5,88.6z M373.6,81.9
			c-1,0-1.5,0.9-1.5,2.6c0,1.7,0.5,2.6,1.5,2.6c1,0,1.4-0.9,1.4-2.6C375,82.8,374.5,81.9,373.6,81.9z"/>
		<path class="st9" d="M380.1,86.9h3.2v1.6h-5.1v-8h1.9V86.9z"/>
		<path class="st9" d="M386.1,80.5v8h-1.9v-8H386.1z"/>
		<path class="st9" d="M390.7,88.6c-1.1,0-1.9-0.4-2.5-1.2c-0.6-0.8-0.9-1.8-0.9-2.9c0-1.2,0.3-2.1,0.9-2.9c0.6-0.8,1.4-1.2,2.6-1.2
			c1.1,0,2,0.4,2.5,1.3c0.6,0.8,0.9,1.8,0.9,2.9c0,1.2-0.3,2.1-0.9,2.9C392.7,88.2,391.8,88.6,390.7,88.6z M390.8,81.9
			c-1,0-1.5,0.9-1.5,2.6c0,1.7,0.5,2.6,1.5,2.6c1,0,1.4-0.9,1.4-2.6C392.2,82.8,391.7,81.9,390.8,81.9z"/>
	</g>
	<g>
		<path class="st10" d="M322.4,351.4l-2,8h-1.8l-1.3-5.3l-1.3,5.3h-1.8l-2.1-8h1.9l1.1,4.9c0,0,0,0.1,0.1,0.3c0,0.1,0,0.1,0.1,0.2
			l1.3-5.4h1.7l1.3,5.4c0-0.1,0.1-0.3,0.1-0.5l1.1-4.9H322.4z"/>
		<path class="st10" d="M328.2,356.7h-3.8c0,0.1,0,0.2,0,0.3c0,0.4,0.1,0.7,0.3,1s0.5,0.3,0.8,0.3c0.6,0,0.9-0.3,1-0.9l1.6,0.1
			c-0.4,1.4-1.3,2.1-2.7,2.1c-0.6,0-1.1-0.1-1.5-0.4s-0.8-0.6-1-1s-0.4-1-0.4-1.6c0-0.9,0.3-1.7,0.8-2.3s1.2-0.9,2.1-0.9
			c0.8,0,1.4,0.3,2,0.8S328.2,355.6,328.2,356.7z M324.4,355.7h2.1c-0.1-0.8-0.4-1.2-1-1.2C324.9,354.5,324.5,354.9,324.4,355.7z"/>
		<path class="st10" d="M331.1,351.4v2.8c0.3-0.6,0.8-0.9,1.5-0.9c0.7,0,1.2,0.3,1.6,0.8s0.6,1.3,0.6,2.3c0,0.9-0.2,1.7-0.6,2.2
			c-0.4,0.6-1,0.8-1.8,0.8c-0.4,0-0.7-0.1-1-0.2c-0.2-0.1-0.5-0.4-0.8-0.8c-0.1,0.1-0.2,0.4-0.4,0.9h-0.9v-8H331.1z M331.1,357.1
			c0,0.4,0.1,0.7,0.3,0.9s0.4,0.3,0.6,0.3c0.3,0,0.5-0.1,0.7-0.4s0.3-0.8,0.3-1.5c0-0.8-0.1-1.4-0.3-1.6s-0.4-0.3-0.7-0.3
			c-0.3,0-0.5,0.1-0.7,0.4s-0.3,0.6-0.3,1V357.1z"/>
		<path class="st10" d="M338.9,351.4h2.4c1,0,1.7,0.1,2.2,0.4c0.5,0.3,0.9,0.7,1.3,1.3c0.4,0.6,0.6,1.3,0.6,2.3c0,1.1-0.3,2.1-1,2.9
			s-1.6,1.2-2.8,1.2h-2.8V351.4z M340.8,352.9v5h0.8c0.7,0,1.2-0.3,1.5-0.8c0.3-0.5,0.5-1.1,0.5-1.8c0-0.5-0.1-0.9-0.3-1.3
			c-0.2-0.4-0.4-0.7-0.7-0.9c-0.3-0.2-0.6-0.2-1-0.2H340.8z"/>
		<path class="st10" d="M352,356.7h-3.8c0,0.1,0,0.2,0,0.3c0,0.4,0.1,0.7,0.3,1s0.5,0.3,0.8,0.3c0.6,0,0.9-0.3,1-0.9l1.6,0.1
			c-0.4,1.4-1.3,2.1-2.7,2.1c-0.6,0-1.1-0.1-1.5-0.4s-0.8-0.6-1-1s-0.4-1-0.4-1.6c0-0.9,0.3-1.7,0.8-2.3s1.2-0.9,2.1-0.9
			c0.8,0,1.4,0.3,2,0.8S352,355.6,352,356.7z M348.1,355.7h2.1c-0.1-0.8-0.4-1.2-1-1.2C348.6,354.5,348.2,354.9,348.1,355.7z"/>
		<path class="st10" d="M357.6,353.5l-2,5.9h-1.4l-2-5.9h1.8l1.1,3.8l1.2-3.8H357.6z"/>
		<path class="st10" d="M363.5,356.7h-3.8c0,0.1,0,0.2,0,0.3c0,0.4,0.1,0.7,0.3,1s0.5,0.3,0.8,0.3c0.6,0,0.9-0.3,1-0.9l1.6,0.1
			c-0.4,1.4-1.3,2.1-2.7,2.1c-0.6,0-1.1-0.1-1.5-0.4s-0.8-0.6-1-1s-0.4-1-0.4-1.6c0-0.9,0.3-1.7,0.8-2.3s1.2-0.9,2.1-0.9
			c0.8,0,1.4,0.3,2,0.8S363.5,355.6,363.5,356.7z M359.7,355.7h2.1c-0.1-0.8-0.4-1.2-1-1.2C360.2,354.5,359.8,354.9,359.7,355.7z"/>
		<path class="st10" d="M364.6,359.4v-8h1.7v8H364.6z"/>
		<path class="st10" d="M370.3,353.4c0.9,0,1.6,0.3,2.1,0.9c0.5,0.6,0.8,1.3,0.8,2.2c0,0.9-0.3,1.6-0.8,2.2s-1.2,0.9-2.1,0.9
			c-0.8,0-1.5-0.3-2-0.9c-0.5-0.6-0.8-1.3-0.8-2.2c0-0.6,0.1-1.2,0.3-1.6s0.5-0.8,0.9-1.1C369.2,353.5,369.7,353.4,370.3,353.4z
			 M370.3,354.5c-0.3,0-0.6,0.1-0.7,0.4c-0.2,0.3-0.3,0.8-0.3,1.5c0,0.7,0.1,1.2,0.2,1.5c0.2,0.3,0.4,0.5,0.7,0.5
			c0.3,0,0.5-0.1,0.7-0.4s0.3-0.8,0.3-1.5c0-0.8-0.1-1.3-0.2-1.6C370.9,354.6,370.6,354.5,370.3,354.5z"/>
		<path class="st10" d="M374.2,361.4v-7.9h1.6v0.9c0.3-0.7,0.8-1,1.6-1c0.6,0,1.2,0.3,1.6,0.8s0.6,1.3,0.6,2.2c0,1-0.2,1.8-0.6,2.4
			s-0.9,0.8-1.6,0.8c-0.7,0-1.1-0.3-1.4-0.8v2.7H374.2z M375.9,356.8c0,0.4,0,0.7,0.1,0.9s0.2,0.3,0.3,0.4s0.3,0.2,0.5,0.2
			c0.2,0,0.5-0.1,0.6-0.4s0.3-0.8,0.3-1.6c0-1.2-0.3-1.8-0.9-1.8c-0.2,0-0.4,0.1-0.6,0.3s-0.3,0.6-0.3,1.1V356.8z"/>
		<path class="st10" d="M386,356.7h-3.8c0,0.1,0,0.2,0,0.3c0,0.4,0.1,0.7,0.3,1s0.5,0.3,0.8,0.3c0.6,0,0.9-0.3,1-0.9l1.6,0.1
			c-0.4,1.4-1.3,2.1-2.7,2.1c-0.6,0-1.1-0.1-1.5-0.4s-0.8-0.6-1-1s-0.4-1-0.4-1.6c0-0.9,0.3-1.7,0.8-2.3s1.2-0.9,2.1-0.9
			c0.8,0,1.4,0.3,2,0.8S386,355.6,386,356.7z M382.2,355.7h2.1c-0.1-0.8-0.4-1.2-1-1.2C382.7,354.5,382.3,354.9,382.2,355.7z"/>
		<path class="st10" d="M388.8,359.4h-1.7v-5.9h1.6v1.1c0.2-0.8,0.7-1.2,1.3-1.2c0.1,0,0.2,0,0.3,0v1.7c-0.4,0-0.6,0.1-0.8,0.2
			s-0.4,0.3-0.5,0.6s-0.2,0.7-0.2,1.1V359.4z"/>
	</g>
	<g>
		<path class="st11" d="M316.7,277.4l-4.3,1.4c-0.6-1.7-1.8-2.6-3.7-2.6c-2,0-3,0.6-3,1.9c0,0.5,0.2,1,0.6,1.3
			c0.4,0.4,1.2,0.7,2.5,0.9c2.2,0.4,3.8,0.9,4.8,1.3c1,0.5,1.9,1.2,2.6,2.2s1.1,2.1,1.1,3.4c0,2-0.8,3.6-2.3,5.1
			c-1.5,1.4-3.7,2.1-6.7,2.1c-2.2,0-4.1-0.5-5.7-1.5c-1.6-1-2.6-2.5-3.1-4.5l4.7-1.1c0.5,2,2,3,4.4,3c1.2,0,2-0.2,2.6-0.7
			c0.6-0.4,0.9-1,0.9-1.6c0-0.6-0.3-1.1-0.8-1.5s-1.5-0.7-3-1c-2.8-0.6-4.7-1.3-5.9-2.3c-1.2-1-1.8-2.4-1.8-4.3
			c0-1.9,0.7-3.5,2.1-4.9c1.4-1.3,3.3-2,5.7-2C312.7,272.3,315.5,274,316.7,277.4z"/>
		<path class="st11" d="M330.9,272.6l6.8,21.6h-5.4l-1.3-4.5h-7l-1.4,4.5h-4.4l6.9-21.6H330.9z M325.1,285.8h4.6l-2.3-7.6
			L325.1,285.8z"/>
		<path class="st11" d="M340,272.6h10.1c1.8,0,3.2,0.2,4.1,0.7s1.7,1.1,2.2,1.9c0.6,0.8,0.9,1.8,0.9,3c0,2.4-1.3,4-3.9,4.8
			c1.5,0.3,2.6,1,3.4,2s1.1,2.1,1.1,3.3c0,1.6-0.6,3-1.8,4.2c-1.2,1.2-3.2,1.8-6,1.8H340V272.6z M345.1,276.4v4.7h3.8
			c1.4,0,2.3-0.3,2.7-0.8c0.4-0.6,0.5-1.1,0.5-1.6c0-0.5-0.2-1-0.5-1.4c-0.3-0.4-0.6-0.6-1-0.7c-0.4-0.1-1.1-0.2-2.1-0.2H345.1z
			 M345.1,285v5.2h3.9c1.3,0,2.3-0.2,2.8-0.7s0.8-1.1,0.8-1.9c0-0.7-0.3-1.3-0.8-1.8s-1.4-0.8-2.6-0.8H345.1z"/>
		<path class="st11" d="M366.2,272.6v21.6h-5.1v-21.6H366.2z"/>
		<path class="st11" d="M387.2,272.6v21.6h-4.3l-8.5-14.6c0,0.4,0,0.6,0,0.7c0,0.4,0.1,0.7,0.1,0.9v12.9h-3.9v-21.6h5.5l7.4,12.8
			c-0.1-0.6-0.1-1.1-0.1-1.4v-11.3H387.2z"/>
		<path class="st11" d="M402.1,272.6l6.8,21.6h-5.4l-1.3-4.5h-7l-1.4,4.5h-4.4l6.9-21.6H402.1z M396.3,285.8h4.6l-2.3-7.6
			L396.3,285.8z"/>
		<path class="st11" d="M319,311.5l6.8,21.6h-5.4l-1.3-4.5h-7l-1.4,4.5h-4.4l6.9-21.6H319z M313.3,324.7h4.6l-2.3-7.6L313.3,324.7z"
			/>
		<path class="st11" d="M333.1,311.5v10.2l6.8-10.2h4.8l-5.2,7.7l6.5,13.9h-5.6l-4.3-9.4l-3,4.4v5h-5v-21.6H333.1z"/>
		<path class="st11" d="M362.6,311.5v4.3h-5.4v17.3h-5.1v-17.3h-5.4v-4.3H362.6z"/>
		<path class="st11" d="M380.2,315.7h-10.3v4.4h8.1v4.1h-8.1v4.7h10.3v4.3h-15.4v-21.6h15.4V315.7z"/>
		<path class="st11" d="M388.3,324.6v8.6h-5.1v-21.6h9.5c1.8,0,3.2,0.2,4.2,0.6c1.1,0.4,1.9,1.2,2.6,2.2c0.7,1.1,1,2.3,1,3.6
			c0,2.6-1.3,4.5-3.8,5.6l4,9.6h-5.6l-3.3-8.6H388.3z M388.3,315.4v5.5h3.1c1,0,1.8-0.1,2.2-0.2c0.5-0.1,0.9-0.5,1.2-1
			c0.4-0.5,0.5-1.1,0.5-1.7c0-0.6-0.2-1.1-0.5-1.6c-0.4-0.5-0.8-0.8-1.2-0.9c-0.4-0.1-1.2-0.2-2.4-0.2H388.3z"/>
	</g>
	<g>
		<g>
			<defs>
				<path id="SVGID_1_" d="M415.7,180.3c0,32.5-26.3,58.8-58.8,58.8c-32.5,0-58.8-26.3-58.8-58.8c0-32.5,26.3-58.8,58.8-58.8
					C389.4,121.5,415.7,147.8,415.7,180.3z"/>
			</defs>
			<use xlink:href="#SVGID_1_"  style="overflow:visible;fill:#97A345;"/>
			<clipPath id="SVGID_2_">
				<use xlink:href="#SVGID_1_"  style="overflow:visible;"/>
			</clipPath>
			<g class="st12">
				<path class="st13" d="M382.1,158.1c-3.1,1,0.4,13.5,4,8.5c0.2,1.8-0.7,3.7-2.7,3.7c-0.5,2.1,2.6,1.7,2.7,4.2
					c0.1,2.4-2.2,2.2-2.2,4.4c0,2.1,2.3,3.4,4.2,2.8c2.3-0.8,2.5-2.8,3-4.5c1.1,1.8,1.4,4.3,0.3,6.2c1.4,0.2,2.2-1.1,2.2-2.4
					c0.8,1.2,0.5,3-0.3,4.1c0.6-0.1,1.3,0.2,1.9,0.1c0.4,2.2-1.5,4.6-3.2,5.8c-1.8,1.4-5.5,1.1-2.5,3.6c2.2,1.9,4.1,0.8,4.2,4.4
					c0.1,2.6-1.2,5-3.9,4.9c0-0.2-0.1-0.3-0.2-0.4c2,2.3,1.4,6-0.6,8c0.4-1.3,0.6-3.3-0.7-4.1c0.2,1,0,2.1-1,2.5
					c0.4,4.8-8.6,5.1-11.9,5.4c-2.5,0.2-4.7,1.2-7.2,1.5c-2.3,0.2-4.8-0.2-7.1-0.3c-0.2-10-5.5-19-9.1-28.2
					c-1.6-4.1,0.8-6.6,3.7-9.8c4.2-4.6,8.8-8.6,12.5-13.6L382.1,158.1z"/>
				<path class="st13" d="M330.5,158.1c3.1,1-0.4,13.5-4,8.5c-0.2,1.8,0.7,3.7,2.7,3.7c0.5,2.1-2.6,1.7-2.7,4.2
					c-0.1,2.4,2.2,2.2,2.2,4.4c0,2.1-2.3,3.4-4.2,2.8c-2.3-0.8-2.5-2.8-3-4.5c-1.1,1.8-1.4,4.3-0.3,6.2c-1.4,0.2-2.2-1.1-2.2-2.4
					c-0.8,1.2-0.5,3,0.3,4.1c-0.6-0.1-1.3,0.2-1.9,0.1c-0.4,2.2,1.5,4.6,3.2,5.8c1.8,1.4,5.5,1.1,2.5,3.6c-2.2,1.9-4.1,0.8-4.2,4.4
					c-0.1,2.6,1.2,5,3.9,4.9c0-0.2,0.1-0.3,0.2-0.4c-2,2.3-1.4,6,0.6,8c-0.4-1.3-0.6-3.3,0.7-4.1c-0.2,1,0,2.1,1,2.5
					c-0.4,4.8,8.6,5.1,11.9,5.4c2.5,0.2,4.7,1.2,7.2,1.5c2.3,0.2,4.8-0.2,7.1-0.3c0.2-10,5.5-19,9.1-28.2c1.6-4.1-0.8-6.6-3.7-9.8
					c-4.2-4.6-8.8-8.6-12.5-13.6L330.5,158.1z"/>
				<path class="st14" d="M388.8,214.7c-3.7-4.6-32.9-14.7-32.9-14.7s-28.6,11.2-32.9,14.7c-4.3,3.5-5.9,25.9-5.9,25.9h76.9
					C393.9,240.6,392.5,219.3,388.8,214.7z"/>
				<path class="st15" d="M364.9,205.4c0,0-1.1,5.4-9.1,5.4c-7.9,0-9.1-5.4-9.1-5.4s2.2-4.4,0-9.5c-2.2-5.2,20.8-6.2,18.1,0
					C362.2,202,364.9,205.4,364.9,205.4z"/>
				<path class="st13" d="M374.8,185c0.6-7.7,5.5-18.9,5.5-18.9c7-15.6-4.2-38.4-13.8-31.9c-10.2-13.7-44.6,1.6-34.3,31.7
					c0,0,4.3,10.4,4.7,18c0.4,7.6,14.2,15,18.6,15.2C359.9,199.4,374.2,192.7,374.8,185z"/>
				<path class="st16" d="M381.5,170.6c0,4.1-2.9,9.7-4.9,9.7s-3.5-3.3-3.5-7.4c0-4.1,2-6.2,3.5-7.4
					C378.5,164,381.5,165.5,381.5,170.6z"/>
				<path class="st16" d="M330.9,170.6c0,4.1,2.9,9.7,4.9,9.7c2,0,3.5-3.3,3.5-7.4c0-4.1-2-6.2-3.5-7.4
					C333.8,164,330.9,165.5,330.9,170.6z"/>
				<path class="st16" d="M356.3,138.2c-13.7,0-19.8,9.6-19.8,24c0,7.3,0,13,0,18c0,12.5,14.4,23.2,19,23.2
					c4.6,0,20.6-12.5,20.6-24.3c0-4.7,0-10.1,0-16.8C376.1,147.8,370,138.2,356.3,138.2z"/>
				<path class="st13" d="M376.1,172.4l0.6-7.5c3-14.5-6.5-28.5-20.3-28.5c-13.7,0-24.4,15.3-20.7,29.8l0.8,8.5c0,0,2.6-2.2,3.1-6.2
					c0.6-5.3,4.5-10.6,12-12c11.8-2.3,15.2-9.4,15.2-9.4s2.5,3.6,5,9.4c1.6,3.7,0,6,1.4,9.8C374.6,170.2,376.1,172.4,376.1,172.4z"
					/>
			</g>
		</g>
	</g>
</g>
<g id="Speech_Bubble">
	<g>
		<g>
			<g>
				<g>
					<path class="st1" d="M159.9,109.3h73.4c2.9,0,5.2,2.3,5.2,5.2v73.4c0,2.9-2.3,5.2-5.2,5.2h-54.7c-5,4.2-14.6,12.8-14.6,12.8
						l-0.7-12.8h-3.5c-2.9,0-5.2-2.3-5.2-5.2v-73.4C154.7,111.6,157,109.3,159.9,109.3z"/>
				</g>
			</g>
			<g>
				<g>
					<g>
						<path class="st6" d="M159.9,109.3c0,0-0.6,0-1.7,0.3c-0.5,0.2-1.2,0.5-1.8,1.1c-0.6,0.6-1.2,1.4-1.5,2.4
							c-0.3,1-0.2,2.3-0.2,3.6c0,1.4,0,2.8,0,4.4c0,3.2,0,6.8,0,10.9c0,8.2,0,18.1,0.1,29.5c0,5.7,0,11.7,0,18.1c0,1.6,0,3.2,0,4.8
							c0,0.8,0,1.6,0,2.5c0,0.8,0,1.6,0.2,2.4c0.4,1.5,1.7,2.8,3.2,3.4c0.8,0.3,1.6,0.3,2.5,0.3c0.9,0,1.7,0,2.6,0l0.2,0l0,0.2
							c0.2,4,0.5,8.3,0.7,12.8l-0.4-0.2c4.6-4.1,9.5-8.4,14.6-12.8l0.1-0.1h0.1c14.5,0,30.1,0,46.2,0c3,0,5.9,0,8.8,0
							c1.4-0.1,2.7-0.8,3.6-1.9c0.4-0.5,0.7-1.2,0.9-1.8c0.2-0.7,0.2-1.4,0.2-2.1c0-5.8,0-11.5,0-17.1c0-11.2,0-22,0-32.2
							c0-5.1,0-10.1,0-15c0-2.4,0-4.8,0-7.2c0-0.6,0-1.2-0.1-1.7c-0.1-0.6-0.2-1.1-0.5-1.6c-0.5-1-1.3-1.8-2.3-2.3
							c-0.5-0.2-1-0.4-1.6-0.5c-0.5-0.1-1.1,0-1.7,0c-1.1,0-2.2,0-3.3,0c-2.2,0-4.4,0-6.5,0c-4.2,0-8.3,0-12.2,0
							c-15.5,0-28.1-0.1-36.8-0.1c-4.3,0-7.7,0-10,0c-1.1,0-2,0-2.6,0C160.2,109.3,159.9,109.3,159.9,109.3s0.3,0,0.9,0
							c0.6,0,1.5,0,2.6,0c2.3,0,5.7,0,10,0c8.7,0,21.3,0,36.8-0.1c3.9,0,8,0,12.2,0c2.1,0,4.3,0,6.5,0c1.1,0,2.2,0,3.3,0
							c0.6,0,1.1,0,1.7,0c0.6,0.1,1.2,0.2,1.7,0.5c1.1,0.5,2,1.4,2.5,2.5c0.3,0.5,0.5,1.1,0.5,1.7c0.1,0.6,0.1,1.2,0.1,1.8
							c0,2.4,0,4.8,0,7.2c0,4.9,0,9.9,0,15c0,10.3,0,21.1,0,32.2c0,5.6,0,11.3,0,17.1c0,0.7,0,1.5-0.2,2.2c-0.2,0.7-0.5,1.4-1,2
							c-0.9,1.2-2.4,2-3.9,2.1c-3,0-5.9,0-8.9,0c-16.1,0-31.7,0-46.2,0l0.2-0.1c-5,4.4-9.9,8.7-14.6,12.8l-0.4,0.3l0-0.5
							c-0.2-4.4-0.5-8.8-0.7-12.8l0.2,0.2c-0.9,0-1.7,0-2.6,0c-0.8,0-1.8,0-2.6-0.3c-1.7-0.6-3-2-3.5-3.7c-0.3-0.8-0.2-1.7-0.2-2.5
							c0-0.8,0-1.6,0-2.5c0-1.6,0-3.2,0-4.8c0-6.4,0-12.4,0-18.1c0-11.4,0-21.3,0.1-29.5c0-4.1,0-7.8,0-10.9c0-1.6,0-3.1,0-4.4
							c0-1.3-0.1-2.6,0.2-3.7c0.3-1.1,0.9-1.9,1.6-2.5c0.6-0.6,1.3-0.9,1.8-1.1c0.5-0.2,1-0.2,1.3-0.2
							C159.8,109.2,159.9,109.3,159.9,109.3z"/>
					</g>
				</g>
			</g>
		</g>
		<g>
			<g>
				<g>
					<g>
						<polygon class="st17" points="214.5,149.9 211.8,163 220.5,162.8 						"/>
					</g>
				</g>
				<g class="st18">
					<g>
						<polygon points="214.5,149.9 211.8,163 220.5,162.8 						"/>
					</g>
				</g>
				<g>
					<g>
						<polygon class="st17" points="177.4,150.4 180,163.4 171.4,163.2 						"/>
					</g>
				</g>
				<g class="st18">
					<g>
						<polygon points="177.4,150.4 180,163.4 171.4,163.2 						"/>
					</g>
				</g>
				<g>
					<g>
						<path class="st19" d="M199.6,152.8L199.6,152.8c-0.6,0-1.1-0.5-1.1-1l-1.3-30.6c0-0.6,0.5-1.1,1.1-1.1h1.5
							c0.6,0,1.1,0.5,1.1,1.1l-0.3,30.6C200.7,152.3,200.2,152.8,199.6,152.8z"/>
					</g>
				</g>
				<g>
					<g>
						<rect x="197.3" y="123.9" class="st17" width="3.6" height="2.7"/>
					</g>
				</g>
				<g>
					<g>
						<path class="st19" d="M202,152.9L202,152.9c-0.6-0.2-0.8-0.8-0.7-1.4l9.3-29.1c0.2-0.6,0.8-0.9,1.4-0.7l1.4,0.5
							c0.6,0.2,0.9,0.8,0.6,1.4l-10.7,28.6C203.2,152.8,202.6,153.1,202,152.9z"/>
					</g>
				</g>
				<g>
					<g>
						
							<rect x="209.7" y="125.1" transform="matrix(0.3434 -0.9392 0.9392 0.3434 19.4245 281.5626)" class="st17" width="2.7" height="3.6"/>
					</g>
				</g>
				<g>
					<g>
						<g>
							<path class="st0" d="M212.4,145.1c-1.2-1.8-3.1-2.9-5-3.2c-2-0.3-4,0.2-5.8,1c-1.4,0.7-2.9,1.6-4.4,1.3
								c-1.1-0.2-1.9-1-2.9-1.6c-2.3-1.6-5.1-2.1-7.8-1.6c-2.7,0.6-5.1,2.3-6.7,4.7c-1.2,1.7-2,4.1-1.3,6.1l34.5-0.1
								C213.9,149.8,213.6,146.9,212.4,145.1z"/>
						</g>
					</g>
					<g>
						<g>
							<g>
								<path class="st6" d="M211.5,151c-0.1,0,0.1-0.6,0-1.7c-0.1-1.1-0.5-2.7-2-4c-0.7-0.6-1.7-1.1-2.8-1.2
									c-1.1-0.1-2.3,0.1-3.5,0.5c-1.2,0.4-2.3,1.2-3.7,1.7c-0.7,0.3-1.4,0.5-2.2,0.4c-0.8,0-1.5-0.3-2.2-0.6
									c-1.4-0.7-2.6-1.6-3.8-2.2c-1.2-0.7-2.6-0.9-3.8-0.9c-1.3,0.1-2.4,0.5-3.4,1c-1,0.6-1.7,1.3-2.3,2.1
									c-1.2,1.6-1.6,3.1-1.8,4.2c-0.2,1.1-0.2,1.7-0.2,1.7c0,0,0-0.2,0-0.4c0-0.3,0-0.7,0.1-1.3c0.2-1.1,0.6-2.7,1.8-4.4
									c0.6-0.8,1.4-1.6,2.4-2.3c1-0.6,2.3-1.1,3.6-1.1c1.3-0.1,2.8,0.2,4.1,0.9c1.3,0.7,2.5,1.6,3.8,2.2c0.7,0.3,1.3,0.5,2,0.6
									c0.7,0,1.4-0.1,2-0.4c1.3-0.5,2.5-1.3,3.7-1.7c1.3-0.4,2.6-0.6,3.8-0.5c1.2,0.1,2.3,0.7,3,1.4c1.5,1.4,1.8,3.2,1.9,4.3
									c0,0.6,0,1-0.1,1.3C211.6,150.8,211.5,151,211.5,151z"/>
							</g>
						</g>
					</g>
					<g>
						<g>
							<g>
								<path class="st6" d="M209.9,151.4c-0.1,0,0.1-0.5,0-1.5c-0.1-0.9-0.5-2.4-1.9-3.3c-0.7-0.5-1.6-0.8-2.5-0.6
									c-1,0.1-1.9,0.7-2.9,1.2c-1,0.6-2,1.3-3.3,1.6c-1.3,0.4-2.7,0.1-3.9-0.4c-2.5-1-4.5-2.7-6.7-3.1c-2.2-0.5-4.2,0.5-5.4,1.7
									c-1.2,1.2-1.6,2.6-1.9,3.5c-0.2,0.9-0.2,1.5-0.3,1.5c0,0,0-0.1,0-0.4c0-0.3,0-0.6,0.1-1.1c0.2-1,0.6-2.4,1.8-3.7
									c0.6-0.7,1.4-1.2,2.4-1.6c1-0.4,2.2-0.5,3.3-0.3c2.4,0.5,4.4,2.1,6.8,3.1c1.2,0.5,2.5,0.7,3.6,0.4c1.2-0.3,2.2-1,3.1-1.6
									c1-0.6,2-1.1,3.1-1.3c1.1-0.2,2.1,0.2,2.8,0.7c0.7,0.5,1.2,1.2,1.5,1.9c0.3,0.7,0.4,1.3,0.4,1.8c0,0.5,0,0.9-0.1,1.1
									C209.9,151.3,209.9,151.4,209.9,151.4z"/>
							</g>
						</g>
					</g>
					<g>
						<g>
							<g>
								<path class="st6" d="M207.7,151.4c-0.1,0,0.1-0.5-0.2-1.1c-0.2-0.3-0.4-0.7-0.9-1c-0.4-0.3-1-0.4-1.7-0.2
									c-0.6,0.1-1.3,0.4-2,0.9c-0.7,0.4-1.4,0.9-2.3,1.2c-1.9,0.6-4,0.1-5.9-0.8c-1.9-0.9-3.7-1.9-5.4-2.3
									c-1.7-0.4-3.4-0.2-4.5,0.6c-1.1,0.8-1.6,1.8-1.8,2.5c-0.2,0.7-0.2,1.2-0.2,1.2c0,0,0-0.1-0.1-0.3c0-0.2,0-0.5,0.1-0.9
									c0.2-0.8,0.7-1.9,1.8-2.8c1.2-0.9,3-1.2,4.8-0.7c1.8,0.4,3.6,1.5,5.5,2.3c1.9,0.9,3.9,1.3,5.6,0.8c0.8-0.3,1.6-0.7,2.3-1.1
									c0.7-0.4,1.4-0.7,2.2-0.8c0.7-0.1,1.4,0,1.9,0.4c0.5,0.3,0.8,0.8,0.9,1.1c0.1,0.4,0.1,0.7,0.1,0.9
									C207.8,151.3,207.8,151.4,207.7,151.4z"/>
							</g>
						</g>
					</g>
				</g>
				<g>
					<g>
						<path class="st17" d="M177.3,150.2c0,0.9,6.3,33.5,6.3,33.5l24.9-0.4l6-33.4L177.3,150.2z"/>
					</g>
				</g>
				<g>
					<g>
						<g>
							<path class="st6" d="M177.3,150.2c0,0,0.2,0,0.7,0c0.5,0,1.2,0,2.1,0c1.9,0,4.5-0.1,7.8-0.1c6.7-0.1,16-0.2,26.7-0.3l0.4,0
								l-0.2,0.4c-1.2,2.5-2.5,5-3.8,7.6c-1.1,2.2-2.2,4.3-3.2,6.4l-0.1,0.1l-0.2,0c-8.9,0-16.9,0-23.2-0.1l-0.1,0l-0.1-0.1
								c-2.1-4.3-3.8-7.7-5-10.2c-0.6-1.2-1-2.1-1.3-2.7c-0.1-0.3-0.2-0.5-0.3-0.7C177.3,150.3,177.3,150.2,177.3,150.2
								c0,0,0.1,0.1,0.1,0.3c0.1,0.2,0.2,0.4,0.4,0.7c0.3,0.7,0.8,1.6,1.4,2.7c1.2,2.4,3,5.8,5.1,9.9l-0.2-0.1
								c6.3,0,14.3,0,23.2-0.1l-0.2,0.1c1-2.1,2.1-4.2,3.2-6.4c1.3-2.6,2.6-5.2,3.9-7.6l0.2,0.4c-10.5,0-19.8,0.1-26.4,0.1
								c-3.3,0-6,0-7.9,0c-0.9,0-1.6,0-2.1,0C177.6,150.3,177.3,150.3,177.3,150.2z"/>
						</g>
					</g>
				</g>
				<g class="st18">
					<g>
						<polygon points="184.9,164 185.5,165.4 208.1,165.4 213.9,151.1 207.4,164 						"/>
					</g>
				</g>
				<g>
					<g>
						<g>
							<path class="st1" d="M200.9,177.7c0,0.1-2,0.3-4.4,0.3c-2.4,0-4.4-0.1-4.4-0.3c0-0.1,2-0.3,4.4-0.3
								C199,177.4,200.9,177.6,200.9,177.7z"/>
						</g>
					</g>
				</g>
				<g>
					<g>
						<g>
							<path class="st1" d="M199.4,172.5c0,0-0.1-0.3-0.2-0.7c-0.1-0.4-0.4-1-1.1-1.5c-0.6-0.5-1.6-0.7-2.5-0.3
								c-0.9,0.3-1.7,1.3-1.7,2.5c0,1.2,0.8,2.1,1.7,2.5c0.9,0.4,1.9,0.1,2.5-0.3c0.6-0.5,0.9-1,1.1-1.5
								C199.4,172.8,199.4,172.5,199.4,172.5c0,0,0.1,0.3,0,0.7c-0.1,0.5-0.4,1.2-1,1.7c-0.7,0.6-1.8,0.9-2.9,0.5
								c-1.1-0.4-2.1-1.5-2.1-2.9c0-1.4,1-2.6,2.1-2.9c1.1-0.4,2.3-0.1,2.9,0.5c0.7,0.6,1,1.2,1,1.7
								C199.5,172.3,199.4,172.5,199.4,172.5z"/>
						</g>
					</g>
				</g>
			</g>
			<g>
				<g>
					<g>
						<path class="st6" d="M185,138.7c0,0,0.4-0.1,0.6-0.6c0.1-0.3,0.1-0.7,0-1c-0.2-0.4-0.5-0.8-0.8-1.2c-0.8-0.9-1.2-2.4-0.8-3.9
							c0.2-0.8,0.7-1.5,1.3-2c0.6-0.5,1.3-1.1,1.4-1.8c0.1-0.7-0.4-1.4-1-2c-0.5-0.6-1.1-1.2-1.4-1.9c-0.7-1.4-0.6-2.9-0.1-4
							c0.5-1.1,1.2-1.8,1.7-2.1c0.5-0.4,0.9-0.5,0.9-0.4c0,0-0.3,0.2-0.8,0.6c-0.5,0.4-1.1,1.1-1.5,2.1c-0.4,1-0.4,2.4,0.2,3.7
							c0.3,0.6,0.8,1.2,1.4,1.8c0.3,0.3,0.6,0.6,0.8,1c0.2,0.4,0.4,0.9,0.3,1.4c-0.1,0.5-0.3,0.9-0.6,1.3c-0.3,0.3-0.6,0.6-0.9,0.9
							c-0.6,0.5-1,1.1-1.2,1.8c-0.4,1.4-0.1,2.7,0.6,3.6c0.3,0.4,0.7,0.9,0.8,1.3c0.2,0.5,0.1,0.9,0,1.2c-0.1,0.3-0.4,0.5-0.5,0.5
							C185.1,138.7,185,138.7,185,138.7z"/>
					</g>
				</g>
			</g>
			<g>
				<g>
					<g>
						<path class="st6" d="M188.8,138.7c0,0,0.4-0.1,0.6-0.6c0.1-0.3,0.1-0.7,0-1c-0.2-0.4-0.5-0.8-0.8-1.2
							c-0.8-0.9-1.2-2.4-0.8-3.9c0.2-0.8,0.7-1.5,1.3-2c0.6-0.5,1.3-1.1,1.4-1.8c0.1-0.7-0.4-1.4-1-2c-0.5-0.6-1.1-1.2-1.4-1.9
							c-0.7-1.4-0.6-2.9-0.1-4c0.5-1.1,1.2-1.8,1.7-2.1c0.5-0.4,0.9-0.5,0.9-0.4c0,0-0.3,0.2-0.8,0.6c-0.5,0.4-1.1,1.1-1.5,2.1
							c-0.4,1-0.4,2.4,0.2,3.7c0.3,0.6,0.8,1.2,1.4,1.8c0.3,0.3,0.6,0.6,0.8,1c0.2,0.4,0.4,0.9,0.3,1.4c-0.1,0.5-0.3,0.9-0.6,1.3
							c-0.3,0.3-0.6,0.6-0.9,0.9c-0.6,0.5-1,1.1-1.2,1.8c-0.4,1.4-0.1,2.7,0.6,3.6c0.3,0.4,0.7,0.9,0.8,1.3c0.2,0.5,0.1,0.9,0,1.2
							c-0.1,0.3-0.4,0.5-0.5,0.5C188.9,138.7,188.8,138.7,188.8,138.7z"/>
					</g>
				</g>
			</g>
		</g>
	</g>
</g>
<g id="Character_1_">
	<g>
		<g>
			<g>
				<g>
					<g>
						<g>
							<g>
								<g>
									<g>
										<g>
											<g>
												<g>
													<polygon class="st6" points="74,436.8 67.1,482.1 75,482.1 88.5,436.8 													"/>
												</g>
											</g>
										</g>
									</g>
								</g>
							</g>
						</g>
					</g>
				</g>
				<g>
					<g>
						<g>
							<g>
								<g>
									<g>
										<g>
											<g>
												<g>
													<polygon class="st6" points="246.8,436.8 253.8,482.1 245.8,482.1 232.4,436.8 													"/>
												</g>
											</g>
										</g>
									</g>
								</g>
							</g>
						</g>
					</g>
				</g>
				<g>
					<g>
						<g>
							<g>
								<g>
									<g>
										<g>
											<g>
												<g>
													<path class="st7" d="M37.9,316.8c-0.6,20.4-5.9,110.5,12.6,127.7h22.9l0,0c6,0,5.7-2.8,5.4-8.8l-4.4-116.9
														c-0.1-2.2-0.9-4.4-2.3-6.2c-3-3.7-9.1-9.5-17.4-8.9c-5.7,0.4-9.8,2.3-12.5,4.2C39.4,309.9,38,313.3,37.9,316.8z"/>
												</g>
											</g>
										</g>
									</g>
								</g>
							</g>
						</g>
					</g>
				</g>
				<g>
					<g>
						<g>
							<g>
								<g>
									<g>
										<g>
											<g>
												<g>
													<polygon class="st7" points="245.8,445.8 73.4,444.4 73.4,391.2 245.8,391.2 													"/>
												</g>
											</g>
										</g>
									</g>
								</g>
							</g>
						</g>
					</g>
				</g>
				<g>
					<g>
						<g>
							<g>
								<g>
									<g>
										<g>
											<g>
												<g>
													<polygon class="st7" points="245.1,391.2 72.4,392.6 72.4,360.7 245.8,357.4 													"/>
												</g>
											</g>
										</g>
									</g>
								</g>
							</g>
						</g>
					</g>
				</g>
				<g>
					<g>
						<g>
							<g>
								<g>
									<g>
										<g>
											<g>
												<path class="st7" d="M41.1,310.8c0,0,1.3-44.3,50.1-46.6c48.8-2.3,121.2,0,121.2,0s61.3-2.3,62.7,36.3l-12.2,74H73.7
													L41.1,310.8z"/>
											</g>
										</g>
									</g>
								</g>
							</g>
						</g>
					</g>
				</g>
				<g>
					<g>
						<g>
							<g>
								<g>
									<g>
										<g>
											<g>
												<g>
													<path class="st7" d="M282.4,321.5c-1.3,30.6-4.1,120.2-25.4,124.2h-15.8l4.9-130.9c0,0,7.3-12.8,19.5-12
														c0.1,0,0.2,0,0.4,0C275.6,303.6,282.8,311.9,282.4,321.5z"/>
												</g>
											</g>
										</g>
									</g>
								</g>
							</g>
						</g>
					</g>
				</g>
				<g>
					<g>
						<g>
							<g>
								<g>
									<g>
										<g>
											<g>
												<g>
													<g>
														<path class="st6" d="M273.7,304.7c0,0-0.2,0-0.6-0.1c-0.4-0.1-0.9-0.3-1.6-0.5c-0.4-0.1-0.8-0.2-1.2-0.3
															c-0.5-0.1-1-0.1-1.5-0.2c-0.5-0.1-1.1-0.2-1.7-0.2c-0.6,0-1.3,0-2,0c-2.8,0-6.3,0.6-9.8,2.4c-0.2,0.1-0.4,0.2-0.7,0.3
															c-0.2,0.1-0.4,0.3-0.6,0.4c-0.4,0.3-0.9,0.6-1.3,0.8c-0.8,0.6-1.7,1.3-2.5,2c-1.7,1.5-3.3,3.3-4.6,5.3l0-0.1
															c-0.6,13.5-1.4,30.6-2.3,49.2c-1,22.6-1.7,43-2.1,57.8c-0.2,7.4-0.3,13.4-0.4,17.5c0,2.1-0.1,3.7-0.1,4.8
															c0,0.5,0,0.9,0,1.2c0,0.3,0,0.4,0,0.4s0-0.1,0-0.4c0-0.3,0-0.7,0-1.2c0-1.1,0-2.7,0-4.8c0-4.1,0.1-10.1,0.3-17.5
															c0.3-14.8,1-35.3,2-57.8c0.8-18.5,1.7-35.6,2.4-49.2l0,0c0,0,0-0.1,0-0.1c1.4-2.1,3-3.9,4.7-5.4
															c0.8-0.8,1.7-1.4,2.6-2c0.5-0.3,0.9-0.6,1.3-0.8c0.2-0.1,0.4-0.3,0.7-0.4c0.2-0.1,0.5-0.2,0.7-0.3
															c3.6-1.8,7.1-2.4,9.9-2.4c0.7,0,1.4,0,2,0.1c0.6,0.1,1.2,0.2,1.7,0.3c0.5,0.1,1,0.2,1.5,0.2c0.4,0.1,0.8,0.3,1.2,0.4
															c0.7,0.2,1.2,0.4,1.6,0.5C273.5,304.6,273.7,304.7,273.7,304.7z"/>
													</g>
												</g>
											</g>
										</g>
									</g>
								</g>
							</g>
						</g>
					</g>
				</g>
				<g>
					<g>
						<g>
							<g>
								<g>
									<g>
										<g>
											<g>
												<g>
													<g>
														<path class="st6" d="M73.7,392.5c0,0,0.3,0,0.9,0c0.6,0,1.4,0,2.5,0c2.2,0,5.5,0,9.7,0c8.4,0,20.6,0.1,35.7,0.1
															c30.1,0.1,71.8,0.4,117.8-0.2c0.7,0,1.3,0,1.9,0l-0.2,0.2c0.2-5.5,0.3-10.9,0.5-16.2c0.1-2.7,0.2-5.3,0.2-7.9
															c0-1.3,0.1-2.6,0.1-3.9c0-0.6,0.1-1.3,0-1.9c0-0.6-0.2-1.2-0.5-1.8c-0.6-1.1-1.7-1.9-2.9-2.2
															c-0.6-0.1-1.3-0.1-1.9-0.1c-0.7,0-1.3,0-2,0c-2.6,0-5.2,0-7.8,0c-5.2,0-10.2,0.1-15.1,0.1
															c-19.7,0.2-37.4,0.4-52.3,0.5c-14.9,0.1-26.9,0.2-35.2,0.2c-4.2,0-7.4,0-9.6,0c-1.1,0-1.9,0-2.5,0c-0.6,0-0.8,0-0.8,0
															s0.3,0,0.8,0c0.6,0,1.4,0,2.5,0c2.2,0,5.4,0,9.6-0.1c8.3-0.1,20.4-0.2,35.2-0.4c14.9-0.2,32.6-0.4,52.3-0.6
															c4.9,0,10-0.1,15.1-0.1c2.6,0,5.2,0,7.8,0c0.7,0,1.3,0,2,0c0.6,0,1.3,0,2,0.1c1.4,0.3,2.6,1.2,3.2,2.4
															c0.3,0.6,0.5,1.3,0.6,1.9c0,0.7,0,1.3,0,2c0,1.3-0.1,2.6-0.1,3.9c-0.1,2.6-0.2,5.3-0.2,7.9
															c-0.2,5.3-0.3,10.7-0.5,16.2c0,0.1-0.1,0.2-0.2,0.2c-0.6,0-1.3,0-1.9,0c-46,0.7-87.7,0.3-117.8,0.1
															c-15.1-0.1-27.3-0.2-35.7-0.2c-4.2,0-7.5-0.1-9.7-0.1c-1.1,0-1.9,0-2.5,0C74,392.5,73.7,392.5,73.7,392.5z"/>
													</g>
												</g>
											</g>
										</g>
									</g>
								</g>
							</g>
						</g>
					</g>
				</g>
			</g>
			<g>
				<g>
					<g>
						<g>
							<g>
								<g>
									<g>
										<g>
											<g>
												<g>
													<path class="st20" d="M117.2,360.1"/>
												</g>
											</g>
										</g>
									</g>
								</g>
							</g>
						</g>
					</g>
				</g>
			</g>
			<g class="st21">
				<g>
					<g>
						<g>
							<g>
								<g>
									<g>
										<g>
											<g>
												<path d="M72.4,392.6c39.6,8.6,58.4,7.9,95.2,8.6c33,0.6,69.3-5.4,74.6-8.9L72.4,392.6z"/>
											</g>
										</g>
									</g>
								</g>
							</g>
						</g>
					</g>
				</g>
			</g>
		</g>
		<g>
			<g>
				<g>
					<path class="st6" d="M73.4,444.4c0,0,0-0.1,0-0.4c0-0.3,0-0.7,0-1.3c0-1.2,0-2.8,0-5c0-4.4,0.1-10.6,0.2-18.3
						c0.2-15.5,0.4-36.9,0.7-60.5c0.2-11.8,0.3-23.1,0.5-33.3c0-2.5-0.2-5-1-7.3c-0.7-2.3-1.8-4.4-3.2-6.2c-1.4-1.8-3-3.3-4.7-4.5
						c-1.7-1.2-3.5-2.1-5.4-2.6c-3.7-1.2-7.3-1-10.2-0.4c-3,0.7-5.4,1.8-7.1,3.1c-1.7,1.3-2.9,2.5-3.5,3.5c-0.7,0.9-1,1.4-1,1.4
						c0,0,0.1-0.1,0.2-0.4c0.1-0.3,0.4-0.6,0.7-1.1c0.7-0.9,1.7-2.3,3.5-3.6c1.7-1.3,4.2-2.5,7.2-3.2c3-0.6,6.7-0.9,10.4,0.3
						c1.9,0.6,3.7,1.5,5.5,2.7c1.7,1.2,3.4,2.8,4.8,4.6c1.4,1.8,2.5,4,3.3,6.3c0.8,2.3,1,4.9,1,7.4c-0.1,10.2-0.3,21.5-0.4,33.3
						c-0.3,23.6-0.7,45-0.9,60.5c-0.1,7.7-0.2,14-0.3,18.3c0,2.1-0.1,3.8-0.1,5c0,0.6,0,1,0,1.3C73.4,444.3,73.4,444.4,73.4,444.4z"
						/>
				</g>
			</g>
		</g>
		<g>
			<g>
				<path class="st17" d="M170.4,350.7c0.4-21,2.4-41.9,6.1-62.6c0.6-3.1,1.3-6.5,3.7-8.6c2.1-1.8,5-2.2,7.7-2.4
					c19.6-1.6,39.7,7.2,57.5,16.7c4,2.1,6.2,6.6,5.4,11.1c-3,17.1-9,30-17.8,46.3c-19.9,8.1-42.2,10.1-63.2,5.6"/>
			</g>
		</g>
		<g>
			<g>
				<g>
					<g>
						<g>
							<g>
								<g>
									<g>
										<g>
											<g>
												<path class="st6" d="M135.2,196.2c-1.2-8.8-1.2-8.5-2.3-16.9c-2.1-16.4-7.3-34.9-30.6-33.6c0,0-17.6,0.9-23,13.6
													c-2.9,6.8-3.6,30.2-4.6,51.3c0,0.3-0.1,0.7-0.2,1l-1.1,3.2c-1.4,4.2-2.3,8.5-2.5,13l-1.5,29.3c-0.1,2,1.4,3.7,3.4,3.8
													c7.9,0.4,25.8-0.6,29.3-1.9c14.4-5.2,25.7-16.6,31.2-30.8c0.4-1,5.5-1.4,6.4-1.8C141.3,225.8,135.4,197.9,135.2,196.2z"
													/>
											</g>
										</g>
									</g>
								</g>
							</g>
						</g>
					</g>
				</g>
				<g>
					<g>
						<g>
							<g>
								<g>
									<g>
										<g>
											<g>
												<g>
													<path class="st22" d="M97.8,153.2l1.5-1.4l15.7,6.6c2.3,0.2,4.1,2,4.1,4.3l-0.9,51.4c0,3.5,1,7.5-1.2,10.3l-2.5,3.6
														c-5.1,6.6-17,4.2-20.9-3.2c-0.3-0.5-0.5-1-0.5-1.3c-0.1-0.5-0.2-0.8-0.2-1.2c-0.4-4.1-0.4-7.7-0.4-7.7
														c-0.2-4.5-0.3-6.4-0.3-6.4c0,0-9.6-1.2-12.1-13.7c-1.2-6.2-0.8-14.7-0.4-23C80.4,159.9,88.5,153.1,97.8,153.2z"/>
												</g>
											</g>
										</g>
									</g>
								</g>
							</g>
						</g>
					</g>
				</g>
				<g>
					<g>
						<g>
							<g>
								<g>
									<g>
										<g>
											<g>
												<g>
													<g>
														<g>
															<g>
																<g>
																	<g>
																		<g>
																			<g>
																				<g>
																					<path class="st6" d="M100.3,179.9c0,0.8,0.7,1.5,1.6,1.6c0.9,0,1.6-0.7,1.6-1.5c0-0.8-0.7-1.5-1.6-1.6
																						C101,178.4,100.3,179,100.3,179.9z"/>
																				</g>
																			</g>
																		</g>
																	</g>
																</g>
															</g>
														</g>
													</g>
												</g>
											</g>
										</g>
									</g>
								</g>
							</g>
						</g>
					</g>
				</g>
				<g>
					<g>
						<g>
							<g>
								<g>
									<g>
										<g>
											<g>
												<g>
													<g>
														<g>
															<g>
																<g>
																	<g>
																		<g>
																			<g>
																				<g>
																					<path class="st6" d="M84.1,180c0,0.8,0.7,1.5,1.6,1.6c0.9,0,1.6-0.7,1.6-1.5c0-0.8-0.7-1.5-1.6-1.6
																						C84.9,178.5,84.1,179.2,84.1,180z"/>
																				</g>
																			</g>
																		</g>
																	</g>
																</g>
															</g>
														</g>
													</g>
												</g>
											</g>
										</g>
									</g>
								</g>
							</g>
						</g>
					</g>
				</g>
				<g>
					<g>
						<g>
							<g>
								<g>
									<g>
										<g>
											<g>
												<g>
													<g>
														<g>
															<g>
																<g>
																	<g>
																		<g>
																			<g>
																				<g>
																					<g>
																						<path class="st6" d="M81.3,174.8c0.2,0.2,1.4-0.7,3.1-0.8c1.7-0.1,3,0.8,3.2,0.5c0.1-0.1-0.1-0.5-0.7-0.8
																							c-0.6-0.4-1.5-0.7-2.6-0.7c-1.1,0-2,0.5-2.5,0.9C81.4,174.3,81.2,174.7,81.3,174.8z"/>
																					</g>
																				</g>
																			</g>
																		</g>
																	</g>
																</g>
															</g>
														</g>
													</g>
												</g>
											</g>
										</g>
									</g>
								</g>
							</g>
						</g>
					</g>
				</g>
				<g>
					<g>
						<g>
							<g>
								<g>
									<g>
										<g>
											<g>
												<g>
													<g>
														<g>
															<g>
																<g>
																	<g>
																		<g>
																			<g>
																				<g>
																					<g>
																						<path class="st6" d="M98.8,175.2c0.2,0.2,1.3-0.9,3-1.1c1.7-0.3,3.1,0.4,3.2,0.2c0.1-0.1-0.2-0.5-0.8-0.8
																							c-0.6-0.3-1.6-0.6-2.6-0.4c-1.1,0.2-1.9,0.7-2.4,1.1C98.8,174.8,98.7,175.2,98.8,175.2z"/>
																					</g>
																				</g>
																			</g>
																		</g>
																	</g>
																</g>
															</g>
														</g>
													</g>
												</g>
											</g>
										</g>
									</g>
								</g>
							</g>
						</g>
					</g>
				</g>
				<g>
					<g>
						<g>
							<g>
								<g>
									<g>
										<g>
											<g>
												<g>
													<g>
														<g>
															<g>
																<g>
																	<g>
																		<g>
																			<g>
																				<g>
																					<path class="st6" d="M92.6,187.7c0-0.1-1.1-0.2-2.8-0.4c-0.4,0-0.9-0.1-0.9-0.4c-0.1-0.3,0.1-0.8,0.2-1.3
																						c0.4-1.1,0.8-2.2,1.2-3.4c1.6-4.8,2.8-8.8,2.6-8.9c-0.2-0.1-1.7,3.8-3.3,8.7c-0.4,1.2-0.8,2.3-1.1,3.4
																						c-0.1,0.5-0.4,1.1-0.2,1.7c0.1,0.3,0.5,0.6,0.7,0.6c0.3,0.1,0.5,0.1,0.8,0.1C91.5,187.9,92.6,187.8,92.6,187.7
																						z"/>
																				</g>
																			</g>
																		</g>
																	</g>
																</g>
															</g>
														</g>
													</g>
												</g>
											</g>
										</g>
									</g>
								</g>
							</g>
						</g>
					</g>
				</g>
				<g>
					<g>
						<g>
							<g>
								<g>
									<g>
										<g>
											<g>
												<g>
													<g>
														<g>
															<g>
																<g>
																	<g>
																		<g>
																			<g>
																				<path class="st23" d="M92.2,208.2c0,0,8.4,0.2,16.6-5.1c0,0-3.9,8.8-16.5,8.1L92.2,208.2z"/>
																			</g>
																		</g>
																	</g>
																</g>
															</g>
														</g>
													</g>
												</g>
											</g>
										</g>
									</g>
								</g>
							</g>
						</g>
					</g>
				</g>
				<g>
					<g>
						<g>
							<g>
								<g>
									<g>
										<g>
											<g>
												<g>
													<g>
														<g>
															<g>
																<g>
																	<g>
																		<g>
																			<g>
																				<path class="st23" d="M93.5,191.9c0.6-0.8,1.7-1.3,2.7-1.3c0.8,0.1,1.5,0.4,2,1c0.5,0.6,0.6,1.5,0.2,2.1
																					c-0.4,0.7-1.4,0.9-2.2,0.7c-0.8-0.2-1.6-0.7-2.3-1.2c-0.2-0.1-0.4-0.3-0.5-0.5
																					C93.3,192.4,93.3,192.1,93.5,191.9"/>
																			</g>
																		</g>
																	</g>
																</g>
															</g>
														</g>
													</g>
												</g>
											</g>
										</g>
									</g>
								</g>
							</g>
						</g>
					</g>
				</g>
				<g>
					<g>
						<g>
							<g>
								<g>
									<g>
										<g>
											<g>
												<g>
													<g>
														<g>
															<g>
																<g>
																	<g>
																		<g>
																			<g>
																				<g>
																					<path class="st6" d="M97.8,188.7c-0.3,0-0.2,1.9-1.8,3.3c-1.6,1.4-3.6,1.3-3.6,1.5c0,0.1,0.5,0.3,1.3,0.3
																						c0.8,0,2-0.3,3-1.2c0.9-0.9,1.3-2,1.4-2.7C98.1,189.2,97.9,188.7,97.8,188.7z"/>
																				</g>
																			</g>
																		</g>
																	</g>
																</g>
															</g>
														</g>
													</g>
												</g>
											</g>
										</g>
									</g>
								</g>
							</g>
						</g>
					</g>
				</g>
				<g>
					<g>
						<g>
							<g>
								<g>
									<g>
										<g>
											<g>
												<g>
													<g>
														<g>
															<g>
																<g>
																	<path class="st6" d="M97.3,166.9c0.2,0.4,1.9,0,4-0.1c2-0.1,3.7,0.3,3.9-0.2c0.1-0.2-0.3-0.6-1-1
																		c-0.7-0.4-1.8-0.6-3-0.6c-1.2,0-2.3,0.4-3,0.8C97.5,166.2,97.2,166.7,97.3,166.9z"/>
																</g>
															</g>
														</g>
													</g>
												</g>
											</g>
										</g>
									</g>
								</g>
							</g>
						</g>
					</g>
				</g>
				<g>
					<g>
						<g>
							<g>
								<g>
									<g>
										<g>
											<g>
												<g>
													<g>
														<g>
															<g>
																<g>
																	<path class="st6" d="M81.7,167.4c0.3,0.4,1.5-0.1,2.9-0.1c1.4-0.1,2.7,0.2,2.9-0.3c0.1-0.2-0.1-0.6-0.6-0.9
																		c-0.5-0.4-1.4-0.6-2.4-0.6c-1,0.1-1.8,0.5-2.3,0.9C81.7,166.8,81.5,167.2,81.7,167.4z"/>
																</g>
															</g>
														</g>
													</g>
												</g>
											</g>
										</g>
									</g>
								</g>
							</g>
						</g>
					</g>
				</g>
				<g>
					<g>
						<g>
							<g>
								<g>
									<g>
										<g>
											<g>
												<g>
													<path class="st6" d="M118.4,184.7c0,0-8.9,2.6-13.6-19.3c-1.6-7.5-8.4-13.6-8.4-13.6l2.8-0.8c0,0,17.4,5.2,17.6,5.4
														c0.3,0.2,4.3,9.1,4.3,9.1L118.4,184.7z"/>
												</g>
											</g>
										</g>
									</g>
								</g>
							</g>
						</g>
					</g>
				</g>
				<g>
					<g>
						<g>
							<g>
								<g>
									<g>
										<g>
											<g>
												<g>
													<path class="st22" d="M116.3,183.8c0-0.9,1-3.2,1.9-3.3c2.4-0.5,6.9-0.4,7.1,5.8c0.4,8.5-8.3,7.1-8.3,6.9
														C117,193,116.4,187.1,116.3,183.8z"/>
												</g>
											</g>
										</g>
									</g>
								</g>
							</g>
						</g>
					</g>
				</g>
				<g>
					<g>
						<g>
							<g>
								<g>
									<g>
										<g>
											<g>
												<g>
													<path class="st23" d="M119.5,189.8c0,0,0.2,0.1,0.4,0.2c0.2,0.1,0.7,0.2,1.1,0c0.9-0.4,1.6-1.8,1.6-3.4
														c0-0.8-0.2-1.5-0.5-2.1c-0.3-0.6-0.7-1-1.2-1.1c-0.5-0.1-0.8,0.2-0.9,0.4c-0.1,0.2,0,0.4-0.1,0.4c0,0-0.2-0.1-0.1-0.5
														c0-0.2,0.1-0.4,0.3-0.5c0.2-0.2,0.5-0.3,0.8-0.3c0.7,0,1.3,0.6,1.6,1.3c0.4,0.7,0.6,1.5,0.6,2.4c0,1.7-0.8,3.4-2,3.8
														c-0.6,0.2-1.1,0-1.4-0.2C119.5,190,119.4,189.9,119.5,189.8z"/>
												</g>
											</g>
										</g>
									</g>
								</g>
							</g>
						</g>
					</g>
				</g>
				<g>
					<g>
						<g>
							<g>
								<g>
									<g>
										<g>
											<g>
												<g>
													<path class="st6" d="M112.5,180.4c0,0-0.5,0-1.3-0.3c-0.8-0.2-1.9-0.8-3-1.8c-0.5-0.5-1.1-1.1-1.6-1.9
														c-0.5-0.7-0.9-1.6-1.3-2.5c-0.7-1.8-1.2-4-1.7-6.2c-0.6-2.2-1.2-4.3-1.9-6.2c-0.7-1.9-1.4-3.5-2.2-4.8
														c-0.7-1.3-1.4-2.3-1.9-3c-0.2-0.3-0.5-0.6-0.6-0.8c-0.1-0.2-0.2-0.3-0.2-0.3c0,0,0.1,0.1,0.2,0.3
														c0.1,0.2,0.3,0.4,0.6,0.8c0.5,0.7,1.1,1.7,1.8,3c0.7,1.3,1.4,3,2.1,4.8c0.7,1.9,1.3,4,1.9,6.2c0.6,2.2,1,4.4,1.8,6.2
														c0.4,0.9,0.8,1.8,1.3,2.5c0.5,0.7,1,1.4,1.6,1.9c1.1,1,2.3,1.6,3.1,1.8C112,180.4,112.5,180.4,112.5,180.4z"/>
												</g>
											</g>
										</g>
									</g>
								</g>
							</g>
						</g>
					</g>
				</g>
			</g>
			<g>
				<g>
					<g>
						<g>
							<g>
								<path class="st17" d="M138.1,226.3l-19-7.2l-27-5.9l-21.8,2.9c-4.6,0.1-12.5,9.7-18.6,20.1c-5.4,9.3-9.7,18.6-9.7,18.6
									l25.3,9.5c1.4,10.8,3.6,25,5.4,30.6c3.1,9.6,4.1,22.7,4.1,22.7l60.2-7.8l0.8-41.3l19.8-2.6C157.6,264.5,150,230,138.1,226.3
									z"/>
							</g>
						</g>
						<g>
							<g>
								<path class="st6" d="M136.6,242.9c0,0,0,0.4,0.1,1c0.1,0.7,0.2,1.6,0.4,2.8c0.3,2.4,0.6,5.7,0.6,9.3c0,3.6-0.3,6.9-0.6,9.3
									c-0.2,1.2-0.3,2.1-0.4,2.8c-0.1,0.7-0.1,1-0.1,1c0,0,0.1-0.4,0.3-1c0.2-0.7,0.3-1.6,0.5-2.8c0.4-2.4,0.7-5.7,0.7-9.4
									c0-3.7-0.3-7-0.7-9.4c-0.2-1.2-0.4-2.1-0.5-2.8C136.8,243.2,136.7,242.9,136.6,242.9z"/>
							</g>
						</g>
					</g>
					<g>
						<g>
							<g>
								<g>
									<path class="st22" d="M156.9,266.5l-19.5,2.1l0.3,5.4l-4.3-6.2l-6.6,13.6c0,0,2.6,7.9,4.1,12.3c3.8,11.7,9.9,24.9,17,24
										c8.5-1,14.6-11.3,14.3-17.8C161.9,293.9,156.9,266.5,156.9,266.5z"/>
								</g>
							</g>
						</g>
					</g>
					<g>
						<g>
							<g>
								<polygon class="st22" points="166,344.4 199.9,357.7 187,373.2 158.2,368.2 								"/>
							</g>
						</g>
						<g>
							<g>
								<path class="st6" d="M77,316.9c0,0-0.9,38.6,2.7,45.4c3.5,6.7,37.8,7,37.8,7l54,2.7l6.3-25.3c0,0-39.3-18.2-43-20.3
									c-3.7-2.1-12.5-5.8-12.5-5.8l-13.2-17L77,316.9z"/>
							</g>
						</g>
						<g>
							<g>
								<path class="st7" d="M139.4,369.7c0,0-0.1-0.1-0.4-0.2c-0.3-0.1-0.7-0.2-1.2-0.4c-1.1-0.3-2.7-0.7-4.6-1.3
									c-4-1.1-9.4-2.5-15.5-4.1l0,0l0,0c-0.8,0-1.7,0-2.6-0.2c-0.9-0.1-1.7-0.3-2.5-0.4c-0.8-0.2-1.6-0.4-2.4-0.7
									c-1.5-0.5-2.9-1.2-4.2-2c-2.6-1.6-4.6-3.4-6-5.1c-1.5-1.7-2.4-3.3-3-4.5c-0.3-0.6-0.5-1-0.6-1.3c-0.1-0.3-0.2-0.5-0.2-0.5
									c0,0,0,0.2,0.2,0.5c0.1,0.3,0.3,0.8,0.6,1.4c0.5,1.2,1.4,2.8,2.9,4.6c1.4,1.8,3.5,3.7,6.1,5.3c1.3,0.8,2.7,1.5,4.3,2.1
									c0.8,0.3,1.6,0.5,2.4,0.7c0.8,0.2,1.7,0.4,2.6,0.4c0.9,0.1,1.8,0.1,2.7,0.2l-0.1,0c6.1,1.6,11.6,3,15.6,4
									c1.9,0.5,3.5,0.9,4.7,1.1c0.5,0.1,0.9,0.2,1.3,0.3C139.2,369.7,139.4,369.7,139.4,369.7z"/>
							</g>
						</g>
						<g>
							<g>
								<path class="st6" d="M137.8,328.7l9.2-56.2c0,0-1.2-40.5,21.5-37.6s20,38.5,20,38.5s-2.9,48.8-4.5,55.9
									c-1.6,7.1-2.4,14.9-7.1,17.7l-20.6-3.2L137.8,328.7z"/>
							</g>
						</g>
						<g>
							<g>
								<path class="st6" d="M155.5,245.1l-5.5,13.3l3.4,50.8c0,0,29.3,2.5,29,1.7c-0.3-0.8,5.3-25.3,5.3-25.3s1.8-32.5-6.9-38.7
									C172.2,240.7,155.5,245.1,155.5,245.1z"/>
							</g>
						</g>
						<g>
							<g>
								<path class="st22" d="M154.6,309.2c0,0,0.4,24.2,0.4,24.2l20.5,11.2L181,311L154.6,309.2z"/>
							</g>
						</g>
						<g>
							<g>
								<polygon class="st6" points="109,303.6 131.3,294.4 144.7,306.4 137.3,330.2 117.7,322.9 								"/>
							</g>
						</g>
						<g>
							<g>
								<path class="st7" d="M176.4,346.7c0,0-0.1-0.1-0.3-0.2c-0.2-0.1-0.5-0.2-0.8-0.4c-0.7-0.4-1.8-0.9-3.2-1.5
									c-2.8-1.3-6.8-3.2-11.7-5.6c-4.9-2.3-10.8-5.1-17.3-8.2c-3.3-1.5-6.7-3.2-10.2-4.9c-1.8-0.8-3.6-1.7-5.4-2.6
									c-0.9-0.4-1.8-0.9-2.8-1.3c-0.5-0.2-0.9-0.4-1.4-0.7c-0.5-0.2-0.9-0.5-1.4-0.6c-2-0.7-4-1.1-6.1-1.2c-2-0.1-4.1,0-6,0.4
									c-3.9,0.7-7.5,2.2-10.5,4.2c-3.1,1.9-5.6,4.3-7.7,6.7c-2.1,2.5-3.7,5-5.1,7.4c-2.7,4.8-4.2,9-5.1,11.9
									c-0.5,1.5-0.8,2.6-1,3.4c-0.1,0.4-0.2,0.7-0.2,0.9c-0.1,0.2-0.1,0.3-0.1,0.3c0,0,0-0.1,0.1-0.3c0.1-0.2,0.2-0.5,0.3-0.9
									c0.2-0.8,0.6-1.9,1.1-3.3c1-2.9,2.5-7,5.2-11.8c1.4-2.4,3-4.8,5.1-7.3c2.1-2.4,4.6-4.8,7.7-6.6c3-1.9,6.6-3.4,10.4-4.1
									c1.9-0.4,3.9-0.5,5.9-0.4c2,0.1,4,0.5,6,1.2c0.5,0.1,1,0.4,1.4,0.6c0.5,0.2,0.9,0.4,1.4,0.7c0.9,0.4,1.9,0.9,2.8,1.3
									c1.8,0.9,3.6,1.7,5.4,2.6c3.5,1.7,7,3.3,10.2,4.8c6.5,3.1,12.4,5.8,17.3,8.2c4.9,2.3,8.9,4.2,11.7,5.5
									c1.4,0.6,2.4,1.1,3.2,1.5c0.4,0.2,0.6,0.3,0.8,0.4C176.3,346.7,176.4,346.7,176.4,346.7z"/>
							</g>
						</g>
						<g>
							<g>
								<path class="st7" d="M133.9,327c0.1,0-0.2-1.4,0.3-3.7c0.4-2.2,1.5-5.2,3.2-8.3c1.7-3.1,3.2-5.9,3.8-8.1
									c0.4-1.1,0.6-2,0.6-2.7c0.1-0.6,0.1-1,0.1-1c-0.1,0-0.2,1.4-1,3.6c-0.7,2.2-2.3,4.9-3.9,8c-1.7,3.1-2.8,6.1-3.1,8.4
									c-0.2,1.1-0.2,2.1-0.1,2.7C133.8,326.6,133.8,327,133.9,327z"/>
							</g>
						</g>
						<g>
							<g>
								<path class="st7" d="M187.7,285.6c0,0,0,0.1-0.1,0.3c-0.1,0.2-0.1,0.5-0.2,0.8c-0.2,0.7-0.4,1.7-0.7,3
									c-0.6,2.6-1.5,6.4-2.5,11.1c-0.5,2.3-1.1,4.9-1.6,7.7c-0.1,0.7-0.3,1.4-0.4,2.1c0,0.1,0,0.2,0,0.3l0,0.1c0,0,0,0,0-0.1
									c0-0.1,0,0,0-0.1c0,0,0,0-0.1,0c-0.2,0-0.3,0-0.5,0c-0.4,0-0.7,0-1.1,0c-1.5,0-3-0.1-4.6-0.2c-6.3-0.4-13.3-0.9-20.5-1.5
									c-0.7-0.1-1.4-0.1-2-0.2l0.2,0.2c-1-14.1-1.8-26.8-2.5-36c-0.3-4.6-0.6-8.2-0.8-10.8c-0.1-1.3-0.2-2.2-0.2-2.9
									c0-0.3-0.1-0.6-0.1-0.8c0-0.2,0-0.3,0-0.3c0,0,0,0.1,0,0.3c0,0.2,0,0.4,0,0.8c0,0.7,0.1,1.7,0.2,2.9
									c0.2,2.6,0.4,6.3,0.7,10.8c0.6,9.2,1.4,21.9,2.4,36l0,0.2l0.2,0c0.6,0.1,1.3,0.1,2,0.2c7.3,0.6,14.2,1.1,20.5,1.5
									c1.6,0.1,3.1,0.2,4.6,0.2c0.4,0,0.8,0,1.1,0c0.2,0,0.4,0,0.6-0.1c0.1,0,0.1,0,0.2-0.1c0,0,0,0,0.1-0.1c0,0,0-0.1,0-0.1
									c0,0-0.1,0,0,0l0,0c0,0,0-0.2,0-0.2c0.1-0.7,0.2-1.4,0.3-2.1c0.5-2.8,1.1-5.3,1.5-7.7c1-4.7,1.8-8.4,2.4-11.1
									c0.3-1.3,0.5-2.3,0.6-3c0.1-0.3,0.1-0.6,0.2-0.8C187.7,285.7,187.7,285.6,187.7,285.6z"/>
							</g>
						</g>
						<g>
							<g>
								<path class="st7" d="M160.7,241.3c0,0-0.3,0.2-0.7,0.6c-0.4,0.4-1,1-1.6,1.7c-1.3,1.5-2.9,3.7-4.3,6.4
									c-1.4,2.7-2.3,5.3-2.8,7.2c-0.2,1-0.4,1.8-0.5,2.3c-0.1,0.5-0.1,0.9-0.1,0.9c0.1,0,0.3-1.2,0.9-3.1c0.5-1.9,1.5-4.5,2.8-7.1
									c1.4-2.7,3-4.9,4.2-6.4C159.9,242.2,160.8,241.3,160.7,241.3z"/>
							</g>
						</g>
						<g>
							<g>
								<path class="st7" d="M127.3,320.6c0,0,0-0.3-0.1-0.8c-0.1-0.5-0.3-1.3-0.6-2.2c-0.6-1.8-1.5-4.3-2.8-6.8
									c-1.3-2.6-2.8-4.8-3.9-6.3c-0.6-0.8-1-1.4-1.4-1.7c-0.3-0.4-0.5-0.6-0.6-0.6c-0.1,0,0.7,1,1.7,2.5c1.1,1.5,2.4,3.7,3.7,6.3
									c1.3,2.5,2.3,5,2.9,6.7C126.9,319.5,127.2,320.6,127.3,320.6z"/>
							</g>
						</g>
						<g>
							<g>
								<path class="st7" d="M90.5,317.6c-0.1,0-0.4,0.9-1,2.2c-0.6,1.3-1.6,3.1-3,4.9c-1.4,1.8-2.9,3.2-4,4.1
									c-1.1,0.9-1.9,1.4-1.9,1.5c0,0,0.2-0.1,0.6-0.3c0.4-0.2,0.9-0.5,1.5-1c1.2-0.9,2.8-2.3,4.2-4.1c1.4-1.8,2.4-3.7,2.9-5.1
									c0.3-0.7,0.5-1.3,0.6-1.7C90.5,317.9,90.5,317.6,90.5,317.6z"/>
							</g>
						</g>
						<g>
							<g>
								<path class="st24" d="M199.4,373.6c12.6-0.6,15.8-0.2,28.4-0.9c3.1-0.2,14.3,0.2,16.9-1.5c2.3-1.5,5.4-3,6-5.7
									c1-4.6-0.2-9.9-4.5-12.7c-1.5-1-3.2-1.6-5-1.7c-7.4-0.6-14.3,4.8-21.7,3.2c-2-0.4-3.8-1.6-5.8-2c-2.9-0.7-6,0-8.7,1.4
									c-2.7,1.4-3.3,1.6-3.3,1.6l-13.3-4.5l-4.1,23.2L199.4,373.6z"/>
							</g>
						</g>
						<g>
							<g>
								<g>
									<g>
										<g>
											<g>
												<g>
													<g>
														<g>
															<g>
																<path class="st24" d="M188.1,345.3l7,2.3c1.1,0.3,1.7,1.4,1.5,2.5l-5.4,24.9c-0.2,1.1-1.3,1.8-2.4,1.7l-7.1-0.8
																	c-1.3-0.1-2.2-1.4-1.9-2.6l5.5-26.4C185.6,345.7,186.9,344.9,188.1,345.3z"/>
															</g>
														</g>
													</g>
												</g>
											</g>
										</g>
									</g>
								</g>
							</g>
						</g>
						<g>
							<g>
								<g>
									<g>
										<g>
											<g>
												<g>
													<g>
														<g>
															<g>
																<g>
																	<path class="st6" d="M191,376c0.1,0,0.6-1.4,1.3-3.7c0.7-2.3,1.6-5.6,2.4-9.2c0.8-3.6,1.3-7,1.6-9.4
																		c0.1-1.2,0.2-2.2,0.3-2.9c0-0.7,0-1.1,0-1.1c-0.1,0-0.3,1.5-0.7,3.9c-0.4,2.4-1,5.7-1.8,9.3
																		c-0.8,3.6-1.6,6.9-2.2,9.2C191.3,374.5,190.9,376,191,376z"/>
																</g>
															</g>
														</g>
													</g>
												</g>
											</g>
										</g>
									</g>
								</g>
							</g>
						</g>
						<g>
							<g>
								<g>
									<g>
										<g>
											<g>
												<g>
													<g>
														<g>
															<g>
																<g>
																	<path class="st6" d="M195.4,353.3c0.1-0.1-2-1.9-5.3-2.4c-3.3-0.5-5.8,0.5-5.7,0.6c0,0.2,2.6-0.5,5.7,0
																		C193.1,352,195.3,353.5,195.4,353.3z"/>
																</g>
															</g>
														</g>
													</g>
												</g>
											</g>
										</g>
									</g>
								</g>
							</g>
						</g>
						<g>
							<g>
								<g>
									<g>
										<g>
											<g>
												<g>
													<g>
														<g>
															<g>
																<g>
																	<path class="st6" d="M194.6,362.7c0-0.2-2.6-1.1-5.9-1.8c-3.3-0.8-6.1-1.1-6.1-0.9c0,0.2,2.7,0.7,5.9,1.5
																		C191.9,362.2,194.5,362.9,194.6,362.7z"/>
																</g>
															</g>
														</g>
													</g>
												</g>
											</g>
										</g>
									</g>
								</g>
							</g>
						</g>
						<g>
							<g>
								<g>
									<g>
										<g>
											<g>
												<g>
													<g>
														<g>
															<g>
																<g>
																	<path class="st6" d="M191.4,372.4c0-0.2-2.7,0.1-5.7-1.1c-3-1.2-4.7-3.4-4.8-3.2c-0.1,0,0.3,0.6,1,1.4
																		c0.8,0.8,2,1.7,3.6,2.4c1.6,0.6,3.1,0.9,4.2,0.8C190.7,372.7,191.4,372.5,191.4,372.4z"/>
																</g>
															</g>
														</g>
													</g>
												</g>
											</g>
										</g>
									</g>
								</g>
							</g>
						</g>
						<g>
							<g>
								<polygon class="st24" points="154.1,325.7 154.6,336.2 175.5,346.2 179,328.7 								"/>
							</g>
						</g>
						<g>
							<g>
								<g>
									<g>
										<g>
											<g>
												<g>
													<g>
														<g>
															<g>
																<path class="st24" d="M182.5,322.6l-1.6,7.3c-0.2,1.1-1.3,1.9-2.4,1.7l-25.8-2.8c-1.1-0.1-2-1.1-2-2.2l0.1-7.3
																	c0-1.3,1.1-2.3,2.5-2.2l27.3,2.8C181.8,320,182.7,321.3,182.5,322.6z"/>
															</g>
														</g>
													</g>
												</g>
											</g>
										</g>
									</g>
								</g>
							</g>
						</g>
						<g>
							<g>
								<g>
									<g>
										<g>
											<g>
												<g>
													<g>
														<g>
															<g>
																<g>
																	<path class="st6" d="M151.7,328.8c0,0.1,1.5,0.4,3.9,0.9c2.4,0.5,5.8,1,9.6,1.5c3.8,0.4,7.2,0.6,9.7,0.6
																		c1.2,0,2.2,0,2.9,0c0.7,0,1.1-0.1,1.1-0.1c0-0.1-1.5-0.2-4-0.3c-2.5-0.1-5.9-0.4-9.6-0.8c-3.7-0.4-7.1-0.9-9.6-1.3
																		C153.2,328.9,151.7,328.7,151.7,328.8z"/>
																</g>
															</g>
														</g>
													</g>
												</g>
											</g>
										</g>
									</g>
								</g>
							</g>
						</g>
						<g>
							<g>
								<g>
									<g>
										<g>
											<g>
												<g>
													<g>
														<g>
															<g>
																<g>
																	<path class="st6" d="M175.1,330.8c0.1,0.1,1.7-2.2,1.8-5.6c0.2-3.4-1.1-5.8-1.2-5.8c-0.2,0.1,0.8,2.5,0.6,5.7
																		C176.2,328.3,175,330.7,175.1,330.8z"/>
																</g>
															</g>
														</g>
													</g>
												</g>
											</g>
										</g>
									</g>
								</g>
							</g>
						</g>
						<g>
							<g>
								<g>
									<g>
										<g>
											<g>
												<g>
													<g>
														<g>
															<g>
																<g>
																	<path class="st6" d="M165.5,330.9c0.2,0,0.8-2.7,1.2-6.1c0.4-3.4,0.5-6.2,0.3-6.3c-0.2,0-0.5,2.8-0.9,6.2
																		C165.8,328.1,165.4,330.9,165.5,330.9z"/>
																</g>
															</g>
														</g>
													</g>
												</g>
											</g>
										</g>
									</g>
								</g>
							</g>
						</g>
						<g>
							<g>
								<g>
									<g>
										<g>
											<g>
												<g>
													<g>
														<g>
															<g>
																<g>
																	<path class="st6" d="M155.3,328.7c0.2,0-0.4-2.7,0.6-5.9c0.9-3.2,2.9-5.1,2.8-5.2c0-0.1-0.6,0.4-1.3,1.2
																		c-0.7,0.9-1.5,2.2-2,3.8c-0.5,1.6-0.5,3.2-0.4,4.3C155,328.1,155.3,328.8,155.3,328.7z"/>
																</g>
															</g>
														</g>
													</g>
												</g>
											</g>
										</g>
									</g>
								</g>
							</g>
						</g>
					</g>
				</g>
			</g>
			<g>
				<g>
					<path class="st22" d="M107.5,248.8c0,0,10.7,1.5,11.4,2.2c0.7,0.7,14.4,16.8,14.4,16.8l-6.6,13.6c0,0-10.9-5.6-12.1-6.2
						c-1.2-0.6-3.8-1.2-3.8-1.2s-12.1-1.7-13-3.1c-0.8-1.4-0.4-1.8,0.5-2c0.9-0.2,8.1,0.4,9.8,0.7c1.6,0.3,4.8-0.1,4.8-0.1
						s-5.1-1.1-6.2-1.4c-1.1-0.4-12.5-2.7-12.3-4.7c0.1-2,1.5-2.8,8.6-1c7.1,1.8,11.9,1.7,11.9,1.7l-15.7-5.1c0,0-6.3-1.9-4.3-3.7
						c2-1.8,15.5,1.6,15.5,1.6l6,2.1l-1.8-3.6c0,0-8.5-2.3-9.6-3.1c-1.4-1-1.6-2-0.6-2.9C105.5,248.3,107.5,248.8,107.5,248.8z"/>
				</g>
			</g>
			<g>
				<g>
					<g>
						<path class="st6" d="M71,231.8c0,0,0,0.4-0.1,1.2c-0.1,0.9-0.3,2-0.5,3.2c-0.5,2.7-1.1,6.5-1.6,10.7c-0.5,4.2-0.9,8-1.2,10.7
							c-0.1,1.3-0.2,2.4-0.3,3.3c-0.1,0.8-0.1,1.2-0.2,1.2c0,0,0-0.4,0-1.2c0-0.8,0.1-1.9,0.1-3.3c0.2-2.8,0.5-6.6,1-10.8
							c0.5-4.2,1.2-8,1.8-10.7c0.3-1.4,0.5-2.5,0.7-3.2C70.9,232.2,71,231.8,71,231.8z"/>
					</g>
				</g>
			</g>
			<g>
				<g>
					<path class="st6" d="M141.7,232.8c0-0.3-2.7-16.7-3.9-22.5l-19.6,3c-0.3,2.4-0.4,10.9-0.3,13.7c0.1,2.9,0.8,5.8,2.7,8
						c1.9,2.2,4.9,3.4,7.7,2.6c1.6,2.1,3.8,3.9,6.4,4.3c2.6,0.4,5.6-0.9,6.4-3.5C141.6,236.8,141.9,234.7,141.7,232.8z"/>
				</g>
			</g>
			<g>
				<g>
					<g>
						<g>
							<g>
								<path class="st6" d="M113.2,235.1l-3.1,29.9c-0.1,1-1,1.8-2,1.7l-18.5-1.5c-1-0.1-1.8-1-1.7-2l2.2-31.4
									c0.1-1.1,1.1-1.9,2.2-1.7l19.4,3C112.6,233.2,113.3,234.1,113.2,235.1z"/>
							</g>
						</g>
						<g>
							<g>
								<path class="st22" d="M97.5,245c0,0-10.8-0.3-11.6,0.3c-0.8,0.5-17,14.2-17,14.2l4.2,14.5c0,0,11.7-3.7,13-4.2
									c1.3-0.4,4-0.5,4-0.5s12.2,0.4,13.3-0.9c1-1.3,0.7-1.7-0.2-2.1c-0.8-0.4-8.1-0.9-9.7-0.9c-1.6,0-4.7-0.9-4.7-0.9
									s5.2-0.2,6.3-0.4c1.2-0.2,12.7-0.6,12.9-2.6s-1-3-8.3-2.4c-7.3,0.6-12-0.3-12-0.3l16.3-2.5c0,0,6.5-0.8,4.9-3
									c-1.7-2.1-15.6-1-15.6-1l-6.3,1.1l2.3-3.2c0,0,8.8-0.9,10-1.5c1.5-0.8,1.9-1.7,1-2.7C99.6,244.9,97.5,245,97.5,245z"/>
							</g>
						</g>
						<g>
							<g>
								<path class="st22" d="M46.3,256.3l18.1,6.8l-0.3,2.5l5.4-6.5l5,13c0,0-8.4,16.5-10.2,20.8c-5.2,12.2-14.5,18.6-21.1,15.9
									c-8-3.3-12.6-11.7-8.9-21.1C36.3,282.2,46.3,256.3,46.3,256.3z"/>
							</g>
						</g>
					</g>
					<g>
						<g>
							<path class="st23" d="M69,259.5c0,0,0.1-0.1,0.4-0.4c0.3-0.3,0.8-0.7,1.3-1.1c1.2-1,2.9-2.5,5.1-4.4c2.2-1.9,5-4.2,8.1-6.9
								c0.4-0.3,0.8-0.7,1.2-1c0.2-0.2,0.4-0.3,0.6-0.5c0.3-0.2,0.6-0.2,0.9-0.2c1.1-0.1,2.2-0.1,3.4-0.2c2.3,0,4.8,0,7.4,0l0,0
								c0.7,0,1.3,0.1,2,0.3c0.3,0.1,0.6,0.3,0.9,0.5c0.3,0.3,0.5,0.5,0.6,0.9c0.1,0.4,0.1,0.8-0.1,1.1c-0.2,0.3-0.5,0.6-0.8,0.8
								c-0.3,0.2-0.6,0.4-1,0.5c-0.3,0.1-0.7,0.2-1,0.3c-2.8,0.5-5.7,0.9-8.7,1.2l0.1-0.1c-0.7,1-1.5,2.1-2.3,3.2l-0.2-0.3
								c2-0.3,4.1-0.7,6.3-1.1l0,0c2.6-0.2,5.3-0.3,8.1-0.3c1.4,0,2.8,0.1,4.2,0.2c0.7,0.1,1.4,0.2,2.1,0.4c0.3,0.1,0.7,0.2,1,0.5
								c0.3,0.2,0.6,0.6,0.6,1c0,0.5-0.3,0.9-0.6,1.1c-0.3,0.2-0.6,0.4-1,0.6c-0.7,0.3-1.4,0.5-2.1,0.6c-1.4,0.3-2.9,0.5-4.3,0.7
								c-2.9,0.4-5.9,0.9-8.8,1.3c-1.6,0.2-3.2,0.5-4.8,0.7l0-0.4c3.7,0.6,7.5,0.6,11.1,0.4c1.8-0.1,3.6-0.3,5.5-0.2
								c0.9,0,1.8,0.1,2.7,0.5c0.4,0.2,0.9,0.5,1.1,1c0.2,0.5,0.2,0.9,0.2,1.4c-0.1,0.3-0.3,0.5-0.5,0.6c-0.2,0.1-0.4,0.3-0.6,0.3
								c-0.4,0.2-0.8,0.3-1.3,0.4c-0.8,0.2-1.7,0.4-2.5,0.5c-1.7,0.3-3.4,0.4-5,0.5c-0.8,0.1-1.6,0.1-2.4,0.2
								c-0.8,0.1-1.6,0.2-2.4,0.2c-1.6,0.1-3.2,0.2-4.7,0.2l0-0.4c1.7,0.5,3.5,0.9,5.2,0.9c1.7,0.1,3.4,0.2,5.1,0.3
								c0.8,0.1,1.6,0.2,2.4,0.3c0.4,0.1,0.8,0.1,1.2,0.2c0.2,0,0.4,0.1,0.6,0.2c0.2,0.1,0.4,0.2,0.5,0.3c0.2,0.1,0.3,0.3,0.4,0.6
								c0,0.2-0.1,0.5-0.1,0.6c-0.1,0.2-0.2,0.4-0.3,0.5l-0.2,0.2c-0.1,0.1-0.2,0.2-0.3,0.2c-0.7,0.4-1.5,0.4-2.2,0.5
								c-2.9,0.3-5.7,0.3-8.3,0.3c-0.6,0-1.3,0-1.9,0c-0.6,0-1.2,0-1.8,0c-1.2,0.1-2.3,0.2-3.3,0.5c-4,1.3-7.2,2.3-9.4,3
								c-1.1,0.3-1.9,0.6-2.5,0.8c-0.3,0.1-0.5,0.1-0.6,0.2c-0.1,0-0.2,0.1-0.2,0.1c0,0,0.1,0,0.2-0.1c0.2-0.1,0.4-0.1,0.6-0.2
								c0.6-0.2,1.4-0.5,2.5-0.8c2.2-0.7,5.3-1.7,9.3-3.1c2-0.7,4.5-0.6,7-0.6c2.5,0,5.3,0,8.2-0.3c0.7-0.1,1.5-0.2,2.1-0.5
								c0.1,0,0.1-0.1,0.2-0.1l0.2-0.2c0.1-0.2,0.2-0.3,0.3-0.5c0.2-0.3,0.2-0.6-0.1-0.8c-0.1-0.1-0.3-0.2-0.5-0.3
								c-0.2-0.1-0.3-0.1-0.5-0.1c-0.4-0.1-0.8-0.1-1.2-0.2c-0.8-0.1-1.6-0.2-2.4-0.2c-1.6-0.1-3.3-0.3-5.1-0.3
								c-1.8,0-3.5-0.4-5.3-0.9c-0.1,0-0.2-0.1-0.1-0.2c0-0.1,0.1-0.1,0.2-0.1l0,0c1.5-0.1,3.1-0.2,4.7-0.3c0.8,0,1.6-0.2,2.4-0.2
								c0.8-0.1,1.6-0.1,2.4-0.2c1.6-0.1,3.3-0.3,5-0.5c0.8-0.1,1.7-0.3,2.5-0.5c0.4-0.1,0.8-0.2,1.2-0.4c0.4-0.2,0.8-0.4,0.8-0.7
								c0.1-0.4,0-0.8-0.1-1.2c-0.2-0.3-0.5-0.6-0.9-0.8c-0.8-0.3-1.7-0.4-2.5-0.5c-1.8-0.1-3.6,0.1-5.4,0.2
								c-3.7,0.2-7.4,0.2-11.2-0.4c-0.1,0-0.2-0.1-0.2-0.2c0-0.1,0.1-0.2,0.2-0.2l0,0c1.6-0.2,3.2-0.5,4.8-0.7
								c3-0.5,5.9-0.9,8.8-1.3c1.5-0.2,2.9-0.4,4.3-0.7c0.7-0.2,1.4-0.3,2-0.6c0.3-0.1,0.6-0.3,0.9-0.5c0.3-0.2,0.4-0.5,0.4-0.7
								c-0.1-0.6-0.7-0.9-1.4-1.1c-0.7-0.2-1.3-0.3-2-0.4c-1.4-0.2-2.8-0.2-4.1-0.2c-2.7,0-5.4,0.1-8,0.3l0,0
								c-2.2,0.4-4.3,0.8-6.3,1.1c-0.1,0-0.2-0.1-0.2-0.2c0-0.1,0-0.1,0-0.1c0.8-1.1,1.6-2.2,2.3-3.2c0,0,0.1-0.1,0.1-0.1
								c3-0.3,5.9-0.6,8.7-1.2c0.3-0.1,0.7-0.1,1-0.2c0.3-0.1,0.6-0.3,0.9-0.5c0.5-0.4,0.9-0.9,0.7-1.5c-0.2-0.6-0.7-1-1.3-1.2
								c-0.6-0.2-1.2-0.3-1.8-0.3l0,0h0c-2.6-0.1-5.1-0.1-7.4-0.1c-1.2,0-2.3,0-3.4,0.1c-0.3,0-0.5,0.1-0.7,0.2
								c-0.2,0.2-0.4,0.3-0.6,0.5c-0.4,0.3-0.8,0.7-1.2,1c-3.2,2.6-5.9,4.9-8.2,6.8c-2.2,1.9-4,3.3-5.2,4.3c-0.6,0.5-1,0.9-1.4,1.1
								C69.1,259.4,69,259.5,69,259.5z"/>
						</g>
					</g>
				</g>
				<g>
					<g>
						<g>
							<path class="st23" d="M69,259.5c0.1,0.1-5,6.5-11.4,14.4c-6.4,7.9-11.7,14.1-11.8,14c-0.1-0.1,5-6.5,11.4-14.4
								C63.6,265.7,68.9,259.4,69,259.5z"/>
						</g>
					</g>
				</g>
			</g>
		</g>
	</g>
</g>
</svg>
