<?xml version="1.0" encoding="utf-8"?>
<!-- Generator: Adobe Illustrator 25.0.1, SVG Export Plug-In . SVG Version: 6.00 Build 0)  -->
<svg version="1.1" id="Layer_1" xmlns="http://www.w3.org/2000/svg" xmlns:xlink="http://www.w3.org/1999/xlink" x="0px" y="0px"
	 viewBox="0 0 512 512" style="enable-background:new 0 0 512 512;" xml:space="preserve">
<style type="text/css">
	.st0{fill:#FFFFFF;}
</style>
<rect x="35" y="35" class="st0" width="440" height="418"/>
<path d="M130.3,325.9c-11.4,0-19.9,2.5-25.6,7.6c-5.6,5.1-8.5,12.8-8.5,23.2c0,11.2,3.7,19.6,11.2,25c7.5,5.4,18.9,8.1,34.1,8.1
	c16.7,0,29.1-1.8,37.4-5.3c8.2-3.5,12.3-9.1,12.3-16.7v-41.9H130.3z M130.3,325.9c-11.4,0-19.9,2.5-25.6,7.6
	c-5.6,5.1-8.5,12.8-8.5,23.2c0,11.2,3.7,19.6,11.2,25c7.5,5.4,18.9,8.1,34.1,8.1c16.7,0,29.1-1.8,37.4-5.3
	c8.2-3.5,12.3-9.1,12.3-16.7v-41.9H130.3z M130.3,325.9c-11.4,0-19.9,2.5-25.6,7.6c-5.6,5.1-8.5,12.8-8.5,23.2
	c0,11.2,3.7,19.6,11.2,25c7.5,5.4,18.9,8.1,34.1,8.1c16.7,0,29.1-1.8,37.4-5.3c8.2-3.5,12.3-9.1,12.3-16.7v-41.9H130.3z
	 M130.3,325.9c-11.4,0-19.9,2.5-25.6,7.6c-5.6,5.1-8.5,12.8-8.5,23.2c0,11.2,3.7,19.6,11.2,25c7.5,5.4,18.9,8.1,34.1,8.1
	c16.7,0,29.1-1.8,37.4-5.3c8.2-3.5,12.3-9.1,12.3-16.7v-41.9H130.3z M130.3,325.9c-11.4,0-19.9,2.5-25.6,7.6
	c-5.6,5.1-8.5,12.8-8.5,23.2c0,11.2,3.7,19.6,11.2,25c7.5,5.4,18.9,8.1,34.1,8.1c16.7,0,29.1-1.8,37.4-5.3
	c8.2-3.5,12.3-9.1,12.3-16.7v-41.9H130.3z M130.3,325.9c-11.4,0-19.9,2.5-25.6,7.6c-5.6,5.1-8.5,12.8-8.5,23.2
	c0,11.2,3.7,19.6,11.2,25c7.5,5.4,18.9,8.1,34.1,8.1c16.7,0,29.1-1.8,37.4-5.3c8.2-3.5,12.3-9.1,12.3-16.7v-41.9H130.3z
	 M393.7,225.8c-9-10.2-21.8-15.4-38.2-15.4c-10.6,0-19.6,2-27,5.9c-7.4,3.9-13.1,9.6-17,17.2c-3.9,7.6-5.9,16.6-5.9,27.2v69
	c0,10.9,2,20.2,5.9,27.8c3.9,7.6,9.6,13.5,17,17.5c7.4,4.1,16.4,6.1,27,6.1c16.4,0,29.2-5,38.2-15c9-10,13.6-24.1,13.6-42.3V269
	C407.3,250.5,402.8,236.1,393.7,225.8z M393.7,225.8c-9-10.2-21.8-15.4-38.2-15.4c-10.6,0-19.6,2-27,5.9c-7.4,3.9-13.1,9.6-17,17.2
	c-3.9,7.6-5.9,16.6-5.9,27.2v69c0,10.9,2,20.2,5.9,27.8c3.9,7.6,9.6,13.5,17,17.5c7.4,4.1,16.4,6.1,27,6.1c16.4,0,29.2-5,38.2-15
	c9-10,13.6-24.1,13.6-42.3V269C407.3,250.5,402.8,236.1,393.7,225.8z M130.3,325.9c-11.4,0-19.9,2.5-25.6,7.6
	c-5.6,5.1-8.5,12.8-8.5,23.2c0,11.2,3.7,19.6,11.2,25c7.5,5.4,18.9,8.1,34.1,8.1c16.7,0,29.1-1.8,37.4-5.3
	c8.2-3.5,12.3-9.1,12.3-16.7v-41.9H130.3z M467.4,0H44.6C20,0,0,19.9,0,44.5v423C0,492.1,20,512,44.6,512h422.8
	c24.6,0,44.6-19.9,44.6-44.5v-423C512,19.9,492,0,467.4,0z M232.8,422.1h-41.5v-17c-2.9,3.4-6.1,6.2-9.7,8.7
	c-5.6,3.8-12.2,6.7-19.6,8.6c-7.4,1.9-15.8,2.9-25,2.9c-27.4,0-47.9-5.7-61.4-17c-13.6-11.3-20.3-28.5-20.3-51.6
	c0-21.9,6.2-38.4,18.6-49.3c12.4-11,31.2-16.5,56.3-16.5h61.2v-9.4c0-14.5-3.9-25.8-11.7-33.9c-7.8-8.1-18.8-12.1-33.1-12.1
	c-8.9,0-17.5,1.3-26,4.1c-8.5,2.7-16,6.5-22.6,11.3l-31.9-21.8c8.4-10.1,19.5-18,33.3-23.6c13.8-5.6,29.1-8.4,45.9-8.4
	c18.4,0,34.2,3.2,47.3,9.7c13.1,6.5,23.1,15.9,30,28.2c6.9,12.3,10.3,27.2,10.3,44.5V422.1z M457.1,323.8c0,21.5-3.4,39.8-10.3,55.1
	c-6.8,15.3-16.9,27-30,35c-13.2,8-29,12.1-47.4,12.1c-15.8,0-29.6-3.8-41.3-11.3c-9.5-6.1-17-14.4-22.5-24.7v32.3h-49.8V67.8h49.8
	v135.2c6.8-10.6,15.1-19,24.9-25.4c12.4-8,26.1-12.1,41.3-12.1c17.9,0,33.3,4,46,12.1c12.8,8,22.5,19.8,29.2,35.2
	c6.7,15.4,10,34,10,55.8V323.8z M355.5,210.5c-10.6,0-19.6,2-27,5.9c-7.4,3.9-13.1,9.6-17,17.2c-3.9,7.6-5.9,16.6-5.9,27.2v69
	c0,10.9,2,20.2,5.9,27.8c3.9,7.6,9.6,13.5,17,17.5c7.4,4.1,16.4,6.1,27,6.1c16.4,0,29.2-5,38.2-15c9-10,13.6-24.1,13.6-42.3V269
	c0-18.5-4.5-32.9-13.6-43.2C384.7,215.6,371.9,210.5,355.5,210.5z M104.7,333.5c-5.6,5.1-8.5,12.8-8.5,23.2c0,11.2,3.7,19.6,11.2,25
	c7.5,5.4,18.9,8.1,34.1,8.1c16.7,0,29.1-1.8,37.4-5.3c8.2-3.5,12.3-9.1,12.3-16.7v-41.9h-61C118.9,325.9,110.3,328.5,104.7,333.5z
	 M130.3,325.9c-11.4,0-19.9,2.5-25.6,7.6c-5.6,5.1-8.5,12.8-8.5,23.2c0,11.2,3.7,19.6,11.2,25c7.5,5.4,18.9,8.1,34.1,8.1
	c16.7,0,29.1-1.8,37.4-5.3c8.2-3.5,12.3-9.1,12.3-16.7v-41.9H130.3z M393.7,225.8c-9-10.2-21.8-15.4-38.2-15.4
	c-10.6,0-19.6,2-27,5.9c-7.4,3.9-13.1,9.6-17,17.2c-3.9,7.6-5.9,16.6-5.9,27.2v69c0,10.9,2,20.2,5.9,27.8c3.9,7.6,9.6,13.5,17,17.5
	c7.4,4.1,16.4,6.1,27,6.1c16.4,0,29.2-5,38.2-15c9-10,13.6-24.1,13.6-42.3V269C407.3,250.5,402.8,236.1,393.7,225.8z M393.7,225.8
	c-9-10.2-21.8-15.4-38.2-15.4c-10.6,0-19.6,2-27,5.9c-7.4,3.9-13.1,9.6-17,17.2c-3.9,7.6-5.9,16.6-5.9,27.2v69
	c0,10.9,2,20.2,5.9,27.8c3.9,7.6,9.6,13.5,17,17.5c7.4,4.1,16.4,6.1,27,6.1c16.4,0,29.2-5,38.2-15c9-10,13.6-24.1,13.6-42.3V269
	C407.3,250.5,402.8,236.1,393.7,225.8z M130.3,325.9c-11.4,0-19.9,2.5-25.6,7.6c-5.6,5.1-8.5,12.8-8.5,23.2c0,11.2,3.7,19.6,11.2,25
	c7.5,5.4,18.9,8.1,34.1,8.1c16.7,0,29.1-1.8,37.4-5.3c8.2-3.5,12.3-9.1,12.3-16.7v-41.9H130.3z M130.3,325.9
	c-11.4,0-19.9,2.5-25.6,7.6c-5.6,5.1-8.5,12.8-8.5,23.2c0,11.2,3.7,19.6,11.2,25c7.5,5.4,18.9,8.1,34.1,8.1
	c16.7,0,29.1-1.8,37.4-5.3c8.2-3.5,12.3-9.1,12.3-16.7v-41.9H130.3z M130.3,325.9c-11.4,0-19.9,2.5-25.6,7.6
	c-5.6,5.1-8.5,12.8-8.5,23.2c0,11.2,3.7,19.6,11.2,25c7.5,5.4,18.9,8.1,34.1,8.1c16.7,0,29.1-1.8,37.4-5.3
	c8.2-3.5,12.3-9.1,12.3-16.7v-41.9H130.3z M130.3,325.9c-11.4,0-19.9,2.5-25.6,7.6c-5.6,5.1-8.5,12.8-8.5,23.2
	c0,11.2,3.7,19.6,11.2,25c7.5,5.4,18.9,8.1,34.1,8.1c16.7,0,29.1-1.8,37.4-5.3c8.2-3.5,12.3-9.1,12.3-16.7v-41.9H130.3z
	 M130.3,325.9c-11.4,0-19.9,2.5-25.6,7.6c-5.6,5.1-8.5,12.8-8.5,23.2c0,11.2,3.7,19.6,11.2,25c7.5,5.4,18.9,8.1,34.1,8.1
	c16.7,0,29.1-1.8,37.4-5.3c8.2-3.5,12.3-9.1,12.3-16.7v-41.9H130.3z"/>
</svg>
