<?xml version="1.0" encoding="utf-8"?>
<!-- Generator: Adobe Illustrator 25.0.1, SVG Export Plug-In . SVG Version: 6.00 Build 0)  -->
<svg version="1.1" id="Layer_1" xmlns="http://www.w3.org/2000/svg" xmlns:xlink="http://www.w3.org/1999/xlink" x="0px" y="0px"
	 viewBox="0 0 1920 1208" style="enable-background:new 0 0 1920 1208;" xml:space="preserve">
<style type="text/css">
	.st0{fill:#F5F5F5;}
	.st1{fill:#E1E1E1;}
	.st2{fill:#ECECEC;}
	.st3{fill:#1A2E35;}
	.st4{fill:#FF4F5B;}
	.st5{fill:#FAFAFA;}
	.st6{fill:#375A64;}
	.st7{opacity:0.2;}
	.st8{opacity:0.1;fill:#FFFFFF;}
	.st9{opacity:0.2;fill:#FFFFFF;}
	.st10{fill:#FFBF9D;}
	.st11{fill:#FF9A6C;}
	.st12{fill:#FFFFFF;}
	.st13{opacity:0.6;}
</style>
<g>
	<g>
		<g>
			<rect x="1237.9" y="255.3" class="st0" width="543.2" height="746.6"/>
		</g>
	</g>
	<g>
		<g>
			<rect x="1237.9" y="255.3" class="st1" width="543.2" height="40.6"/>
		</g>
		<g>
			<path class="st0" d="M1262.5,275.6c0,3-2.4,5.5-5.5,5.5c-3,0-5.5-2.4-5.5-5.5c0-3,2.4-5.5,5.5-5.5
				C1260.1,270.2,1262.5,272.6,1262.5,275.6z"/>
		</g>
		<g>
			<path class="st0" d="M1303.4,274.4c0,3-2.4,5.5-5.5,5.5c-3,0-5.5-2.4-5.5-5.5c0-3,2.4-5.5,5.5-5.5
				C1301,269,1303.4,271.4,1303.4,274.4z"/>
		</g>
		<g>
			<path class="st0" d="M1284,274.4c0,3-2.4,5.5-5.5,5.5c-3,0-5.5-2.4-5.5-5.5c0-3,2.4-5.5,5.5-5.5
				C1281.5,269,1284,271.4,1284,274.4z"/>
		</g>
	</g>
</g>
<g>
	<path class="st2" d="M1839.6,332.8c0,0-21.6-9-36.1,41.4c-14.5,50.4-18.2,78.6-18.2,78.6s-4.3,10.8-12.1,5.8
		c-7.8-5-20.3-21.1-30.9-15.7c-11,5.6-12.3,19.3-6.4,38c5.9,18.7,17.4,60,18.4,63.8c1,3.7-0.1,9.6-5.9,7c-5.9-2.6-42.1-30-54.1-12
		c-12,18,13,67.3,15.7,72.7c2.6,5.4,2,8.1-0.5,10.1c-2.4,1.9-13.8-8.4-24.4-15.8c-10.6-7.4-24.3-14.1-30.3-3.1s-1,50.6,48.6,107
		l24.7,24.6l34-8.5c71.5-22.7,96.3-54.1,96.8-66.6c0.5-12.5-14.7-13.8-27.6-13c-12.9,0.8-28,3.9-29.1,1c-1.1-2.9-0.3-5.5,4.8-8.9
		c5.1-3.3,51.9-32.6,50.9-54.2c-1-21.6-46.2-16.8-52.6-17.6c-6.4-0.8-4.2-6.5-1.5-9.1c2.8-2.7,34-32.2,48.7-45.1
		c14.7-12.9,20.7-25.4,14.1-35.8c-6.3-10.1-25.3-2.8-34.6-2.5c-9.3,0.3-7.4-11.2-7.4-11.2s11.3-26.1,24.9-76.7
		c13.6-50.7-10.2-54.1-10.2-54.1"/>
	<g>
		<path class="st1" d="M1826.5,377.9c0,0-0.1,0.4-0.2,1.1c-0.2,0.8-0.4,1.8-0.8,3.1c-0.7,2.8-1.8,6.8-3.1,12
			c-2.7,10.4-6.8,25.5-11.8,44.1c-10.1,37.2-24.5,88.4-40.6,144.9c-16.1,56.5-30.7,107.7-41,144.9c-5.1,18.5-9.3,33.5-12.2,44
			c-1.4,5.1-2.6,9.2-3.3,11.9c-0.4,1.3-0.7,2.4-0.9,3.1c-0.2,0.7-0.3,1-0.3,1s0.1-0.4,0.2-1.1c0.2-0.8,0.4-1.8,0.8-3.1
			c0.7-2.8,1.8-6.8,3.1-12c2.7-10.4,6.8-25.5,11.8-44.1c10.1-37.2,24.5-88.4,40.6-145c16.1-56.5,30.6-107.7,41-144.8
			c5.1-18.5,9.3-33.5,12.2-44c1.4-5.1,2.6-9.2,3.3-12c0.4-1.3,0.7-2.4,0.9-3.1C1826.4,378.2,1826.5,377.9,1826.5,377.9z"/>
	</g>
	<g>
		<path class="st1" d="M1758.7,466.1c0.1,0,0.5,0.7,1.3,2.1c0.8,1.4,1.9,3.5,3.2,6.1c2.6,5.2,6,12.4,9.7,20.5
			c3.5,7.9,6.7,15.1,9.2,20.7c1.1,2.4,2,4.5,2.8,6.2c0.7,1.5,1,2.3,0.9,2.3c-0.1,0-0.5-0.7-1.3-2.1c-0.8-1.4-1.9-3.5-3.2-6.1
			c-2.6-5.2-5.9-12.5-9.5-20.5c-3.6-7.9-6.8-15-9.3-20.6c-1.1-2.4-2.1-4.5-2.8-6.2C1758.9,467,1758.6,466.1,1758.7,466.1z"/>
	</g>
	<g>
		<path class="st1" d="M1789.1,524c-0.1-0.3,14.4-8,32.6-17.3c18.2-9.2,33-16.5,33.1-16.2c0.1,0.3-14.4,8-32.6,17.3
			C1804.1,517,1789.3,524.3,1789.1,524z"/>
	</g>
	<g>
		<path class="st1" d="M1760.4,609.7c0-0.1,0.9-0.3,2.5-0.6c1.9-0.4,4.2-0.8,6.9-1.3c5.8-1.1,13.8-2.7,22.6-4.7
			c8.8-2,16.6-4.1,22.3-5.7c2.7-0.7,4.9-1.3,6.7-1.8c1.6-0.4,2.5-0.6,2.5-0.5c0,0.1-0.8,0.4-2.4,1c-1.6,0.6-3.8,1.3-6.6,2.2
			c-5.6,1.8-13.5,4-22.3,6.1c-8.8,2.1-16.8,3.5-22.7,4.4c-2.9,0.4-5.3,0.8-6.9,0.9C1761.4,609.7,1760.5,609.8,1760.4,609.7z"/>
	</g>
	<g>
		<path class="st1" d="M1721.4,563.4c0.1-0.1,0.7,0.5,1.7,1.6c1.1,1.1,2.5,2.7,4.4,4.8c3.7,4.1,8.6,9.7,14.1,16
			c5.5,6.3,10.3,12.1,13.8,16.3c1.7,2.1,3.1,3.8,4.1,5c0.9,1.2,1.4,1.9,1.4,1.9c-0.1,0.1-0.7-0.5-1.7-1.6c-1.1-1.1-2.5-2.7-4.4-4.8
			c-3.7-4.1-8.6-9.7-14.1-16c-5.4-6.3-10.3-12-13.8-16.2c-1.7-2.1-3.1-3.8-4.1-5S1721.3,563.4,1721.4,563.4z"/>
	</g>
	<g>
		<path class="st1" d="M1686.5,635.8c0.1-0.1,0.8,0.7,2.2,2.1c1.5,1.6,3.4,3.7,5.6,6.1c4.7,5.2,11.2,12.4,18.2,20.4
			c7.1,8,13.4,15.3,18,20.6c2.1,2.5,3.9,4.7,5.3,6.3c1.2,1.5,1.9,2.4,1.8,2.4c-0.1,0.1-0.8-0.7-2.2-2.1c-1.5-1.6-3.4-3.7-5.6-6.1
			c-4.7-5.2-11.2-12.4-18.2-20.4c-7.1-8-13.4-15.3-17.9-20.6c-2.1-2.5-3.9-4.7-5.3-6.3C1687.1,636.7,1686.4,635.9,1686.5,635.8z"/>
	</g>
	<g>
		<path class="st1" d="M1736.8,692.1c0-0.1,1.1-0.4,3.1-0.9c2.3-0.5,5.2-1.2,8.6-2c7.3-1.7,17.4-4,28.4-6.9
			c11.1-2.9,21-5.8,28.2-7.9c3.4-1,6.3-1.8,8.5-2.5c2-0.6,3.1-0.9,3.2-0.8c0,0.1-1.1,0.5-3,1.2c-2,0.7-4.8,1.7-8.4,2.9
			c-7.1,2.3-17.1,5.3-28.1,8.2c-11.1,2.9-21.2,5.1-28.6,6.6c-3.7,0.7-6.7,1.3-8.7,1.6C1738,692,1736.8,692.2,1736.8,692.1z"/>
	</g>
</g>
<g>
	<path class="st2" d="M1096.8,248.6c6-3.5,13.5-3.7,20.1-1.7c6.6,2,12.5,6.1,17.5,10.8c9.8,9.1,16.1,23.2,19.8,36.1
		c-14.5,3.2-29.8-4.9-37.3-9.5C1105.2,277,1088.2,256.7,1096.8,248.6"/>
	<path class="st2" d="M1179.7,296.4c-7.1-3-11.9-10.5-12.6-18.2c-0.7-7.7,2.4-15.5,7.4-21.3c2.3-2.7,5.5-5.2,9-5.1
		c3.3,0.1,6.3,2.6,7.8,5.6c1.5,3,1.6,6.5,1.4,9.8C1191.9,278.6,1188.9,289.5,1179.7,296.4"/>
	<g>
		<path class="st1" d="M1202.5,332.9c-0.1,0.1-0.8-0.6-2-1.9c-1.2-1.3-2.9-3.2-4.9-5.7c-4-4.9-9.4-12-13.3-20.8
			c-4-8.9-5.1-18-4.3-24.3c0.4-3.2,1.1-5.7,1.7-7.3c0.6-1.7,1.1-2.5,1.2-2.5c0.2,0.1-1.5,3.7-2,9.9c-0.6,6.2,0.6,15,4.5,23.7
			c3.9,8.7,9.1,15.8,12.9,20.8c1.8,2.3,3.4,4.3,4.6,5.9C1202,332.1,1202.6,332.9,1202.5,332.9z"/>
	</g>
	<g>
		<path class="st1" d="M1111.1,262.9c0,0,0.4,0.2,1,0.6c0.8,0.5,1.7,1.1,2.8,1.8c2.5,1.6,6,4,10.3,7c8.6,6,20.3,14.6,33,24.4
			c12.7,9.8,24,18.9,32.1,25.6c3.9,3.3,7.2,6,9.6,8c1,0.9,1.9,1.6,2.6,2.2c0.6,0.5,0.9,0.8,0.8,0.8c0,0-0.4-0.2-1-0.6
			c-0.7-0.5-1.6-1.2-2.7-2c-2.5-1.9-5.8-4.5-9.8-7.7c-8.2-6.5-19.6-15.5-32.3-25.3c-12.7-9.8-24.3-18.4-32.8-24.6
			c-4.1-3-7.5-5.5-10-7.3c-1.1-0.8-2-1.5-2.7-2C1111.4,263.2,1111.1,263,1111.1,262.9z"/>
	</g>
	<path class="st2" d="M1174.8,317.5c-14.3-7.9-32.4-8.3-47-1.1c-3.7,1.8-7.7,5-7.4,9.1c0.3,4.2,4.7,6.7,8.7,7.9
		c16.6,5,35.9-1.3,46.5-15"/>
	<g>
		<path class="st1" d="M1138.9,323c0-0.1,0.8-0.5,2.3-1.3c0.8-0.4,1.7-0.9,2.9-1.3c1.1-0.4,2.4-1,3.9-1.4c1.5-0.5,3.1-0.9,4.9-1.2
			c1.8-0.4,3.7-0.6,5.8-0.8c4.1-0.3,8.6-0.1,13.3,0.6c4.7,0.8,9,2.1,12.8,3.6c3.8,1.6,7,3.3,9.6,5c1.3,0.8,2.4,1.7,3.4,2.4
			c1,0.7,1.8,1.4,2.4,2c1.3,1.1,2,1.8,1.9,1.9c-0.2,0.2-3-2.4-8.2-5.5c-2.6-1.6-5.9-3.2-9.6-4.7c-3.8-1.4-8-2.7-12.6-3.5
			c-4.6-0.7-9-0.9-13-0.7c-2,0.2-3.9,0.3-5.7,0.7c-1.8,0.2-3.4,0.7-4.9,1C1142.3,321.4,1139,323.2,1138.9,323z"/>
	</g>
</g>
<g>
	<path class="st3" d="M1036.3,422.5c0,0,0.3,0.4,0.9,1.2c0.6,0.9,1.4,2.1,2.5,3.6c2.2,3.2,5.4,7.9,9.5,13.8c0.1,0.1,0.1,0.3-0.1,0.4
		c0,0-0.1,0-0.2,0c-7.1,0-15.9,0-26.1,0l-0.3,0c-0.2,0-0.3-0.1-0.3-0.3c0-0.1,0-0.1,0.1-0.2l0,0l0.6,0.5c-6.4,5.8-15,10.9-25.3,13.2
		c-5.1,1.2-10.6,1.8-16.3,1.3c-5.6-0.3-11.5-1.4-17.1-3.7c-5.6-2.2-11.1-5.3-16-9.4c-4.9-4.1-9.2-9.1-12.6-14.9
		c-6.8-11.4-9.6-25.9-6.8-39.9c2.6-13,9.8-24.7,19.4-32.7c9.7-8,21.5-12.5,32.9-13.1c11.5-0.8,22.5,2.1,31.4,7.1
		c8.9,5.1,15.8,12,20.3,19.4c4.6,7.4,7.1,15,8,21.8c0.1,0.8,0.2,1.7,0.4,2.5c0.1,0.8,0.1,1.6,0.1,2.4c0,1.6,0.2,3.1,0.1,4.6
		c-0.1,2.9-0.4,5.6-0.7,8c-0.8,4.8-2,8.3-2.9,10.7c-0.5,1.2-0.9,2.1-1.1,2.6C1036.5,422.2,1036.3,422.5,1036.3,422.5
		c0,0,0.1-0.3,0.3-0.9c0.2-0.6,0.6-1.5,1-2.7c0.8-2.4,2-6,2.7-10.7c0.3-2.4,0.6-5,0.6-7.9c0-1.5-0.1-3-0.2-4.5
		c-0.1-0.8-0.1-1.6-0.2-2.4c-0.1-0.8-0.3-1.6-0.4-2.5c-1-6.7-3.5-14.2-8.1-21.4c-4.5-7.3-11.4-14-20.1-18.9
		c-8.8-4.8-19.5-7.7-30.8-6.8c-11.3,0.6-22.8,5.1-32.3,12.9c-9.4,7.9-16.4,19.3-19,32c-2.7,13.7,0,27.9,6.6,39.1
		c3.3,5.6,7.5,10.6,12.3,14.6c4.8,4,10.2,7.1,15.7,9.3c5.5,2.2,11.2,3.3,16.8,3.7c5.6,0.5,11-0.1,16-1.2
		c10.1-2.3,18.6-7.2,24.9-12.9c0.2-0.1,0.4-0.1,0.6,0c0.1,0.1,0.1,0.3,0,0.5l0,0l-0.6-0.5c0.6-0.2,0.9-0.1,1.2-0.2l1,0
		c0.6,0,1.3,0,1.9,0c1.2,0,2.5,0,3.7,0c2.4,0,4.7,0,6.9,0.1c4.4,0.1,8.4,0.1,12,0.1l-0.2,0.4c-4-6.1-7.1-10.8-9.3-14.1
		c-1-1.6-1.8-2.8-2.4-3.7C1036.6,422.9,1036.3,422.5,1036.3,422.5z"/>
</g>
<g>
	<path class="st4" d="M989.1,395.5c4.2-1.8,7.2-6.1,7.3-11.3c0-6.7-5.1-12.2-11.4-12.2c-6.3,0-11.4,5.4-11.5,12.1
		c0,5.2,3,9.6,7.3,11.4c-17.6,2.6-16.8,21.8-16.8,21.8l41.6,0.2C1005.6,417.5,1006.5,398.1,989.1,395.5z"/>
</g>
<g>
	<g>
		<g>
			<rect x="1194" y="190.1" class="st5" width="543.2" height="746.6"/>
		</g>
	</g>
	<g>
		<g>
			<rect x="1412.8" y="569.8" class="st2" width="233.1" height="38.8"/>
		</g>
		<g>
			<path class="st3" d="M1435.6,598.5c-4.1,0-7.4-3.3-7.4-7.4c0-4.1,3.3-7.4,7.4-7.4c4.1,0,7.4,3.3,7.4,7.4
				C1443.1,595.2,1439.7,598.5,1435.6,598.5z M1435.6,584.3c-3.8,0-6.9,3.1-6.9,6.9c0,3.8,3.1,6.9,6.9,6.9c3.8,0,6.9-3.1,6.9-6.9
				C1442.5,587.3,1439.4,584.3,1435.6,584.3z"/>
		</g>
		<g>
			<g>
				<path class="st3" d="M1596.8,591.7c0,0.3-31,0.6-69.1,0.6c-38.2,0-69.1-0.3-69.1-0.6c0-0.3,31-0.6,69.1-0.6
					C1565.8,591.1,1596.8,591.4,1596.8,591.7z"/>
			</g>
		</g>
	</g>
	<g>
		<g>
			<rect x="1194" y="255.2" class="st3" width="543.2" height="139.2"/>
		</g>
		<g>
			<rect x="1194" y="190.1" class="st6" width="543.2" height="40.6"/>
		</g>
		<g>
			<circle class="st3" cx="1213.2" cy="210.4" r="5.5"/>
		</g>
		<g>
			<path class="st3" d="M1259.5,209.2c0,3-2.4,5.5-5.5,5.5c-3,0-5.5-2.4-5.5-5.5c0-3,2.4-5.5,5.5-5.5
				C1257,203.8,1259.5,206.2,1259.5,209.2z"/>
		</g>
		<g>
			<path class="st3" d="M1240.1,209.2c0,3-2.4,5.5-5.5,5.5c-3,0-5.5-2.4-5.5-5.5c0-3,2.4-5.5,5.5-5.5
				C1237.6,203.8,1240.1,206.2,1240.1,209.2z"/>
		</g>
		<g>
			<rect x="1194" y="230.7" class="st1" width="543.2" height="24.5"/>
		</g>
		<g>
			<g>
				<path class="st3" d="M1380.7,486.2c0,0.3-18.2,0.6-40.6,0.6c-22.4,0-40.6-0.3-40.6-0.6c0-0.3,18.2-0.6,40.6-0.6
					C1362.5,485.6,1380.7,485.8,1380.7,486.2z"/>
			</g>
		</g>
		<g>
			<g>
				<path class="st3" d="M1380.7,505.2c0,0.3-18.2,0.6-40.6,0.6c-22.4,0-40.6-0.3-40.6-0.6c0-0.3,18.2-0.6,40.6-0.6
					C1362.5,504.7,1380.7,504.9,1380.7,505.2z"/>
			</g>
		</g>
		<g>
			<g>
				<path class="st3" d="M1345.5,521c0,0.3-10.3,0.6-23,0.6c-12.7,0-23-0.3-23-0.6c0-0.3,10.3-0.6,23-0.6
					C1335.2,520.4,1345.5,520.7,1345.5,521z"/>
			</g>
		</g>
		<g>
			<rect x="1415.1" y="418.4" class="st2" width="231.8" height="61.1"/>
		</g>
		<g>
			<path class="st1" d="M1447.7,509c0,6.7-5.4,12.1-12.1,12.1s-12.1-5.4-12.1-12.1s5.4-12.1,12.1-12.1S1447.7,502.3,1447.7,509z"/>
		</g>
		<g>
			<g>
				<path class="st3" d="M1645.8,500.3c0,0.3-38.8,0.6-86.7,0.6c-47.9,0-86.7-0.3-86.7-0.6c0-0.3,38.8-0.6,86.7-0.6
					C1607,499.7,1645.8,500,1645.8,500.3z"/>
			</g>
		</g>
		<g>
			<g>
				<path class="st3" d="M1562.3,517.5c0,0.3-20.1,0.6-45,0.6c-24.8,0-45-0.3-45-0.6c0-0.3,20.1-0.6,45-0.6
					C1542.2,516.9,1562.3,517.2,1562.3,517.5z"/>
			</g>
		</g>
		<g>
			<rect x="1599.7" y="537" class="st4" width="46.1" height="6.3"/>
		</g>
		<g>
			<rect x="1599.7" y="684.8" class="st4" width="46.1" height="6.3"/>
		</g>
		<g>
			<g>
				<path class="st3" d="M1599.7,628c0,0.3-40.4,0.6-90.2,0.6c-49.8,0-90.2-0.3-90.2-0.6c0-0.3,40.4-0.6,90.2-0.6
					C1559.3,627.4,1599.7,627.7,1599.7,628z"/>
			</g>
		</g>
		<g>
			<g>
				<path class="st3" d="M1599.7,643.5c0,0.3-40.4,0.6-90.2,0.6c-49.8,0-90.2-0.3-90.2-0.6s40.4-0.6,90.2-0.6
					C1559.3,642.9,1599.7,643.2,1599.7,643.5z"/>
			</g>
		</g>
		<g>
			<g>
				<path class="st3" d="M1599.7,659c0,0.3-40.4,0.6-90.2,0.6c-49.8,0-90.2-0.3-90.2-0.6c0-0.3,40.4-0.6,90.2-0.6
					C1559.3,658.4,1599.7,658.7,1599.7,659z"/>
			</g>
		</g>
		<g>
			<g>
				<path class="st3" d="M1477.3,686.9c0,0.3-12.6,0.6-28.1,0.6c-15.5,0-28.1-0.3-28.1-0.6c0-0.3,12.6-0.6,28.1-0.6
					C1464.7,686.3,1477.3,686.5,1477.3,686.9z"/>
			</g>
		</g>
		<g>
			<rect x="1412.8" y="725.9" class="st6" width="233.1" height="139.5"/>
		</g>
		<g>
			<polygon class="st3" points="1412.8,865.5 1509.5,802.2 1539.1,823.3 1599.7,782.7 1645.8,818.4 1645.8,865.5 			"/>
		</g>
		<g>
			<circle class="st3" cx="1545.8" cy="773.9" r="16.5"/>
		</g>
		<g>
			<rect x="1294.6" y="556.4" class="st1" width="24.3" height="24.3"/>
		</g>
		<g>
			<rect x="1324.1" y="556.4" class="st2" width="24.3" height="24.3"/>
		</g>
		<g>
			<rect x="1353.9" y="556.4" class="st2" width="24.3" height="24.3"/>
		</g>
		<g>
			<rect x="1294.6" y="585.4" class="st2" width="24.3" height="24.3"/>
		</g>
		<g>
			<rect x="1324.1" y="585.4" class="st0" width="24.3" height="24.3"/>
		</g>
		<g>
			<rect x="1353.9" y="585.4" class="st1" width="24.3" height="24.3"/>
		</g>
		<g>
			<rect x="1294.6" y="614.4" class="st1" width="24.3" height="24.3"/>
		</g>
		<g>
			<rect x="1324.1" y="614.4" class="st2" width="24.3" height="24.3"/>
		</g>
		<g>
			<rect x="1353.9" y="614.4" class="st1" width="24.3" height="24.3"/>
		</g>
	</g>
	<g>
		
			<rect x="1272.5" y="286.8" transform="matrix(1 -6.111097e-03 6.111097e-03 1 -2.1393 8.1947)" class="st4" width="134.7" height="134.7"/>
		<path class="st7" d="M1368.4,357.1c-0.9,1-0.8,2.6,0.2,3.5c1,0.9,2.6,0.8,3.5-0.2s0.8-2.6-0.2-3.5
			C1370.9,356,1369.3,356.1,1368.4,357.1z"/>
		<path class="st7" d="M1374.3,354.5c-0.7-0.6-2-1.1-3.4-1.1c-1.5,0-2.7,0.5-3.4,1.1c-0.7,0.6-1,1.1-0.9,1.2c0.3,0.3,2-1,4.3-0.9
			c2.3,0,4,1.3,4.3,1C1375.3,355.6,1375.1,355,1374.3,354.5z"/>
		<path class="st7" d="M1346.7,357.9c-1.2-0.7-2.7-0.3-3.4,0.8c-0.7,1.2-0.3,2.7,0.8,3.4c1.2,0.7,2.7,0.3,3.4-0.8
			C1348.2,360.2,1347.8,358.6,1346.7,357.9z"/>
		<path class="st7" d="M1348.9,356.7c-0.7-0.6-2-1.1-3.4-1.1c-1.5,0-2.7,0.5-3.4,1.1c-0.7,0.6-1,1.1-0.9,1.2c0.3,0.3,2-1,4.3-0.9
			c2.3,0,4,1.3,4.3,1C1349.8,357.8,1349.6,357.3,1348.9,356.7z"/>
		<path class="st7" d="M1363.1,368.9c-2.6-6.8-5-12.2-5.3-12c-0.3,0.1,1.5,5.7,4.1,12.5c0.7,1.6,1.3,3.2,1.9,4.8
			c0.3,0.7,0.6,1.4,0.5,1.8c0,0.3-0.5,0.5-1.1,0.5c-2.4,0.3-3.8,0.6-3.8,0.8c0,0.2,1.5,0.2,3.9,0.1c0.3,0,0.6,0,1-0.1
			c0.4-0.1,0.9-0.5,1.1-1c0.3-1-0.1-1.8-0.4-2.5C1364.3,372.1,1363.7,370.5,1363.1,368.9z"/>
		<path class="st8" d="M1338.6,399.8c0,0,5.3,12.2,22.3,10.6l0-2.4l0-1.8l0-0.2C1360.8,406,1350,406.9,1338.6,399.8z"/>
		<path class="st9" d="M1375.3,336.9c-0.1,0-0.2,0.1-0.2,0.1l-0.1-0.1c-3.2,1.4-11.6,3.9-22.5-0.5c-9.2-3.7-19.6-5-21.8-3.1
			c-2.1,2-1.9,11.1-10.4,14.4c0,0,1.9,16.9-4.7,17.2c0,0,0,0,0,0c0,0-0.1,0.1-0.1,0.1c-0.2-3.8-0.3-7.4-0.3-7.4
			c-0.1,0-0.6-0.2-1.4-0.3c-1.3-0.2-3.2-0.3-5,0.2c-2.7,0.7-5.1,2.9-4.9,8.4c0.4,9.2,7.6,9.4,10.7,8.8l2.2,46.8l44.2-0.3
			c0.2-3.6,0.1-6.1,0-9.3l-0.1-1.7c-17,1.6-22.3-10.6-22.3-10.6c11.5,7.1,22.2,6.2,22.2,6.2l0,0.2c0.3-0.1,17-2.9,17.1-19.8
			C1378,373.7,1376.2,348.8,1375.3,336.9z M1311.8,370.8c-0.3,0.3-1,0.6-1.8,0.4c-1.7-0.4-3-2.6-3.2-4.9c-0.1-1.2,0.2-2.3,0.6-3.3
			c0.4-0.9,1.2-1.8,2-1.9c0.4-0.1,0.8,0,1.1,0.3c0.3,0.2,0.4,0.5,0.5,0.7c0.1,0.5-0.1,0.7-0.1,0.7c-0.1,0,0-0.3-0.2-0.6
			c-0.2-0.3-0.6-0.7-1.2-0.5c-0.6,0.1-1.1,0.7-1.5,1.6c-0.3,0.8-0.5,1.9-0.5,2.9c0.1,2.1,1.2,4,2.5,4.4c0.6,0.2,1.2,0.1,1.5-0.1
			c0.3-0.2,0.5-0.4,0.5-0.3C1312.2,370.2,1312.1,370.5,1311.8,370.8z M1368.9,349.4c3.3-0.2,5.7,1.5,5.4,2c-0.3,0.6-2.5,0.2-5.3,0.4
			c-2.7,0.1-4.9,0.8-5.3,0.2C1363.4,351.4,1365.6,349.5,1368.9,349.4z M1337.6,349.9c0-0.7,2.4-1,5.2-1.1c1,0,2-0.1,3.5-0.2
			c0.9,0,1.5-0.1,1.7,0.2c0.2,0.3-0.2,0.9-1.2,1.4c-0.9,0.5-2.4,0.9-3.9,0.9C1339.9,351.3,1337.6,350.5,1337.6,349.9z M1347.5,361.3
			c-0.7,1.2-2.2,1.5-3.4,0.8c-1.2-0.7-1.5-2.2-0.8-3.4c0.7-1.2,2.2-1.5,3.4-0.8C1347.8,358.6,1348.2,360.2,1347.5,361.3z
			 M1349.7,357.9c-0.3,0.3-1.9-1-4.3-1c-2.3,0-4,1.2-4.3,0.9c-0.1-0.1,0.1-0.7,0.9-1.2c0.7-0.6,2-1.1,3.4-1.1c1.5,0,2.7,0.6,3.4,1.1
			C1349.6,357.3,1349.8,357.8,1349.7,357.9z M1356.1,383.3c-3.1-1.1-4.5-3.5-4.2-3.7c0.3-0.2,1.9,1.6,4.6,2.5c2.7,1,5.1,0.5,5.2,0.8
			C1361.9,383.2,1359.2,384.4,1356.1,383.3z M1365.2,376.2c-0.2,0.5-0.6,0.9-1.1,1c-0.4,0.1-0.8,0.1-1,0.1c-2.4,0.1-3.9,0.1-3.9-0.1
			c0-0.2,1.4-0.5,3.8-0.8c0.6-0.1,1.1-0.2,1.1-0.5c0.1-0.4-0.1-1-0.5-1.8c-0.6-1.5-1.2-3.1-1.9-4.8c-2.6-6.8-4.4-12.4-4.1-12.5
			c0.3-0.1,2.7,5.3,5.3,12c0.6,1.7,1.2,3.2,1.8,4.8C1365.1,374.4,1365.5,375.2,1365.2,376.2z M1372.1,360.4c-0.9,1-2.5,1.1-3.5,0.2
			c-1-0.9-1.1-2.5-0.2-3.5c0.9-1,2.5-1.1,3.5-0.2C1372.9,357.8,1373,359.4,1372.1,360.4z M1375.2,355.7c-0.3,0.3-1.9-1-4.3-1
			c-2.3,0-4,1.2-4.3,0.9c-0.1-0.1,0.1-0.7,0.9-1.2c0.7-0.6,2-1.1,3.4-1.1c1.5,0,2.7,0.6,3.4,1.1
			C1375.1,355,1375.3,355.6,1375.2,355.7z"/>
		<path class="st8" d="M1310.1,370.6c-1.2-0.4-2.4-2.3-2.5-4.4c-0.1-1.1,0.1-2.1,0.5-2.9c0.3-0.9,0.9-1.5,1.5-1.6
			c0.6-0.2,1.1,0.2,1.2,0.5c0.2,0.3,0.1,0.6,0.2,0.6c0,0,0.2-0.2,0.1-0.7c-0.1-0.2-0.2-0.5-0.5-0.7c-0.3-0.2-0.7-0.3-1.1-0.3
			c-0.9,0.1-1.7,1-2,1.9c-0.4,0.9-0.7,2.1-0.6,3.3c0.2,2.3,1.4,4.5,3.2,4.9c0.8,0.2,1.5-0.1,1.8-0.4c0.3-0.3,0.4-0.6,0.4-0.6
			c-0.1,0-0.2,0.1-0.5,0.3C1311.3,370.7,1310.7,370.8,1310.1,370.6z"/>
		<path class="st7" d="M1314.3,323.9c0.3-0.2-0.9-1.9-3.2-2.6c-2.3-0.7-4.3,0.1-4.1,0.4c0.1,0.3,1.8,0.1,3.8,0.8
			C1312.7,323,1314,324.2,1314.3,323.9z"/>
		<path class="st7" d="M1316.1,324.5c0-0.5-1.2-2.4-1.7-4.9c-0.6-2.8-0.5-5.3-0.9-5.3c-0.3,0-0.9,2.4-0.3,5.5
			c0.5,2.7,2.1,4.5,2.6,4.8c0.1,0,0.2,0.1,0.2,0C1316.1,324.6,1316.1,324.5,1316.1,324.5z"/>
		<path class="st7" d="M1369,351.8c2.7-0.2,5,0.3,5.3-0.4c0.3-0.6-2-2.2-5.4-2c-3.3,0.2-5.5,2-5.1,2.6
			C1364.1,352.5,1366.3,351.9,1369,351.8z"/>
		<path class="st7" d="M1343,351.2c1.5-0.1,2.9-0.4,3.9-0.9c1-0.5,1.4-1.2,1.2-1.4c-0.2-0.3-0.8-0.2-1.7-0.2
			c-1.5,0.1-2.6,0.1-3.5,0.2c-2.8,0.1-5.2,0.4-5.2,1.1C1337.6,350.5,1339.9,351.3,1343,351.2z"/>
		<path class="st7" d="M1351.9,379.6c-0.3,0.1,1.1,2.6,4.2,3.7c3.1,1.1,5.7,0,5.6-0.3c-0.1-0.3-2.5,0.2-5.2-0.8
			C1353.8,381.3,1352.2,379.4,1351.9,379.6z"/>
		<path class="st7" d="M1376.3,309.2c-5.8-5.4-15-6.6-21.9-2.9c-3.2,1.7-5.9,4.3-9.4,5.4c-4.1,1.3-8.6,0.2-12.9-0.1
			c-4.3-0.3-9.4,0.6-11.6,4.3c-1.4,2.4-1.3,5.6-3.2,7.7c-0.3,0.4-0.7,0.7-1.1,0.9c0,0.1,0,0.1,0,0.1c0,0-0.1,0-0.2,0
			c-2.7,1.6-6.5,1.2-9.6,2.2c-3.6,1.2-6.2,4.8-6.6,8.5c-0.4,3.8,1.2,7.6,4,10.2c1.6,1.5,3.6,2.6,4.6,4.5c1.2,2.3,0.7,5,0.3,7.6
			c1.8-0.5,3.7-0.4,5-0.2c0.8,0.1,1.3,0.3,1.4,0.3c0,0,0.2,3.6,0.3,7.4c0,0,0.1-0.1,0.1-0.1c0,0,0,0,0,0c6.7-0.3,4.7-17.2,4.7-17.2
			c8.5-3.4,8.3-12.5,10.4-14.4c2.1-2,12.6-0.6,21.8,3.1c10.9,4.4,19.3,1.8,22.5,0.5l0.1,0.1c0.1,0,0.2-0.1,0.2-0.1
			c0.2-0.1,0.4-0.2,0.6-0.4c0.3-0.2,0.5-0.3,0.5-0.3l0-0.1c1.9-1.3,3.3-3.3,4.2-5.4C1383.9,323.7,1382,314.5,1376.3,309.2z"/>
	</g>
	<g>
		<g>
			<path class="st3" d="M1736.6,190.1l0.5,0.5c-163.7,0-348.4,0-543.1,0.1h-0.1l0.6-0.6c0,279-0.1,537.3-0.1,746.6l-0.5-0.5
				c329.4,0.3,539.2,0.5,543.2,0.5c-4,0-213.8,0.2-543.2,0.5l-0.5,0v-0.5c0-209.3-0.1-467.6-0.1-746.6v-0.6h0.6h0.1
				c194.8,0,379.5,0,543.1,0.1h0.5l0,0.5c-0.3,441.7-0.5,741.8-0.5,746.6"/>
		</g>
	</g>
</g>
<g>
	<g>
		<g>
			<g>
				<path class="st10" d="M1001.8,712.9l3,6.3c0,0,1.2,4.1,4.8,10.7c0.9,1.7,2.2,3.2,3.6,4.5c1.8,1.6,4.2,3.6,5.8,4.3
					c2.1,0.8,2,3.8,0.1,4.2c-2,0.5-7.7-1.7-12.6-7c-4.9-5.2-4.1,6-3.9,10.1c0.2,4.1,0.2,16.8-1,17.9c-1.8,1.6-3.8-0.1-3.9-4.2
					c-0.1-4.2-1.3-16.4-3.5-16.2c-2.1,0.2-0.8,21.1-0.8,21.1s1,4.4-1.5,4.7c-4.5,0.6-4.3-21.7-4.2-23.9c0.1-1.5-2.3-1.3-2.3,0.3
					c0,1.6,1.8,20.8-2.8,21.5c-3.5,0.5,0-18.4-2.6-22.1c-2.6-3.8-1.2,14.6-4.6,14.9c-1.3,0.1-2.2,0-1.5-10.6
					c0.8-10.9,7.6-40.1,7.6-40.1l20.4,3.8"/>
			</g>
		</g>
		<g>
			<path class="st10" d="M1083.2,556.6c0,0-64.3,62.7-65.7,70.8c-1.4,8.1-10.7,98.1-10.7,98.1l-29.4-2.9c0,0-2.8-110.9,6.4-122.1
				s45.8-53.7,45.8-53.7L1083.2,556.6z"/>
		</g>
		<g>
			<g>
				<path class="st11" d="M986.5,612.1c0,0-0.4-0.2-0.8-0.9c-0.4-0.7-0.9-1.8-0.9-3.2c0-1.4,0.7-3.3,2.3-4.4c1.5-1.2,4-1.7,6.1-0.6
					c1,0.5,1.9,1.4,2.3,2.4c0.4,1,0.4,2.2-0.1,3.1c-0.9,2-3.3,2.4-4.6,1.6c-1.4-0.9-1.4-2.4-1.1-3.2c0.3-0.8,0.8-1,0.8-1
					c0.1,0.1-0.3,0.4-0.4,1.1c-0.1,0.6,0,1.9,1.1,2.5c1,0.6,2.9,0.1,3.5-1.3c0.3-0.7,0.3-1.6,0-2.4c-0.3-0.8-1-1.5-1.8-1.9
					c-1.7-0.9-3.7-0.5-5.1,0.5c-1.4,1-2.1,2.4-2.2,3.7C985.3,610.7,986.7,612,986.5,612.1z"/>
			</g>
		</g>
	</g>
	<g>
		<g>
			<path class="st6" d="M1218.2,396.6c-0.4,1.2-6.1,82.3-6.1,82.3l32.5-2.5l8-70.5L1218.2,396.6z"/>
			<polygon class="st3" points="1212.1,478.8 1207.7,477.6 1214,395.4 1218.7,396.7 			"/>
			<circle class="st3" cx="1236.8" cy="415.9" r="1.9"/>
		</g>
		<path class="st10" d="M1201.1,519l57.3,14.9l-9.1-67.9l0,0l-1.2-3.2l-21-3.2l2.5-15.5c1.3-7.3,8.5-11.9,15.6-10
			c2.3,0.6,4.7,1.3,6.9,1.8c4.9,1.3,9.1,4.6,11.4,9.1c4,7.8,7.9,16.3,7.5,15.6l0,0l0,0l30.7,83.4c0,0,9.5,16.9-3.4,33.6
			c-9.9,12.9-33.8,3.9-45.1,1.7l-73.4-16.2L1201.1,519z"/>
		<g>
			<g>
				<g>
					<path class="st3" d="M1086.7,436.2c0.5,1.3,0.1,2.9-0.9,3.8c-1,0.9-2.6,1.2-3.9,0.7c-2.4-1.1-2.9-4.3-2.6-6.9
						c0.3-2.6,1-5.4-0.2-7.8c-0.9-1.8-2.8-2.8-4.3-4.2c-2.6-2.4-4.1-6-3.7-9.5c0.4-3.5,2.8-6.7,6.2-7.9c3.4-1.2,7.7-0.3,10.1-3
						c1.8-1.9,1.7-4.9,3-7.1c2.1-3.5,6.7-4.3,10.8-3.9c4,0.3,8.1,1.4,12,0.2c3.2-1,5.8-3.4,8.8-5c6.5-3.4,15-2.2,20.3,2.8
						c5.3,5,7,13.5,3.9,20.1c-1.1,2.4-2.8,4.6-5.2,5.7"/>
					<g>
						<g>
							<g>
								<g>
									<path class="st10" d="M1090.7,504.7l38-3c0.2-4.4-0.1-21.6-0.1-21.6s15.8-2.5,16-18.3c0.2-15.8-2.5-52.1-2.5-52.1l0,0
										c-18.3-7.9-39.4-5.2-55.2,6.9l-2.3,1.8L1090.7,504.7z"/>
								</g>
								<g>
									<g>
										<path class="st3" d="M1138.5,436.9c-0.9-0.9-1-2.3-0.2-3.2c0.9-0.9,2.3-1,3.2-0.2c0.9,0.9,1,2.3,0.2,3.2
											C1140.8,437.7,1139.4,437.7,1138.5,436.9z"/>
									</g>
									<g>
										<g>
											<path class="st3" d="M1142.3,433.3c-0.2,0.3-1.8-0.9-4-0.9c-2.2,0-3.8,1.1-4,0.8c-0.1-0.1,0.1-0.6,0.8-1.1
												c0.7-0.5,1.8-1,3.2-1c1.4,0,2.5,0.5,3.2,1.1C1142.2,432.6,1142.4,433.1,1142.3,433.3z"/>
										</g>
									</g>
								</g>
								<g>
									<g>
										<path class="st3" d="M1117.2,435.2c1.1,0.7,1.4,2.1,0.8,3.2c-0.7,1.1-2.1,1.4-3.2,0.8c-1.1-0.7-1.4-2.1-0.8-3.2
											C1114.7,434.8,1116.1,434.5,1117.2,435.2z"/>
									</g>
									<g>
										<g>
											<path class="st3" d="M1118.7,435.2c-0.2,0.3-1.8-0.9-4-0.9c-2.2,0-3.8,1.1-4,0.8c-0.1-0.1,0.1-0.6,0.8-1.1
												c0.7-0.5,1.8-1,3.2-1c1.4,0,2.5,0.5,3.2,1.1C1118.5,434.6,1118.8,435.1,1118.7,435.2z"/>
										</g>
									</g>
								</g>
								<g>
									<g>
										<path class="st3" d="M1127.4,453.1c0-0.2,1.3-0.4,3.5-0.7c0.6-0.1,1-0.2,1.1-0.5c0.1-0.3-0.1-1-0.4-1.6
											c-0.6-1.4-1.1-2.9-1.7-4.4c-2.4-6.3-4-11.5-3.7-11.6c0.3-0.1,2.5,4.9,4.9,11.2c0.6,1.5,1.1,3,1.6,4.5
											c0.2,0.7,0.6,1.4,0.3,2.4c-0.2,0.5-0.6,0.8-1,0.9c-0.4,0.1-0.7,0.1-1,0.1C1128.8,453.3,1127.4,453.3,1127.4,453.1z"/>
									</g>
								</g>
								<g>
									<path class="st12" d="M1120.3,455.5c2.8,1.1,6.3,2.6,10.7,3.1c0,0-2.5,4.1-7.1,2.4C1119.2,459.3,1120.3,455.5,1120.3,455.5
										z"/>
								</g>
								<g>
									<path class="st11" d="M1128.7,479.8c0,0-10,0.8-20.6-5.9c0,0,4.9,11.4,20.6,9.9L1128.7,479.8z"/>
								</g>
							</g>
						</g>
					</g>
					<path class="st3" d="M1142.4,413.7c0,0-9.2,5.3-22.2,0c-8.5-3.5-18.2-4.8-20.2-3c-2,1.8-1.8,10.3-9.7,13.3c0,0,1.7,16.1-4.7,16
						c-6.5-0.1-4.3-25.3-4.3-25.3l15.1-8.8l16.9-4.5l16.3,1.1l12.7,2.5V413.7z"/>
					<g>
						<g>
							<path class="st10" d="M1086.5,434.8c-0.3-0.1-10.9-3.2-10.5,7.6c0.3,10.8,11.1,8.2,11.1,7.9
								C1087.2,450,1086.5,434.8,1086.5,434.8z"/>
						</g>
						<g>
							<g>
								<path class="st11" d="M1083.7,446.3c0,0-0.2,0.1-0.5,0.3c-0.3,0.2-0.8,0.3-1.4,0.1c-1.2-0.4-2.2-2.2-2.3-4.1
									c-0.1-1,0.1-1.9,0.4-2.7c0.3-0.8,0.8-1.4,1.4-1.5c0.6-0.2,1,0.2,1.1,0.5c0.2,0.3,0.1,0.5,0.2,0.5c0,0,0.2-0.2,0.1-0.6
									c-0.1-0.2-0.2-0.5-0.4-0.7c-0.3-0.2-0.7-0.3-1-0.2c-0.8,0.1-1.6,0.9-1.9,1.7c-0.4,0.9-0.6,1.9-0.6,3
									c0.1,2.2,1.3,4.2,2.9,4.6c0.8,0.2,1.4-0.1,1.7-0.3C1083.7,446.6,1083.8,446.4,1083.7,446.3z"/>
							</g>
						</g>
					</g>
					<g>
						<path class="st3" d="M1079.2,401.4c-0.1-0.3,1.7-1.1,3.8-0.4c2.2,0.7,3.2,2.3,2.9,2.5c-0.3,0.2-1.5-0.8-3.3-1.4
							C1080.9,401.5,1079.3,401.7,1079.2,401.4z"/>
					</g>
					<g>
						<path class="st3" d="M1085.3,394.5c0.4,0,0.4,2.3,0.9,4.9c0.5,2.6,1.7,4.5,1.4,4.7c-0.2,0.2-2-1.5-2.6-4.4
							C1084.5,396.8,1085.1,394.5,1085.3,394.5z"/>
					</g>
					<g>
						<path class="st3" d="M1131.7,429.7c-0.4-0.5,1.7-2.3,4.8-2.4c3.1-0.1,5.3,1.4,5,2c-0.3,0.6-2.4,0.3-4.9,0.4
							C1134.1,429.8,1132,430.3,1131.7,429.7z"/>
					</g>
					<g>
						<path class="st3" d="M1107.5,427.7c-0.4-0.5,1.7-2.3,4.8-2.4c3.1-0.1,5.3,1.4,5,2c-0.3,0.6-2.4,0.3-4.9,0.4
							C1109.9,427.7,1107.8,428.3,1107.5,427.7z"/>
					</g>
				</g>
				<g>
					<path class="st6" d="M1018.1,1095.1l-3.8,15.8c0,0-25.9,33.6-33.8,31.9c-5.2-1.1,1.2-9.8,11-35.3l2.1-10.5L1018.1,1095.1z"/>
					<g>
						<path class="st3" d="M979.4,1137.9c0.1-0.1,0.3,0.7,1.4,1.3c1.1,0.6,3.1,0.7,4.9-0.7c3.5-2.8,8.1-7.2,12.9-12.2
							c4.8-5,8.8-9.9,11.6-13.4c1.3-1.6,2.4-3,3.3-4.3c0.3-0.4,0.6-0.8,0.9-1.2c0.2-0.3,0.3-0.4,0.3-0.4c0,0-0.1,0.2-0.3,0.4
							c-0.3,0.4-0.5,0.8-0.8,1.2c-0.7,1-1.8,2.5-3.2,4.4c-2.8,3.6-6.8,8.5-11.6,13.5c-4.8,5-9.4,9.4-13,12.1c-1,0.6-2,1-2.9,1.1
							c-0.9,0-1.7-0.2-2.3-0.5c-0.6-0.3-0.9-0.7-1.1-1C979.5,1138.1,979.4,1137.9,979.4,1137.9z"/>
					</g>
					<g>
						<path class="st3" d="M983.1,1127.1c0,0,0.8-0.3,2.1-0.2c1.3,0.1,3.1,0.6,4.9,1.7c1.8,1,3,2.5,3.5,3.7c0.6,1.2,0.6,2.1,0.6,2.1
							c-0.1,0-0.2-0.8-0.9-1.9c-0.6-1.1-1.8-2.5-3.5-3.5c-1.7-1-3.4-1.6-4.7-1.8C983.9,1127,983.1,1127.2,983.1,1127.1z"/>
					</g>
					<g>
						<path class="st3" d="M1007.6,1119.2c0,0-0.1-0.3-0.3-0.8c-0.2-0.5-0.4-1.2-0.5-2.2c-0.3-1.8-0.1-4.6,1.2-7.2
							c1.3-2.6,3.5-4.3,5.2-5.1c0.9-0.4,1.6-0.6,2.1-0.7c0.5-0.1,0.8-0.1,0.8,0c0,0.1-1.2,0.2-2.8,1c-1.6,0.8-3.7,2.5-4.9,5
							c-1.3,2.5-1.5,5.1-1.3,6.9C1007.3,1118.1,1007.7,1119.2,1007.6,1119.2z"/>
					</g>
					<g>
						<path class="st3" d="M1016.4,1097.8c0.1,0-0.5,2.3-0.9,5c-0.5,2.8-1.2,5-1.4,5c-0.1,0,0.4-2.3,0.9-5.1
							C1015.5,1100,1016.3,1097.8,1016.4,1097.8z"/>
					</g>
					<g>
						<path class="st3" d="M991.1,1109.8c0-0.1,1.5-0.4,3.3,0c1.8,0.4,3.1,1.3,3,1.4c-0.1,0.1-1.4-0.6-3.1-1
							C992.5,1109.8,991.1,1109.9,991.1,1109.8z"/>
					</g>
					<g>
						<path class="st3" d="M990.5,1112.5c0-0.1,1.2-0.5,2.8-0.1c1.6,0.4,2.5,1.3,2.4,1.4c-0.1,0.1-1.1-0.6-2.6-0.9
							C991.8,1112.5,990.5,1112.6,990.5,1112.5z"/>
					</g>
					<g>
						<path class="st3" d="M988.5,1115.9c-0.1-0.1,1.2-0.8,2.9-0.4c1.7,0.4,2.6,1.5,2.4,1.6c-0.1,0.1-1-0.8-2.6-1.1
							C989.7,1115.6,988.5,1116,988.5,1115.9z"/>
					</g>
					<g>
						<path class="st3" d="M992.8,1108.6c0-0.1,1.2-0.3,3-1c0.9-0.4,2-0.8,3.1-1.5c0.6-0.3,1.1-0.7,1.7-1.1c0.5-0.4,1.1-1,1.1-1.6
							c0-0.6-0.8-0.9-1.4-0.8c-0.6,0.1-1.1,0.6-1.6,1.1c-1,0.9-1.8,1.8-2.4,2.5c-1.3,1.5-2.1,2.5-2.1,2.4c0,0,0.1-0.3,0.4-0.8
							c0.3-0.5,0.8-1.1,1.4-1.9c0.6-0.8,1.4-1.7,2.4-2.6c0.5-0.4,1-1,1.8-1.2c0.7-0.2,1.9,0.2,2,1.2c0,1-0.7,1.5-1.3,2
							c-0.6,0.4-1.2,0.8-1.8,1.1c-1.2,0.6-2.3,1.1-3.2,1.4c-0.9,0.3-1.7,0.5-2.3,0.6C993.2,1108.6,992.8,1108.7,992.8,1108.6z"/>
					</g>
					<g>
						<path class="st3" d="M994.2,1108.3c-0.1,0-0.2-1.1-0.5-2.9c-0.2-0.9-0.4-1.9-0.9-3c-0.2-0.5-0.6-1.1-1-1.5
							c-0.4-0.4-1-0.8-1.5-0.5c-0.5,0.3-0.5,1-0.5,1.6c0.1,0.6,0.3,1.2,0.5,1.7c0.5,1.1,1.1,1.9,1.7,2.6
							C993.3,1107.6,994.2,1108.2,994.2,1108.3c0,0-0.3-0.1-0.7-0.4c-0.4-0.3-1-0.8-1.6-1.4c-0.6-0.7-1.3-1.5-1.8-2.7
							c-0.3-0.6-0.5-1.2-0.6-1.9c-0.1-0.6-0.1-1.6,0.7-2c0.8-0.4,1.6,0.2,2,0.7c0.5,0.5,0.8,1.1,1,1.7c0.5,1.1,0.7,2.2,0.8,3.1
							c0.1,0.9,0.1,1.6,0.2,2.1C994.2,1108,994.2,1108.3,994.2,1108.3z"/>
					</g>
				</g>
				<g>
					<g>
						<g>
							<g>
								<g>
									<path class="st6" d="M1146.6,1103.1l0.1-21.1l-39.5-0.5l-0.5,30.8l2.4,0.2c10.9,0.7,55.4,3,62.7,0.9
										C1180.1,1111.1,1146.6,1103.1,1146.6,1103.1z"/>
								</g>
							</g>
						</g>
						<g>
							<g>
								<g>
									<path class="st3" d="M1106.2,1111.5c0,0,0.2,0,0.7,0.1c0.6,0,1.2,0.1,1.9,0.1c1.9,0.1,4.3,0.2,7.2,0.4
										c6.1,0.3,14.4,0.6,23.7,0.7c9.3,0.1,17.6,0.1,23.7-0.1c2.8-0.1,5.2-0.2,7.2-0.2c0.7,0,1.4-0.1,2-0.1c0.4,0,0.7,0,0.7-0.1
										c0,0-0.2,0-0.7,0c-0.6,0-1.2,0-2,0c-2,0-4.4,0-7.2,0.1c-6.1,0-14.4,0.1-23.7-0.1c-9.3-0.1-17.6-0.4-23.7-0.6
										c-2.8-0.1-5.2-0.2-7.2-0.2c-0.7,0-1.4,0-2-0.1C1106.4,1111.5,1106.2,1111.5,1106.2,1111.5z"/>
								</g>
							</g>
						</g>
						<g>
							<g>
								<g>
									<path class="st3" d="M1159.4,1113.2c0.1,0,0.3-1.7,1.4-3.4c1.1-1.7,2.6-2.6,2.5-2.7c0-0.1-1.7,0.6-2.9,2.5
										C1159.2,1111.4,1159.3,1113.3,1159.4,1113.2z"/>
								</g>
							</g>
						</g>
						<g>
							<g>
								<g>
									<path class="st3" d="M1147.8,1107.2c0.1,0.1,0.7-0.6,1.3-1.5c0.6-0.9,1-1.7,0.9-1.8c-0.1-0.1-0.7,0.6-1.3,1.5
										C1148.1,1106.3,1147.7,1107.1,1147.8,1107.2z"/>
								</g>
							</g>
						</g>
						<g>
							<g>
								<g>
									<path class="st3" d="M1144.6,1105.5c0.1,0.1,0.7-0.3,1.4-0.9c0.7-0.6,1.2-1.2,1.1-1.3c-0.1-0.1-0.7,0.3-1.4,0.9
										C1145,1104.8,1144.5,1105.4,1144.6,1105.5z"/>
								</g>
							</g>
						</g>
						<g>
							<g>
								<g>
									<path class="st3" d="M1142.7,1101.7c0,0.1,0.9,0.3,2.1,0.3c1.1,0,2.1-0.1,2.1-0.2c0-0.1-0.9-0.3-2.1-0.3
										C1143.6,1101.5,1142.7,1101.6,1142.7,1101.7z"/>
								</g>
							</g>
						</g>
						<g>
							<g>
								<g>
									<path class="st3" d="M1142,1099.1c0,0.1,1,0.6,2.3,0.7c1.3,0.1,2.4-0.2,2.4-0.3c0-0.1-1.1-0.1-2.3-0.2
										C1143.1,1099.2,1142,1098.9,1142,1099.1z"/>
								</g>
							</g>
						</g>
						<g>
							<g>
								<g>
									<path class="st3" d="M1149.2,1103.8c0,0.1,1,0.2,2.5,0c0.8-0.1,1.7-0.3,2.7-0.6c0.5-0.2,1-0.3,1.6-0.6
										c0.3-0.2,0.5-0.4,0.6-0.8c0.1-0.4-0.1-0.8-0.4-1c-2.4-1.3-4.9,0-5.8,1.3c-0.5,0.6-0.7,1.3-0.8,1.7
										c-0.1,0.4-0.1,0.7-0.1,0.7c0.1,0,0.2-1,1.2-2.2c0.5-0.6,1.2-1.1,2.2-1.4c0.9-0.3,2.2-0.3,3,0.2c0.4,0.3,0.2,0.8-0.2,1
										c-0.4,0.3-1,0.4-1.4,0.6c-1,0.3-1.9,0.5-2.6,0.6C1150.2,1103.7,1149.2,1103.7,1149.2,1103.8z"/>
								</g>
							</g>
						</g>
						<g>
							<g>
								<g>
									<path class="st3" d="M1149.8,1103.9c0,0,0.4-0.6,0.3-1.8c-0.1-0.6-0.3-1.2-0.7-1.9c-0.4-0.6-1-1.4-2.1-1.3
										c-0.6,0.1-0.9,0.7-0.8,1.2c0,0.4,0.2,0.8,0.4,1.1c0.4,0.6,0.8,1.2,1.2,1.6c0.8,0.8,1.4,1.1,1.4,1c0-0.1-0.5-0.5-1.2-1.3
										c-0.3-0.4-0.7-0.9-1-1.5c-0.3-0.5-0.6-1.5,0.1-1.6c0.6-0.1,1.3,0.6,1.7,1.1c0.4,0.6,0.6,1.1,0.7,1.7
										C1150,1103.2,1149.8,1103.9,1149.8,1103.9z"/>
								</g>
							</g>
						</g>
						<g>
							<g>
								<g>
									<path class="st3" d="M1107.1,1100.7c0,0.1,1.1-0.1,2.9,0.1c1.8,0.2,4.2,1,6.3,2.7c2.1,1.7,3.3,4,3.9,5.7
										c0.6,1.7,0.6,2.8,0.7,2.8c0,0,0-0.3,0-0.8c0-0.5-0.1-1.3-0.4-2.1c-0.5-1.8-1.7-4.1-3.9-5.9c-2.2-1.8-4.8-2.5-6.6-2.7
										c-0.9-0.1-1.7,0-2.2,0C1107.4,1100.6,1107.1,1100.7,1107.1,1100.7z"/>
								</g>
							</g>
						</g>
						<g>
							<g>
								<g>
									<path class="st3" d="M1111.4,1084.3c-0.1,0-0.3,3.6-0.4,8.1c-0.1,4.5-0.1,8.1,0,8.1c0.1,0,0.3-3.6,0.4-8.1
										C1111.6,1087.9,1111.6,1084.3,1111.4,1084.3z"/>
								</g>
							</g>
						</g>
						<g>
							<g>
								<g>
									<path class="st3" d="M1126.1,1108.5c0,0.1,2.5,0.6,5.8,0.6c3.2,0.1,5.8-0.3,5.8-0.4c0-0.1-2.6,0-5.8-0.1
										C1128.7,1108.6,1126.1,1108.3,1126.1,1108.5z"/>
								</g>
							</g>
						</g>
						<g>
							<g>
								<g>
									<path class="st3" d="M1118.3,1108.4c-0.1,0.1,0.2,0.5,0.5,1.1c0.3,0.6,0.4,1.1,0.5,1.1c0.1,0,0.2-0.6-0.1-1.3
										C1118.9,1108.6,1118.4,1108.3,1118.3,1108.4z"/>
								</g>
							</g>
						</g>
						<g>
							<g>
								<g>
									<path class="st3" d="M1115.5,1104.7c-0.1,0.1,0.2,0.5,0.6,0.9c0.4,0.4,0.8,0.7,0.9,0.6c0.1-0.1-0.2-0.5-0.6-0.9
										C1116,1104.9,1115.6,1104.6,1115.5,1104.7z"/>
								</g>
							</g>
						</g>
						<g>
							<g>
								<g>
									<path class="st3" d="M1111.3,1103c0,0.1,0.6,0.1,1.1,0.3c0.6,0.2,1,0.5,1.1,0.4c0.1-0.1-0.2-0.6-0.9-0.9
										C1111.9,1102.6,1111.3,1102.9,1111.3,1103z"/>
								</g>
							</g>
						</g>
						<g>
							<g>
								<g>
									<path class="st3" d="M1108.4,1102.2c0,0.1,0.2,0.3,0.5,0.5c0.3,0.1,0.6,0.1,0.7,0c0-0.1-0.2-0.3-0.5-0.5
										C1108.7,1102,1108.4,1102,1108.4,1102.2z"/>
								</g>
							</g>
						</g>
					</g>
				</g>
				<g>
					<polyline class="st3" points="1173.5,684.4 1155.1,1094 1093.6,1095.3 1103.8,752.4 1034.6,1097.9 976.1,1097.9 1054.2,684.4 
											"/>
					<g>
						<g>
							<path class="st6" d="M990.8,1092c0.3,0.1,0.5,0.9,0.3,1.8c-0.2,0.9-0.5,1.7-0.9,1.6c-0.3-0.1-0.5-0.9-0.3-1.8
								C990.1,1092.7,990.5,1092,990.8,1092z"/>
						</g>
						<g>
							<path class="st6" d="M993.1,1078.6c0.3,0.1,0.3,1.6,0,3.5c-0.3,1.9-0.8,3.3-1.2,3.3c-0.3-0.1-0.3-1.6,0-3.5
								C992.3,1080,992.8,1078.5,993.1,1078.6z"/>
						</g>
						<g>
							<path class="st6" d="M995.3,1065.2c0.3,0.1,0.3,1.6,0,3.5c-0.3,1.9-0.8,3.3-1.2,3.3c-0.3-0.1-0.3-1.6,0-3.5
								C994.5,1066.6,995,1065.1,995.3,1065.2z"/>
						</g>
						<g>
							<path class="st6" d="M997.6,1051.8c0.3,0.1,0.3,1.6,0,3.5c-0.3,1.9-0.8,3.3-1.2,3.3c-0.3-0.1-0.3-1.6,0-3.5
								C996.8,1053.2,997.3,1051.7,997.6,1051.8z"/>
						</g>
						<g>
							<path class="st6" d="M999.9,1038.4c0.3,0.1,0.3,1.6,0,3.5c-0.3,1.9-0.8,3.3-1.2,3.3c-0.3-0.1-0.3-1.6,0-3.5
								C999,1039.8,999.5,1038.3,999.9,1038.4z"/>
						</g>
						<g>
							<path class="st6" d="M1002.1,1024.9c0.3,0.1,0.3,1.6,0,3.5c-0.3,1.9-0.8,3.3-1.2,3.3c-0.3-0.1-0.3-1.6,0-3.5
								C1001.3,1026.3,1001.8,1024.9,1002.1,1024.9z"/>
						</g>
						<g>
							<path class="st6" d="M1004.4,1011.5c0.3,0.1,0.3,1.6,0,3.5c-0.3,1.9-0.8,3.3-1.2,3.3s-0.3-1.6,0-3.5
								C1003.6,1012.9,1004.1,1011.5,1004.4,1011.5z"/>
						</g>
						<g>
							<path class="st6" d="M1006.7,998.1c0.3,0.1,0.3,1.6,0,3.5c-0.3,1.9-0.8,3.3-1.2,3.3c-0.3-0.1-0.3-1.6,0-3.5
								C1005.8,999.5,1006.4,998.1,1006.7,998.1z"/>
						</g>
						<g>
							<path class="st6" d="M1009,984.7c0.3,0.1,0.3,1.6,0,3.5c-0.3,1.9-0.8,3.3-1.2,3.3c-0.3-0.1-0.3-1.6,0-3.5
								C1008.1,986.1,1008.6,984.6,1009,984.7z"/>
						</g>
						<g>
							<path class="st6" d="M1011.3,971.3c0.3,0.1,0.3,1.6,0,3.5c-0.3,1.9-0.8,3.3-1.2,3.3c-0.3-0.1-0.3-1.6,0-3.5
								C1010.4,972.7,1010.9,971.2,1011.3,971.3z"/>
						</g>
						<g>
							<path class="st6" d="M1013.6,957.9c0.3,0.1,0.3,1.6,0,3.5c-0.3,1.9-0.8,3.3-1.2,3.3c-0.3-0.1-0.3-1.6,0-3.5
								C1012.7,959.3,1013.2,957.8,1013.6,957.9z"/>
						</g>
						<g>
							<path class="st6" d="M1015.9,944.5c0.3,0.1,0.3,1.6,0,3.5c-0.3,1.9-0.8,3.3-1.2,3.3c-0.3-0.1-0.3-1.6,0-3.5
								C1015,945.9,1015.5,944.4,1015.9,944.5z"/>
						</g>
						<g>
							<path class="st6" d="M1018.2,931.1c0.3,0.1,0.3,1.6,0,3.5c-0.3,1.9-0.8,3.3-1.2,3.2c-0.3-0.1-0.3-1.6,0-3.5
								C1017.4,932.5,1017.9,931,1018.2,931.1z"/>
						</g>
						<g>
							<path class="st6" d="M1020.5,917.7c0.3,0.1,0.3,1.6,0,3.5c-0.3,1.9-0.8,3.3-1.2,3.2c-0.3-0.1-0.3-1.6,0-3.5
								C1019.7,919.1,1020.2,917.6,1020.5,917.7z"/>
						</g>
						<g>
							<path class="st6" d="M1022.9,904.3c0.3,0.1,0.3,1.6,0,3.5c-0.3,1.9-0.9,3.3-1.2,3.2c-0.3-0.1-0.3-1.6,0-3.5
								C1022,905.7,1022.6,904.2,1022.9,904.3z"/>
						</g>
						<g>
							<path class="st6" d="M1025.3,890.9c0.3,0.1,0.3,1.6,0,3.5c-0.3,1.9-0.9,3.3-1.2,3.2c-0.3-0.1-0.3-1.6,0-3.5
								C1024.4,892.3,1024.9,890.8,1025.3,890.9z"/>
						</g>
						<g>
							<path class="st6" d="M1027.7,877.5c0.3,0.1,0.3,1.6,0,3.5c-0.3,1.8-0.9,3.3-1.2,3.2c-0.3-0.1-0.3-1.6,0-3.5
								C1026.8,878.9,1027.3,877.4,1027.7,877.5z"/>
						</g>
						<g>
							<path class="st6" d="M1030.1,864.1c0.3,0.1,0.3,1.6,0,3.5c-0.3,1.8-0.9,3.3-1.2,3.2c-0.3-0.1-0.3-1.6,0-3.5
								C1029.2,865.5,1029.7,864,1030.1,864.1z"/>
						</g>
						<g>
							<path class="st6" d="M1032.5,850.7c0.3,0.1,0.3,1.6,0,3.5c-0.3,1.8-0.9,3.3-1.2,3.2c-0.3-0.1-0.3-1.6,0-3.5
								C1031.6,852.1,1032.2,850.6,1032.5,850.7z"/>
						</g>
						<g>
							<path class="st6" d="M1034.9,837.3c0.3,0.1,0.3,1.6,0,3.5c-0.3,1.8-0.9,3.3-1.2,3.2c-0.3-0.1-0.3-1.6,0-3.5
								C1034.1,838.7,1034.6,837.3,1034.9,837.3z"/>
						</g>
						<g>
							<path class="st6" d="M1037.4,823.9c0.3,0.1,0.3,1.6,0,3.5c-0.3,1.8-0.9,3.3-1.2,3.2c-0.3-0.1-0.3-1.6,0-3.5
								C1036.5,825.3,1037.1,823.9,1037.4,823.9z"/>
						</g>
						<g>
							<path class="st6" d="M1039.9,810.6c0.3,0.1,0.3,1.6,0,3.5c-0.3,1.8-0.9,3.3-1.2,3.2c-0.3-0.1-0.3-1.6,0-3.5
								C1039,811.9,1039.6,810.5,1039.9,810.6z"/>
						</g>
						<g>
							<path class="st6" d="M1042.4,797.2c0.3,0.1,0.3,1.6,0,3.5c-0.3,1.8-0.9,3.3-1.2,3.2c-0.3-0.1-0.3-1.6,0-3.5
								C1041.5,798.6,1042.1,797.1,1042.4,797.2z"/>
						</g>
						<g>
							<path class="st6" d="M1044.9,783.8c0.3,0.1,0.3,1.6,0,3.5c-0.4,1.8-0.9,3.3-1.2,3.2c-0.3-0.1-0.3-1.6,0.1-3.5
								C1044.1,785.2,1044.6,783.8,1044.9,783.8z"/>
						</g>
						<g>
							<path class="st6" d="M1047.5,770.5c0.3,0.1,0.3,1.6-0.1,3.5c-0.4,1.8-0.9,3.3-1.2,3.2c-0.3-0.1-0.3-1.6,0.1-3.5
								C1046.6,771.8,1047.2,770.4,1047.5,770.5z"/>
						</g>
						<g>
							<path class="st6" d="M1050.1,757.1c0.3,0.1,0.3,1.6-0.1,3.5c-0.4,1.8-0.9,3.3-1.2,3.2c-0.3-0.1-0.3-1.6,0.1-3.5
								C1049.2,758.5,1049.8,757,1050.1,757.1z"/>
						</g>
						<g>
							<path class="st6" d="M1052.7,743.8c0.3,0.1,0.3,1.6-0.1,3.5c-0.4,1.8-0.9,3.3-1.2,3.2c-0.3-0.1-0.3-1.6,0.1-3.5
								C1051.8,745.1,1052.4,743.7,1052.7,743.8z"/>
						</g>
						<g>
							<path class="st6" d="M1055.4,730.4c0.3,0.1,0.3,1.6-0.1,3.5c-0.4,1.8-0.9,3.3-1.3,3.2c-0.3-0.1-0.3-1.6,0.1-3.5
								C1054.5,731.8,1055.1,730.3,1055.4,730.4z"/>
						</g>
						<g>
							<path class="st6" d="M1058.1,717.1c0.3,0.1,0.3,1.6-0.1,3.5c-0.4,1.8-0.9,3.3-1.3,3.2c-0.3-0.1-0.3-1.6,0.1-3.5
								C1057.2,718.4,1057.7,717,1058.1,717.1z"/>
						</g>
						<g>
							<path class="st6" d="M1060.8,703.7c0.3,0.1,0.3,1.6-0.1,3.5c-0.4,1.8-0.9,3.3-1.3,3.2c-0.3-0.1-0.3-1.6,0.1-3.5
								C1059.9,705.1,1060.5,703.7,1060.8,703.7z"/>
						</g>
						<g>
							<path class="st6" d="M1062.9,693.7c0.3,0.1,0.4,0.9,0.2,1.8c-0.2,0.9-0.6,1.6-0.9,1.6c-0.3-0.1-0.4-0.9-0.2-1.8
								C1062.1,694.3,1062.5,693.6,1062.9,693.7z"/>
						</g>
					</g>
					<g>
						<g>
							<path class="st6" d="M1104.2,1092c0.3,0,0.6,0.8,0.5,1.7c0,0.9-0.4,1.7-0.7,1.7c-0.3,0-0.6-0.8-0.5-1.7
								C1103.5,1092.7,1103.8,1092,1104.2,1092z"/>
						</g>
						<g>
							<path class="st6" d="M1104.7,1078.3c0.3,0,0.5,1.5,0.5,3.4c-0.1,1.9-0.4,3.4-0.7,3.4c-0.3,0-0.5-1.6-0.5-3.4
								C1104.1,1079.8,1104.4,1078.3,1104.7,1078.3z"/>
						</g>
						<g>
							<path class="st6" d="M1105.1,1064.7c0.3,0,0.6,1.5,0.5,3.4c-0.1,1.9-0.4,3.4-0.7,3.4c-0.3,0-0.6-1.5-0.5-3.4
								C1104.5,1066.2,1104.8,1064.7,1105.1,1064.7z"/>
						</g>
						<g>
							<path class="st6" d="M1105.5,1051c0.3,0,0.6,1.5,0.5,3.4c0,1.9-0.4,3.4-0.7,3.4c-0.3,0-0.6-1.5-0.5-3.4
								C1104.9,1052.5,1105.2,1051,1105.5,1051z"/>
						</g>
						<g>
							<path class="st6" d="M1105.8,1037.4c0.3,0,0.6,1.5,0.5,3.4c0,1.9-0.3,3.4-0.7,3.4c-0.3,0-0.6-1.5-0.5-3.4
								C1105.2,1038.9,1105.5,1037.4,1105.8,1037.4z"/>
						</g>
						<g>
							<path class="st6" d="M1106.2,1023.7c0.3,0,0.6,1.5,0.5,3.4c-0.1,1.9-0.4,3.4-0.7,3.4c-0.3,0-0.6-1.5-0.5-3.4
								C1105.5,1025.2,1105.8,1023.7,1106.2,1023.7z"/>
						</g>
						<g>
							<path class="st6" d="M1106.6,1010c0.3,0,0.5,1.6,0.5,3.4c-0.1,1.9-0.4,3.4-0.7,3.4s-0.5-1.5-0.5-3.4
								C1106,1011.5,1106.3,1010,1106.6,1010z"/>
						</g>
						<g>
							<path class="st6" d="M1107.2,996.4c0.3,0,0.5,1.6,0.5,3.4c-0.1,1.9-0.4,3.4-0.7,3.4c-0.3,0-0.5-1.6-0.5-3.4
								C1106.5,997.9,1106.9,996.4,1107.2,996.4z"/>
						</g>
						<g>
							<path class="st6" d="M1107.7,982.7c0.3,0,0.5,1.6,0.5,3.4c-0.1,1.9-0.4,3.4-0.7,3.4c-0.3,0-0.5-1.6-0.5-3.4
								C1107.1,984.2,1107.4,982.7,1107.7,982.7z"/>
						</g>
						<g>
							<path class="st6" d="M1108.2,969.1c0.3,0,0.5,1.5,0.5,3.4c-0.1,1.9-0.4,3.4-0.7,3.4c-0.3,0-0.5-1.5-0.5-3.4
								C1107.6,970.6,1107.9,969.1,1108.2,969.1z"/>
						</g>
						<g>
							<path class="st6" d="M1108.6,955.4c0.3,0,0.6,1.5,0.5,3.4c-0.1,1.9-0.4,3.4-0.7,3.4c-0.3,0-0.6-1.5-0.5-3.4
								C1108,956.9,1108.3,955.4,1108.6,955.4z"/>
						</g>
						<g>
							<path class="st6" d="M1109,941.8c0.3,0,0.6,1.5,0.5,3.4c0,1.9-0.4,3.4-0.7,3.4c-0.3,0-0.6-1.5-0.5-3.4
								C1108.3,943.3,1108.6,941.8,1109,941.8z"/>
						</g>
						<g>
							<path class="st6" d="M1109.3,928.1c0.3,0,0.6,1.5,0.5,3.4c0,1.9-0.3,3.4-0.7,3.4c-0.3,0-0.6-1.5-0.5-3.4
								C1108.6,929.6,1108.9,928.1,1109.3,928.1z"/>
						</g>
						<g>
							<path class="st6" d="M1109.5,914.5c0.3,0,0.6,1.5,0.5,3.4c0,1.9-0.3,3.4-0.7,3.4c-0.3,0-0.6-1.5-0.5-3.4
								C1108.9,916,1109.2,914.5,1109.5,914.5z"/>
						</g>
						<g>
							<path class="st6" d="M1109.7,900.8c0.3,0,0.6,1.5,0.6,3.4c0,1.9-0.3,3.4-0.6,3.4c-0.3,0-0.6-1.5-0.6-3.4
								C1109.1,902.3,1109.3,900.8,1109.7,900.8z"/>
						</g>
						<g>
							<path class="st6" d="M1109.8,887.1c0.3,0,0.6,1.5,0.6,3.4c0,1.9-0.3,3.4-0.6,3.4c-0.3,0-0.6-1.5-0.6-3.4
								C1109.2,888.7,1109.4,887.1,1109.8,887.1z"/>
						</g>
						<g>
							<path class="st6" d="M1109.8,873.5c0.3,0,0.6,1.5,0.6,3.4c0,1.9-0.3,3.4-0.6,3.4c-0.3,0-0.6-1.5-0.6-3.4
								C1109.2,875,1109.5,873.5,1109.8,873.5z"/>
						</g>
						<g>
							<path class="st6" d="M1109.8,859.8c0.3,0,0.6,1.5,0.6,3.4c0,1.9-0.3,3.4-0.6,3.4c-0.3,0-0.6-1.5-0.6-3.4
								C1109.2,861.4,1109.4,859.8,1109.8,859.8z"/>
						</g>
						<g>
							<path class="st6" d="M1109.6,846.2c0.3,0,0.6,1.5,0.6,3.4c0,1.9-0.2,3.4-0.6,3.4c-0.3,0-0.6-1.5-0.6-3.4
								C1109.1,847.7,1109.3,846.2,1109.6,846.2z"/>
						</g>
						<g>
							<path class="st6" d="M1109.5,832.5c0.3,0,0.6,1.5,0.6,3.4c0,1.9-0.2,3.4-0.5,3.4c-0.3,0-0.6-1.5-0.6-3.4
								C1108.9,834,1109.1,832.5,1109.5,832.5z"/>
						</g>
						<g>
							<path class="st6" d="M1109.2,818.9c0.3,0,0.6,1.5,0.7,3.4c0,1.9-0.2,3.4-0.5,3.4c-0.3,0-0.6-1.5-0.7-3.4
								C1108.7,820.4,1108.9,818.9,1109.2,818.9z"/>
						</g>
						<g>
							<path class="st6" d="M1108.9,805.2c0.3,0,0.6,1.5,0.7,3.4c0,1.9-0.2,3.4-0.5,3.4c-0.3,0-0.6-1.5-0.7-3.4
								C1108.4,806.7,1108.6,805.2,1108.9,805.2z"/>
						</g>
						<g>
							<path class="st6" d="M1108.4,791.5c0.3,0,0.7,1.5,0.7,3.4c0.1,1.9-0.1,3.4-0.5,3.4c-0.3,0-0.7-1.5-0.7-3.4
								C1107.9,793.1,1108.1,791.5,1108.4,791.5z"/>
						</g>
						<g>
							<path class="st6" d="M1107.6,777.9c0.3,0,0.7,1.5,0.8,3.4c0.1,1.9,0,3.4-0.4,3.4c-0.3,0-0.7-1.5-0.8-3.4
								C1107.1,779.5,1107.3,777.9,1107.6,777.9z"/>
						</g>
						<g>
							<path class="st6" d="M1106.4,764.3c0.3,0,0.7,1.5,0.9,3.3c0.2,1.9,0.1,3.4-0.2,3.5c-0.3,0-0.7-1.5-0.9-3.3
								C1106,765.9,1106.1,764.3,1106.4,764.3z"/>
						</g>
						<g>
							<path class="st6" d="M1105.1,754.1c0.3,0,0.7,0.7,0.8,1.6c0.1,0.9,0,1.7-0.3,1.8c-0.3,0-0.7-0.7-0.8-1.6
								C1104.6,755,1104.7,754.2,1105.1,754.1z"/>
						</g>
					</g>
					<g>
						<path class="st6" d="M1114,689.6c0.1,0,0.1,0.9,0.1,2.5c0,1.6-0.1,4-0.2,6.9c-0.3,5.8-0.7,13.8-1.2,22.7
							c-0.3,4.4-0.6,8.6-0.8,12.5c-0.3,3.8-0.4,7.4-1.5,10.2c-1.1,2.9-3.2,4.5-4.8,5.1c-0.8,0.3-1.5,0.4-1.9,0.4
							c-0.4,0-0.7-0.1-0.7-0.1c0-0.1,0.9,0,2.4-0.7c1.4-0.7,3.2-2.3,4.2-4.9c1-2.7,1-6.1,1.2-10c0.2-3.9,0.5-8.1,0.7-12.5
							c0.5-8.8,1.1-16.9,1.6-22.6c0.2-2.9,0.4-5.2,0.6-6.9C1113.8,690.5,1113.9,689.6,1114,689.6z"/>
					</g>
					<g>
						<path class="st6" d="M1107.7,695c0-0.2,1,0,1.4,1.4c0.2,0.6,0.1,1.5-0.5,2.3c-0.6,0.8-1.9,1-2.9,0.6c-1-0.4-1.7-1.4-1.6-2.4
							c0.1-1,0.7-1.6,1.2-2c1.2-0.7,2.1-0.1,2,0c0,0.2-0.8,0-1.5,0.7c-0.3,0.3-0.7,0.8-0.6,1.3c0,0.5,0.4,1,1,1.3
							c0.6,0.2,1.3,0.1,1.6-0.2c0.4-0.4,0.5-0.9,0.5-1.4C1108.2,695.6,1107.6,695.2,1107.7,695z"/>
					</g>
					<g>
						<path class="st6" d="M1049.8,704.7c0.1-0.2,2,0.7,5.2,1.1c3.2,0.5,7.9,0.3,12.5-1.7c4.6-2,7.8-5.4,9.6-8.2
							c1.8-2.7,2.5-4.7,2.7-4.7c0.1,0-0.2,2.1-2,5.1c-1.7,2.9-5,6.6-9.8,8.8c-4.8,2.2-9.8,2.2-13.1,1.5
							C1051.6,706,1049.8,704.8,1049.8,704.7z"/>
					</g>
					<g>
						<path class="st6" d="M1152.1,689.6c0.2,0,0.2,1.7,1,4.2c0.8,2.5,2.5,5.9,5.5,8.5c3,2.6,6.6,3.9,9.2,4.3
							c2.6,0.5,4.3,0.3,4.3,0.5c0,0.1-1.7,0.6-4.4,0.4c-2.7-0.2-6.6-1.4-9.9-4.2c-3.2-2.8-4.9-6.5-5.5-9.2
							C1151.7,691.3,1152,689.6,1152.1,689.6z"/>
					</g>
				</g>
				<g>
					<path class="st4" d="M1186.6,699l-135.5-9.4l4.7-64.8l0.1-36.2l-13.2,20.4l-40.9-35.6l44-57.4l0,0c7.5-7.8,16.3-13.5,26.7-17.3
						c5.1-1.8,10.5-2.9,16.8-3.2v0c13.5,4.2,27,4.2,40.5,0c5.6,0.7,18.4,1.5,36.8,6.8l51.3,13.9l-16.9,63l-31-10.4
						C1169.9,568.8,1186.9,685.9,1186.6,699z"/>
					<g>
						<path class="st3" d="M1054.5,590.7c-0.3-0.2,1.6-3.7,4.3-7.8c2.6-4.1,5-7.3,5.3-7.1c0.3,0.2-1.6,3.6-4.3,7.8
							C1057.2,587.7,1054.8,590.9,1054.5,590.7z"/>
					</g>
				</g>
			</g>
		</g>
	</g>
	<g class="st13">
		<path class="st12" d="M1216,516.9c0,0.3-38,0.6-84.9,0.6c-46.9,0-84.9-0.3-84.9-0.6c0-0.3,38-0.6,84.9-0.6
			C1178,516.3,1216,516.6,1216,516.9z"/>
	</g>
	<g class="st13">
		<path class="st12" d="M1207.8,546.2c0,0.3-41,0.6-91.6,0.6c-50.6,0-91.6-0.3-91.6-0.6c0-0.3,41-0.6,91.6-0.6
			C1166.8,545.6,1207.8,545.8,1207.8,546.2z"/>
	</g>
	<g class="st13">
		<path class="st12" d="M1172.1,578.3c0,0.3-36.7,0.6-82,0.6c-45.3,0-82-0.3-82-0.6c0-0.3,36.7-0.6,82-0.6
			C1135.4,577.7,1172.1,578,1172.1,578.3z"/>
	</g>
	<g class="st13">
		<path class="st12" d="M1176.5,613.4c0,0.3-27,0.6-60.3,0.6c-33.3,0-60.3-0.3-60.3-0.6c0-0.3,27-0.6,60.3-0.6
			C1149.5,612.8,1176.5,613,1176.5,613.4z"/>
	</g>
	<g class="st13">
		<path class="st12" d="M1179.9,649.7c0,0.3-27.7,0.6-61.9,0.6c-34.2,0-61.9-0.3-61.9-0.6c0-0.3,27.7-0.6,61.9-0.6
			C1152.2,649.1,1179.9,649.4,1179.9,649.7z"/>
	</g>
	<g class="st13">
		<path class="st12" d="M1185.5,683.1c0,0.3-30,0.6-67,0.6c-37,0-67-0.3-67-0.6s30-0.6,67-0.6
			C1155.5,682.5,1185.5,682.7,1185.5,683.1z"/>
	</g>
</g>
</svg>
